<svg width="52" height="50" viewBox="0 0 52 50" fill="none" xmlns="http://www.w3.org/2000/svg">
<path d="M47.4991 4.5134C49.0647 4.5134 50.3536 5.80233 50.3536 7.36705C50.3536 8.93268 49.0647 10.2225 47.4991 10.2225C45.9335 10.2225 44.6445 8.93268 44.6445 7.36705C44.6445 5.80233 45.9335 4.5134 47.4991 4.5134Z" fill="white"/>
<path d="M4.31486 1.65839C5.23513 1.65839 6.06437 2.39569 6.06437 3.4088C6.06437 4.32998 5.32797 5.15833 4.31486 5.15833C3.30175 5.15833 2.56445 4.42191 2.56445 3.4088C2.56445 2.39569 3.39369 1.65839 4.31486 1.65839Z" fill="white"/>
<path d="M42.8048 19.2416C47.0402 19.2416 50.4473 22.6487 50.4473 26.8841C50.4473 31.1204 47.0402 34.5275 42.8048 34.5275H9.93202C5.8805 34.3427 2.6582 31.0276 2.6582 26.8841C2.6582 22.8326 5.8805 19.4255 9.93202 19.2416C9.47144 18.0447 9.19562 16.7557 9.19562 15.4668C9.19562 9.75771 13.7997 5.15368 19.5088 5.15368C24.1128 5.15368 27.9796 8.19209 29.3613 12.3356C30.6503 11.2305 32.3997 10.586 34.2412 10.586C38.4775 10.586 41.8837 13.9931 41.8837 18.2285C41.8837 18.5971 41.8837 19.0578 41.7917 19.4255C42.0685 19.2416 42.4371 19.2416 42.8048 19.2416Z" fill="#4B24EE"/>
<path d="M45.7508 42.5402C47.6323 42.5402 49.1579 44.0658 49.1579 45.9473C49.1579 47.8288 47.6323 49.3544 45.7508 49.3544C43.8693 49.3544 42.3438 47.8288 42.3438 45.9473C42.3438 44.0658 43.8693 42.5402 45.7508 42.5402Z" fill="#4B24EE"/>
<path d="M31.3856 40.7909C33.2671 40.7909 34.7926 42.3164 34.7926 44.1979C34.7926 46.0794 33.2671 47.605 31.3856 47.605C29.5041 47.605 27.9785 46.0794 27.9785 44.1979C27.9785 42.3164 29.5041 40.7909 31.3856 40.7909Z" fill="#4B24EE"/>
<path d="M21.6249 40.7909C23.5073 40.7909 25.032 42.3164 25.032 44.1979C25.032 46.0794 23.5073 47.605 21.6249 47.605C19.7434 47.605 18.2188 46.0794 18.2188 44.1979C18.2188 42.3164 19.7434 40.7909 21.6249 40.7909Z" fill="#4B24EE"/>
<path d="M7.26253 42.5402C9.14402 42.5402 10.6696 44.0658 10.6696 45.9473C10.6696 47.8288 9.14402 49.3544 7.26253 49.3544C5.38104 49.3544 3.85547 47.8288 3.85547 45.9473C3.85547 44.0658 5.38104 42.5402 7.26253 42.5402Z" fill="#4B24EE"/>
<path d="M50.0792 14.2727C50.5389 14.2727 50.9076 14.6413 50.9076 15.1019C50.9076 15.5625 50.5389 15.9312 50.0792 15.9312C49.6186 15.9312 49.25 15.5625 49.25 15.1019C49.25 14.6413 49.6186 14.2727 50.0792 14.2727Z" fill="white"/>
<path d="M46.1183 36.7371C46.578 36.7371 46.9466 37.1058 46.9466 37.5664C46.9466 38.026 46.578 38.3947 46.1183 38.3947C45.6577 38.3947 45.2891 38.026 45.2891 37.5664C45.2891 37.1058 45.5658 36.7371 46.1183 36.7371Z" fill="white"/>
<path d="M37.4634 2.20889C37.924 2.20889 38.2917 2.57664 38.2917 3.03723C38.2917 3.49782 37.924 3.86646 37.4634 3.86646C37.0028 3.86646 36.6351 3.49782 36.6351 3.03723C36.5422 2.57664 37.0028 2.20889 37.4634 2.20889Z" fill="white"/>
<path d="M11.5901 1.98506e-06C12.0479 1.98506e-06 12.4193 0.370483 12.4193 0.82834C12.4193 1.2862 12.0479 1.65668 11.5901 1.65668C11.1322 1.65668 10.7617 1.2862 10.7617 0.82834C10.7617 0.370483 11.1322 1.98506e-06 11.5901 1.98506e-06Z" fill="white"/>
<path d="M5.78732 36.8319C6.24518 36.8319 6.61656 37.2033 6.61656 37.6612C6.61656 38.119 6.24518 38.4895 5.78732 38.4895C5.32947 38.4895 4.95898 38.119 4.95898 37.6612C4.95898 37.2033 5.32947 36.8319 5.78732 36.8319Z" fill="white"/>
<path d="M1.73654 11.5093C2.1944 11.5093 2.56487 11.8798 2.56487 12.3377C2.56487 12.7955 2.1944 13.166 1.73654 13.166C1.27868 13.166 0.908203 12.7955 0.908203 12.3377C0.908203 11.8798 1.27868 11.5093 1.73654 11.5093Z" fill="white"/>
<path d="M6.33977 17.6777C6.06396 17.6777 5.78725 17.4939 5.78725 17.2181C5.69531 16.6656 5.69531 16.0211 5.69531 15.4686C5.69531 7.82517 11.865 1.65549 19.5075 1.65549C24.2035 1.65549 28.5308 4.05036 31.1095 8.00996C31.2934 8.28576 31.2015 8.65442 30.9257 8.8383C30.6489 9.02217 30.2812 8.93023 30.0964 8.65442C27.7944 5.06348 23.8357 2.85339 19.5075 2.85339C12.5095 2.85339 6.89228 8.56156 6.89228 15.4686C6.89228 16.0211 6.89229 16.5736 6.98422 17.0333C6.98422 17.31 6.70842 17.5858 6.33977 17.6777Z" fill="white"/>
<path d="M9.93182 33.8855H42.8046C46.6723 33.8855 49.8027 30.7552 49.8027 26.8875C49.8027 23.0208 46.6723 19.8895 42.8046 19.8895C42.4369 19.8895 42.0682 19.8895 41.6996 19.9815C41.5157 19.9815 41.3318 19.9814 41.239 19.7976C41.1471 19.7056 41.0551 19.5209 41.0551 19.337C41.1471 18.9683 41.1471 18.6006 41.1471 18.2319C41.1471 14.3652 38.0167 11.2339 34.1491 11.2339C32.4915 11.2339 30.9268 11.7865 29.6369 12.7996C29.4531 12.8915 29.2692 12.9834 29.0853 12.8915C28.9005 12.7996 28.7167 12.7076 28.7167 12.5229C27.4268 8.47133 23.652 5.70961 19.4166 5.70961C14.0753 5.70961 9.65601 10.1289 9.65601 15.4702C9.65601 16.6672 9.93182 17.9562 10.3005 19.0612C10.3924 19.2451 10.3924 19.4289 10.2085 19.6137C10.1166 19.7976 9.93182 19.8895 9.74795 19.8895C5.97313 20.0734 3.02573 23.1127 3.02573 26.8875C3.21051 30.6633 6.15701 33.7017 9.93182 33.8855ZM42.8046 34.9906H9.93182C5.51255 34.8067 2.10547 31.2158 2.10547 26.7956C2.10547 22.6521 5.14389 19.245 9.10348 18.6925C8.73483 17.5875 8.55095 16.4824 8.55095 15.3774C8.55095 9.39249 13.4308 4.51264 19.4166 4.51264C23.9288 4.51264 27.8874 7.1824 29.545 11.3268C30.9268 10.4056 32.4915 9.94499 34.1491 9.94499C38.6612 9.94499 42.344 13.6279 42.344 18.14C42.344 18.3239 42.344 18.5086 42.344 18.6925C42.5288 18.6925 42.7127 18.6925 42.8966 18.6925C47.4087 18.6925 51.0916 22.3763 51.0916 26.8875C51.0916 31.3997 47.3167 34.9906 42.8046 34.9906Z" fill="white"/>
<path d="M7.26247 43.0929C5.69683 43.0929 4.40792 44.3818 4.40792 45.9474C4.40792 47.513 5.69683 48.8019 7.26247 48.8019C8.82719 48.8019 10.117 47.513 10.117 45.9474C10.117 44.3818 8.82719 43.0929 7.26247 43.0929ZM7.26247 49.9989C5.05238 49.9989 3.21094 48.1575 3.21094 45.9474C3.21094 43.7373 5.05238 41.8958 7.26247 41.8958C9.47165 41.8958 11.314 43.7373 11.314 45.9474C11.314 48.1575 9.47165 49.9989 7.26247 49.9989Z" fill="white"/>
<path d="M21.6248 41.3434C20.0601 41.3434 18.7712 42.6332 18.7712 44.198C18.7712 45.7636 20.0601 47.0525 21.6248 47.0525C23.1905 47.0525 24.4803 45.7636 24.4803 44.198C24.4803 42.6332 23.1905 41.3434 21.6248 41.3434ZM21.6248 48.2495C19.4157 48.2495 17.5742 46.408 17.5742 44.198C17.5742 41.9879 19.4157 40.1465 21.6248 40.1465C23.8358 40.1465 25.6764 41.9879 25.6764 44.198C25.6764 46.408 23.8358 48.2495 21.6248 48.2495Z" fill="white"/>
<path d="M31.3855 41.3434C29.8208 41.3434 28.531 42.6332 28.531 44.198C28.531 45.7636 29.8208 47.0525 31.3855 47.0525C32.9511 47.0525 34.2401 45.7636 34.2401 44.198C34.2401 42.6332 32.9511 41.3434 31.3855 41.3434ZM31.3855 48.2495C29.1763 48.2495 27.334 46.408 27.334 44.198C27.334 41.9879 29.1763 40.1465 31.3855 40.1465C33.5956 40.1465 35.437 41.9879 35.437 44.198C35.437 46.408 33.5956 48.2495 31.3855 48.2495Z" fill="white"/>
<path d="M45.7507 43.0929C44.1851 43.0929 42.8962 44.3818 42.8962 45.9474C42.8962 47.513 44.1851 48.8019 45.7507 48.8019C47.3164 48.8019 48.6053 47.513 48.6053 45.9474C48.6053 44.3818 47.4083 43.0929 45.7507 43.0929ZM45.7507 49.9989C43.5407 49.9989 41.6992 48.1575 41.6992 45.9474C41.6992 43.7373 43.5407 41.8958 45.7507 41.8958C47.9608 41.8958 49.8023 43.7373 49.8023 45.9474C49.8023 48.1575 48.0528 49.9989 45.7507 49.9989Z" fill="white"/>
<path d="M42.3426 46.5H39.4881C39.2123 46.5 38.9355 46.2233 38.9355 45.9475V34.4373C38.9355 34.1615 39.2123 33.8848 39.4881 33.8848C39.7648 33.8848 40.0406 34.1615 40.0406 34.4373V45.395H42.3426C42.6193 45.395 42.8951 45.6717 42.8951 45.9475C42.8951 46.2233 42.6193 46.5 42.3426 46.5Z" fill="white"/>
<path d="M13.5214 46.5H10.6677C10.391 46.5 10.1152 46.2233 10.1152 45.9475C10.1152 45.6717 10.391 45.395 10.6677 45.395H12.9698V34.4373C12.9698 34.1615 13.2456 33.8848 13.5214 33.8848C13.7981 33.8848 14.0739 34.1615 14.0739 34.4373V45.9475C14.1659 46.3161 13.89 46.5 13.5214 46.5Z" fill="white"/>
<path d="M31.3856 41.3439C31.1098 41.3439 30.834 41.0681 30.834 40.7914V34.4378C30.834 34.162 31.1098 33.8853 31.3856 33.8853C31.6623 33.8853 31.9381 34.162 31.9381 34.4378V40.7914C31.9381 41.0681 31.7543 41.3439 31.3856 41.3439Z" fill="white"/>
<path d="M21.6248 41.3439C21.349 41.3439 21.0723 41.0681 21.0723 40.7914V34.4378C21.0723 34.162 21.349 33.8853 21.6248 33.8853C21.9015 33.8853 22.1773 34.162 22.1773 34.4378V40.7914C22.1773 41.0681 21.9015 41.3439 21.6248 41.3439Z" fill="white"/>
<path d="M47.499 5.06317C46.2101 5.06317 45.197 6.07539 45.197 7.36431C45.197 8.65413 46.2101 9.66723 47.499 9.66723C48.7888 9.66723 49.801 8.65413 49.801 7.36431C49.801 6.07539 48.7888 5.06317 47.499 5.06317ZM47.499 10.8642C45.5656 10.8642 44 9.29859 44 7.36431C44 5.43093 45.5656 3.86619 47.499 3.86619C49.4333 3.86619 50.998 5.43093 50.998 7.36431C50.998 9.29859 49.4333 10.8642 47.499 10.8642Z" fill="white"/>
<path d="M4.31466 2.21175C3.6702 2.21175 3.11677 2.76427 3.11677 3.40873C3.11677 4.05318 3.6702 4.6057 4.31466 4.6057C4.95912 4.6057 5.51164 4.05318 5.51164 3.40873C5.51164 2.76427 4.95912 2.21175 4.31466 2.21175ZM4.31466 5.71075C3.02483 5.71075 2.01172 4.69764 2.01172 3.40873C2.01172 2.1189 3.02483 1.1067 4.31466 1.1067C5.60358 1.1067 6.61669 2.1189 6.61669 3.40873C6.61669 4.60571 5.60358 5.71075 4.31466 5.71075Z" fill="white"/>
</svg>
