<svg width="66" height="66" viewBox="0 0 66 66" fill="none" xmlns="http://www.w3.org/2000/svg">
<path d="M66 33.001C66 49.6677 53.6445 63.4461 37.5948 65.6827C36.0936 65.8917 34.5582 66 33 66C31.2004 66 29.4351 65.8556 27.7135 65.5782C12.0021 63.049 0 49.4245 0 32.9991C0 14.7741 14.7746 0 33 0C51.2254 0 66 14.7741 66 32.9991V33.001Z" fill="#1877F7"/>
<path d="M30.4158 34.2554C29.8362 33.5276 29.1711 32.9708 28.4262 32.5927C29.0856 32.1937 29.65 31.6996 30.1175 31.1162C30.9061 30.13 31.307 28.8911 31.307 27.4336C31.307 26.2194 30.9859 25.104 30.3512 24.1159C29.7184 23.1316 28.7778 22.3392 27.5559 21.7634C26.3568 21.199 24.9145 20.9121 23.267 20.9121H13.9082V45.079H23.6965C25.3003 45.079 26.7312 44.7864 27.9512 44.2125C29.1939 43.6272 30.1631 42.8082 30.8282 41.7802C31.4952 40.7484 31.8334 39.576 31.8334 38.2952C31.8334 36.796 31.3564 35.4354 30.4139 34.2516L30.4158 34.2554ZM25.4447 29.8526C24.8651 30.3219 24.0233 30.5595 22.9383 30.5595H18.8907V25.2047H22.9383C24.0176 25.2047 24.8575 25.4517 25.4352 25.9363C25.9882 26.4018 26.258 27.0441 26.258 27.8973C26.258 28.7505 25.992 29.4079 25.4428 29.8526H25.4447ZM18.8907 34.8463H23.2366C24.3749 34.8463 25.249 35.1219 25.9122 35.69C26.5469 36.2335 26.8547 36.9575 26.8547 37.9038C26.8547 38.8501 26.5678 39.5171 25.9806 40.0149C25.3706 40.5337 24.4927 40.7959 23.3696 40.7959H18.8926V34.8463H18.8907Z" fill="white"/>
<path d="M50.9573 30.2126C50.2029 28.8502 49.1369 27.7766 47.7839 27.0241C46.4328 26.2716 44.8727 25.8896 43.1491 25.8896C41.4256 25.8896 39.7496 26.283 38.3662 27.0564C36.9809 27.8317 35.892 28.9509 35.1262 30.3779C34.3623 31.805 33.9766 33.481 33.9766 35.3584C33.9766 37.2358 34.3756 38.9118 35.1604 40.3389C35.9471 41.7678 37.0474 42.8908 38.4308 43.6756C39.8142 44.4623 41.4009 44.8594 43.1491 44.8594C45.2945 44.8594 47.1188 44.3141 48.5706 43.2405C50.0205 42.1649 51.0371 40.7683 51.592 39.0847L51.6319 38.965H47.3867L47.362 39.0163C46.5449 40.6695 45.1292 41.5075 43.151 41.5075C41.7715 41.5075 40.5933 41.0704 39.6451 40.2096C38.7196 39.3697 38.1895 38.2467 38.064 36.8672H51.9455L51.9569 36.7893C52.0462 36.2344 52.0899 35.6073 52.0899 34.9252C52.0899 33.1561 51.7079 31.5694 50.9554 30.2088L50.9573 30.2126ZM39.7097 30.4578C40.6123 29.6521 41.7144 29.2435 42.9838 29.2435C44.3843 29.2435 45.5758 29.6578 46.524 30.4768C47.4456 31.2729 47.934 32.3409 47.9758 33.652H38.102C38.2883 32.32 38.8279 31.2463 39.7097 30.4597V30.4578Z" fill="white"/>
<path d="M47.6588 21.4712H38.4121V23.6621H47.6588V21.4712Z" fill="white"/>
</svg>
