<svg width="20" height="20" viewBox="0 0 20 20" fill="none" xmlns="http://www.w3.org/2000/svg">
<g clip-path="url(#clip0_5388_13999)">
<path d="M18.3333 1.87542H15.625V0.625417C15.6251 0.459657 15.5594 0.300641 15.4422 0.183353C15.3251 0.0660647 15.1662 0.000110655 15.0004 1.48403e-07C14.8347 -0.000110358 14.6756 0.0656317 14.5584 0.182764C14.4411 0.299896 14.3751 0.458823 14.375 0.624583V1.87542H10.625V0.625417C10.6251 0.543341 10.6089 0.462057 10.5776 0.386208C10.5462 0.310359 10.5002 0.241428 10.4422 0.183353C10.3842 0.125278 10.3154 0.0791946 10.2396 0.0477349C10.1638 0.0162751 10.0825 5.48565e-05 10.0004 1.39089e-07C9.83466 -0.000110368 9.67564 0.0656317 9.55835 0.182764C9.44106 0.299896 9.37511 0.458823 9.375 0.624583V1.87542H5.625V0.625417C5.62505 0.543341 5.60894 0.462057 5.57758 0.386208C5.54623 0.310359 5.50023 0.241428 5.44224 0.183353C5.38424 0.125278 5.31537 0.0791946 5.23956 0.0477349C5.16375 0.0162751 5.08249 5.48565e-05 5.00042 1.39089e-07C4.83466 -0.000110368 4.67564 0.0656317 4.55835 0.182764C4.44106 0.299896 4.37511 0.458823 4.375 0.624583V1.87542H1.66667C1.22478 1.87542 0.800987 2.0509 0.48845 2.36328C0.175913 2.67566 0.000220942 3.09937 0 3.54125V18.3329C0 18.7749 0.175595 19.1989 0.488155 19.5114C0.800716 19.824 1.22464 19.9996 1.66667 19.9996H18.3333C18.7754 19.9996 19.1993 19.824 19.5118 19.5114C19.8244 19.1989 20 18.7749 20 18.3329V3.54125C19.9998 3.09937 19.8241 2.67566 19.5115 2.36328C19.199 2.0509 18.7752 1.87542 18.3333 1.87542ZM18.75 18.3337C18.75 18.4441 18.7062 18.55 18.6283 18.6281C18.5503 18.7062 18.4445 18.7502 18.3342 18.7504H1.66667C1.55616 18.7504 1.45018 18.7065 1.37204 18.6284C1.2939 18.5502 1.25 18.4443 1.25 18.3337V3.54208C1.25022 3.43172 1.29422 3.32595 1.37233 3.24799C1.45045 3.17003 1.5563 3.12625 1.66667 3.12625H4.375V4.37625C4.37489 4.54201 4.44063 4.70103 4.55776 4.81831C4.6749 4.9356 4.83382 5.00156 4.99958 5.00167C5.16534 5.00178 5.32436 4.93604 5.44165 4.8189C5.55894 4.70177 5.62489 4.54284 5.625 4.37708V3.12625H9.375V4.37625C9.37489 4.54201 9.44063 4.70103 9.55776 4.81831C9.6749 4.9356 9.83382 5.00156 9.99958 5.00167C10.1653 5.00178 10.3244 4.93604 10.4416 4.8189C10.5589 4.70177 10.6249 4.54284 10.625 4.37708V3.12625H14.375V4.37625C14.3749 4.54201 14.4406 4.70103 14.5578 4.81831C14.6749 4.9356 14.8338 5.00156 14.9996 5.00167C15.1653 5.00178 15.3244 4.93604 15.4416 4.8189C15.5589 4.70177 15.6249 4.54284 15.625 4.37708V3.12625H18.3333C18.4436 3.12647 18.5492 3.17035 18.6271 3.24829C18.7051 3.32622 18.7489 3.43187 18.7492 3.54208L18.75 18.3337Z" fill="#0D0E10"/>
<path d="M4.375 7.5H6.875V9.375H4.375V7.5ZM4.375 10.625H6.875V12.5H4.375V10.625ZM4.375 13.75H6.875V15.625H4.375V13.75ZM8.75 13.75H11.25V15.625H8.75V13.75ZM8.75 10.625H11.25V12.5H8.75V10.625ZM8.75 7.5H11.25V9.375H8.75V7.5ZM13.125 13.75H15.625V15.625H13.125V13.75ZM13.125 10.625H15.625V12.5H13.125V10.625ZM13.125 7.5H15.625V9.375H13.125V7.5Z" fill="#0D0E10"/>
</g>
<defs>
<clipPath id="clip0_5388_13999">
<rect width="20" height="20" fill="white"/>
</clipPath>
</defs>
</svg>
