<svg width="40" height="38" viewBox="0 0 40 38" fill="none" xmlns="http://www.w3.org/2000/svg">
<path d="M11.2241 3.90562L13.1261 3.3525C14.168 3.04872 15.2886 3.12185 16.2789 3.55824C17.2691 3.99464 18.0613 4.76448 18.5077 5.72412L19.9778 8.88523C20.3615 9.71065 20.4684 10.6315 20.2834 11.5187C20.0984 12.4058 19.6307 13.2146 18.9461 13.8318L16.5112 16.0269C16.44 16.091 16.3949 16.1777 16.3841 16.2711C16.3123 16.8967 16.7508 18.1149 17.7612 19.8089C18.4963 21.0396 19.1629 21.9047 19.7284 22.3885C20.1228 22.7273 20.3396 22.7998 20.4325 22.7746L23.7084 21.8054C24.603 21.5409 25.5608 21.5536 26.4476 21.8418C27.3344 22.1301 28.1056 22.6794 28.6532 23.4128L30.741 26.2115C31.3759 27.0625 31.6698 28.1075 31.5682 29.1522C31.4666 30.197 30.9763 31.1706 30.1885 31.8923L28.7445 33.216C27.9781 33.9177 27.0368 34.4156 26.0123 34.6611C24.9878 34.9066 23.915 34.8914 22.8984 34.6169C18.4099 33.4051 14.3859 29.7429 10.7808 23.7059C7.17078 17.661 5.90442 12.4545 7.07136 8.08471C7.33404 7.10192 7.85413 6.20113 8.58149 5.46915C9.30885 4.73717 10.219 4.1987 11.2241 3.90562ZM11.9298 6.17008C11.3269 6.34572 10.7809 6.6685 10.3445 7.10734C9.908 7.54618 9.59577 8.08629 9.43783 8.67565C8.45669 12.3505 9.57963 16.9661 12.8979 22.524C16.2113 28.0741 19.7789 31.3203 23.5568 32.3414C24.1666 32.5056 24.8099 32.5144 25.4243 32.367C26.0386 32.2195 26.603 31.9208 27.0625 31.4999L28.5082 30.1762C28.8664 29.8481 29.0893 29.4055 29.1355 28.9304C29.1816 28.4554 29.0479 27.9803 28.7592 27.5935L26.673 24.7964C26.4241 24.4626 26.0733 24.2126 25.6699 24.0815C25.2665 23.9504 24.8308 23.9447 24.4239 24.0652L21.1398 25.0375C19.233 25.5859 17.5021 24.103 15.6441 20.9907C14.3924 18.8949 13.809 17.2718 13.954 16.0096C14.0306 15.354 14.3452 14.7489 14.8439 14.2982L17.2788 12.1031C17.5901 11.8226 17.8028 11.4549 17.887 11.0516C17.9712 10.6483 17.9227 10.2296 17.7482 9.85437L16.2781 6.69326C16.0752 6.2574 15.7154 5.90773 15.2656 5.70942C14.8158 5.51111 14.3068 5.47769 13.8334 5.61539L11.9298 6.17008Z" fill="#6E24FF"/>
</svg>
