<svg width="20" height="20" viewBox="0 0 20 20" fill="none" xmlns="http://www.w3.org/2000/svg">
<g clip-path="url(#clip0_6208_13292)">
<mask id="mask0_6208_13292" style="mask-type:luminance" maskUnits="userSpaceOnUse" x="0" y="0" width="20" height="20">
<path d="M9.9974 18.3346C11.092 18.3361 12.176 18.1212 13.1872 17.7023C14.1985 17.2834 15.117 16.6688 15.8899 15.8938C16.6649 15.1209 17.2795 14.2024 17.6984 13.1911C18.1172 12.1799 18.3322 11.0959 18.3307 10.0013C18.3321 8.90676 18.1172 7.82272 17.6983 6.81149C17.2795 5.80026 16.6649 4.88177 15.8899 4.10881C15.117 3.33382 14.1985 2.71923 13.1872 2.30034C12.176 1.88146 11.092 1.66656 9.9974 1.66798C8.90285 1.66658 7.81881 1.8815 6.80758 2.30038C5.79635 2.71926 4.87786 3.33384 4.1049 4.10881C3.32993 4.88177 2.71535 5.80026 2.29647 6.81149C1.87759 7.82272 1.66267 8.90676 1.66407 10.0013C1.66265 11.0959 1.87756 12.1799 2.29644 13.1911C2.71532 14.2024 3.32991 15.1209 4.1049 15.8938C4.87786 16.6688 5.79635 17.2834 6.80758 17.7022C7.81881 18.1211 8.90285 18.336 9.9974 18.3346Z" fill="white" stroke="white" stroke-width="1.66667" stroke-linejoin="round"/>
<path d="M6.66406 10L9.16406 12.5L14.1641 7.5" stroke="black" stroke-width="1.66667" stroke-linecap="round" stroke-linejoin="round"/>
</mask>
<g mask="url(#mask0_6208_13292)">
<path d="M0 0H20V20H0V0Z" fill="#581164"/>
</g>
</g>
<defs>
<clipPath id="clip0_6208_13292">
<rect width="20" height="20" fill="white"/>
</clipPath>
</defs>
</svg>
