<svg width="20" height="20" viewBox="0 0 20 20" fill="none" xmlns="http://www.w3.org/2000/svg">
<mask id="mask0_5726_20477" style="mask-type:luminance" maskUnits="userSpaceOnUse" x="0" y="0" width="20" height="20">
<path d="M9.99936 18.3346C11.0939 18.3361 12.178 18.1212 13.1892 17.7023C14.2004 17.2834 15.1189 16.6688 15.8919 15.8938C16.6668 15.1209 17.2814 14.2024 17.7003 13.1911C18.1192 12.1799 18.3341 11.0959 18.3327 10.0013C18.3341 8.90676 18.1192 7.82272 17.7003 6.81149C17.2814 5.80026 16.6668 4.88177 15.8919 4.10881C15.1189 3.33382 14.2004 2.71923 13.1892 2.30034C12.178 1.88146 11.0939 1.66656 9.99936 1.66798C8.9048 1.66658 7.82077 1.8815 6.80953 2.30038C5.7983 2.71926 4.87982 3.33384 4.10686 4.10881C3.33189 4.88177 2.7173 5.80026 2.29842 6.81149C1.87954 7.82272 1.66463 8.90676 1.66602 10.0013C1.6646 11.0959 1.87951 12.1799 2.29839 13.1911C2.71727 14.2024 3.33187 15.1209 4.10686 15.8938C4.87982 16.6688 5.7983 17.2834 6.80953 17.7022C7.82077 18.1211 8.9048 18.336 9.99936 18.3346Z" fill="white" stroke="white" stroke-width="1.66667" stroke-linejoin="round"/>
<path d="M6.66602 10L9.16602 12.5L14.166 7.5" stroke="black" stroke-width="1.66667" stroke-linecap="round" stroke-linejoin="round"/>
</mask>
<g mask="url(#mask0_5726_20477)">
<path d="M0 0H20V20H0V0Z" fill="#4B24EE"/>
</g>
</svg>
