<svg width="16" height="16" viewBox="0 0 16 16" fill="none" xmlns="http://www.w3.org/2000/svg">
<g clip-path="url(#clip0_6218_3630)">
<path d="M7.99398 1.33398C4.31398 1.33398 1.33398 4.32065 1.33398 8.00065C1.33398 11.6807 4.31398 14.6673 7.99398 14.6673C11.6807 14.6673 14.6673 11.6807 14.6673 8.00065C14.6673 4.32065 11.6807 1.33398 7.99398 1.33398ZM8.00065 13.334C5.05398 13.334 2.66732 10.9473 2.66732 8.00065C2.66732 5.05398 5.05398 2.66732 8.00065 2.66732C10.9473 2.66732 13.334 5.05398 13.334 8.00065C13.334 10.9473 10.9473 13.334 8.00065 13.334Z" fill="#581164"/>
<path d="M8.33398 4.66602H7.33398V8.66602L10.834 10.766L11.334 9.94602L8.33398 8.16602V4.66602Z" fill="#581164"/>
</g>
<defs>
<clipPath id="clip0_6218_3630">
<rect width="16" height="16" fill="white"/>
</clipPath>
</defs>
</svg>
