<svg width="34" height="32" viewBox="0 0 34 32" fill="none" xmlns="http://www.w3.org/2000/svg">
<path d="M30.3202 5.33203H3.28023C2.70498 5.33203 2.24023 5.78703 2.24023 6.35021V26.7138C2.24023 27.277 2.70498 27.732 3.28023 27.732H30.3202C30.8955 27.732 31.3602 27.277 31.3602 26.7138V6.35021C31.3602 5.78703 30.8955 5.33203 30.3202 5.33203ZM29.0202 8.85748V25.4411H4.58023V8.85748L3.68323 8.17339L4.96048 6.56658L6.35148 7.62612H27.2522L28.6432 6.56658L29.9205 8.17339L29.0202 8.85748ZM27.2522 7.62294L16.8002 15.5775L6.34823 7.62294L4.95723 6.56339L3.67998 8.17021L4.57698 8.8543L15.679 17.3052C15.9983 17.548 16.3911 17.6799 16.7954 17.6799C17.1997 17.6799 17.5925 17.548 17.9117 17.3052L29.0202 8.85748L29.9172 8.17339L28.64 6.56658L27.2522 7.62294Z" fill="#6E24FF"/>
</svg>
