<svg width="66" height="66" viewBox="0 0 66 66" fill="none" xmlns="http://www.w3.org/2000/svg">
<path d="M66.0002 32.9992C66.0002 49.666 53.645 63.4445 37.5958 65.681C36.0946 65.8901 34.5592 65.9984 33.0011 65.9984C31.2016 65.9984 29.4363 65.854 27.7147 65.5765C11.9999 63.0473 0 49.4247 0 32.9992C0 14.7742 14.7742 0 32.9992 0C51.2242 0 65.9983 14.7742 65.9983 32.9992H66.0002Z" fill="#1877F7"/>
<path d="M37.5942 26.4965V33.6851H46.4872L45.0791 43.3705H37.5942V65.6828C36.093 65.8918 34.5576 66.0001 32.9995 66.0001C31.2 66.0001 29.4347 65.8557 27.7131 65.5783V43.3705H19.5117V33.6851H27.7131V24.8908C27.7131 19.4334 32.1368 15.0078 37.5961 15.0078V15.0135C37.6113 15.0135 37.6265 15.0078 37.6417 15.0078H46.4891V23.3821H40.7086C38.9889 23.3821 37.5961 24.7749 37.5961 26.4946L37.5942 26.4965Z" fill="white"/>
</svg>
