<svg width="33" height="32" viewBox="0 0 33 32" fill="none" xmlns="http://www.w3.org/2000/svg">
<path d="M11.715 14.9414C12.0999 14.9414 12.4299 14.6154 12.4299 14.2351C12.4299 13.8548 12.0999 13.5288 11.715 13.5288C10.5602 13.5288 9.62501 12.6052 9.62501 11.4643C9.62501 10.3234 10.5602 9.39981 11.715 9.39981C12.0999 9.39981 12.4299 9.07383 12.4299 8.69353C12.4299 8.31322 12.0999 7.98725 11.715 7.98725C9.84521 7.98725 8.25 9.50847 8.25 11.41C8.25 13.3115 9.79029 14.9414 11.715 14.9414Z" fill="#6E24FF"/>
<path d="M11.4946 11.0847C11.22 10.8131 10.7796 10.8131 10.505 11.0847C10.2299 11.3564 10.2299 11.791 10.505 12.0626L11.22 12.7689C11.4946 13.0406 11.935 13.0406 12.2095 12.7689L14.3001 10.7044C14.5746 10.4328 14.5746 9.99812 14.3001 9.72648C14.0249 9.45483 13.5851 9.45483 13.31 9.72648L11.7148 11.302L11.4946 11.0847Z" fill="#6E24FF"/>
<path d="M15.8396 11.5742H18.5896C18.9746 11.5742 19.3046 11.2482 19.3046 10.8679C19.3046 10.4876 18.9746 10.1617 18.5896 10.1617H15.8396C15.4547 10.1617 15.1246 10.4876 15.1246 10.8679C15.1246 11.2482 15.4547 11.5742 15.8396 11.5742Z" fill="#6E24FF"/>
<path d="M20.6253 11.5742H21.3403C21.7252 11.5742 22.0552 11.2482 22.0552 10.8679C22.0552 10.4876 21.7252 10.1617 21.3403 10.1617H20.6253C20.2404 10.1617 19.9098 10.4876 19.9098 10.8679C19.9652 11.2482 20.2404 11.5742 20.6253 11.5742Z" fill="#6E24FF"/>
<path d="M15.8396 13.582H24.0897C24.4746 13.582 24.8046 13.2561 24.8046 12.8757C24.8046 12.4954 24.4746 12.1695 24.0897 12.1695H15.8396C15.4547 12.1695 15.1246 12.4954 15.1246 12.8757C15.1246 13.2561 15.4547 13.582 15.8396 13.582Z" fill="#6E24FF"/>
<path d="M11.715 22.4375C12.0999 22.4375 12.4299 22.1115 12.4299 21.7312C12.4299 21.3509 12.0999 21.0249 11.715 21.0249C10.5602 21.0249 9.62501 20.1013 9.62501 18.9604C9.62501 17.8195 10.5602 16.8959 11.715 16.8959C12.0999 16.8959 12.4299 16.5699 12.4299 16.1896C12.4299 15.8093 12.0999 15.4833 11.715 15.4833C9.84521 15.4833 8.25 17.0046 8.25 18.9061C8.25 20.8076 9.79029 22.4375 11.715 22.4375Z" fill="#6E24FF"/>
<path d="M13.2552 17.1679L11.66 18.7434L11.4398 18.5261C11.1652 18.2545 10.7248 18.2545 10.4502 18.5261C10.1751 18.7978 10.1751 19.2324 10.4502 19.504L11.1652 20.2103C11.4398 20.482 11.8796 20.482 12.1547 20.2103L14.2452 18.1458C14.5198 17.8742 14.5198 17.4395 14.2452 17.1679C13.9701 16.8962 13.5303 16.8962 13.2552 17.1679Z" fill="#6E24FF"/>
<path d="M15.8396 19.0156H18.5896C18.9746 19.0156 19.3046 18.6896 19.3046 18.3093C19.3046 17.929 18.9746 17.6031 18.5896 17.6031H15.8396C15.4547 17.6031 15.1246 17.929 15.1246 18.3093C15.1246 18.6896 15.4547 19.0156 15.8396 19.0156Z" fill="#6E24FF"/>
<path d="M20.6253 17.6577C20.2404 17.6577 19.9098 17.9837 19.9098 18.364C19.9098 18.7443 20.2404 19.0703 20.6253 19.0703H21.3403C21.7252 19.0703 22.0552 18.7443 22.0552 18.364C22.0552 17.9837 21.7252 17.6577 21.3403 17.6577H20.6253Z" fill="#6E24FF"/>
<path d="M15.8396 21.0781H21.3396C21.7246 21.0781 22.0546 20.7521 22.0546 20.3718C22.0546 19.9915 21.7246 19.6656 21.3396 19.6656H15.8396C15.4547 19.6656 15.1246 19.9915 15.1246 20.3718C15.1246 20.7521 15.4547 21.0781 15.8396 21.0781Z" fill="#6E24FF"/>
<path d="M2.09052 29.2281C1.70503 29.2281 1.37501 28.9021 1.37501 28.5218C1.37501 28.1415 1.70503 27.8155 2.09052 27.8155C2.47545 27.8155 2.80549 28.1415 2.80549 28.5218C2.75003 28.9021 2.42054 29.2281 2.09052 29.2281ZM2.09052 26.5116C0.935158 26.5116 0 27.4352 0 28.5761C0 29.717 0.935158 30.6406 2.09052 30.6406C3.24533 30.6406 4.17994 29.717 4.17994 28.5761C4.17994 27.4352 3.19042 26.5116 2.09052 26.5116Z" fill="#6E24FF"/>
<path d="M3.08198 9.50895C2.91724 9.50895 2.75197 9.34597 2.75197 9.18298C2.75197 9.01999 2.91724 8.857 3.08198 8.857C3.24727 8.857 3.41201 9.01999 3.41201 9.18298C3.46692 9.34597 3.30218 9.50895 3.08198 9.50895ZM3.08198 7.49877C2.14737 7.49877 1.37695 8.25938 1.37695 9.18298C1.37695 10.1066 2.14737 10.8672 3.08198 10.8672C4.01714 10.8672 4.78702 10.1066 4.78702 9.18298C4.78702 8.25938 4.01714 7.49877 3.08198 7.49877Z" fill="#6E24FF"/>
<path d="M30.5795 2.71787C31.1298 2.71787 31.6245 3.15251 31.6245 3.75013C31.6245 4.34776 31.1852 4.78239 30.5795 4.78239C29.975 4.78239 29.5351 4.34776 29.5351 3.75013C29.5351 3.15251 30.0299 2.71787 30.5795 2.71787ZM30.5795 6.14062C31.8996 6.14062 33.0001 5.05404 33.0001 3.75013C33.0001 2.44623 31.8996 1.35964 30.5795 1.35964C29.26 1.35964 28.1595 2.44623 28.1595 3.75013C28.1595 5.05404 29.26 6.14062 30.5795 6.14062Z" fill="#6E24FF"/>
<path d="M26.84 30.5874C24.1455 30.5874 22 28.4143 22 25.8065C22 23.1986 24.1455 21.0255 26.84 21.0255C29.5351 21.0255 31.68 23.1443 31.68 25.8065C31.68 28.4686 29.4797 30.5874 26.84 30.5874ZM8.08462 30.5874C7.42511 30.5874 6.87489 30.0441 6.87489 29.3922V6.62818C6.87489 5.97623 7.42511 5.43294 8.08462 5.43294H9.73529C10.0099 6.57385 11.0548 7.38879 12.2651 7.44312C12.3749 7.44312 20.6799 7.44312 20.8447 7.44312C20.955 7.44312 21.0099 7.44312 21.1198 7.38879C22.2202 7.22581 23.045 6.41087 23.3201 5.37861H24.9697C25.6298 5.37861 26.18 5.9219 26.18 6.57385V19.6672C23.045 19.9932 20.6799 22.6553 20.6799 25.7521C20.6799 27.545 21.5047 29.3379 22.9901 30.4788H8.08462V30.5874ZM12.3749 3.42275H14.4649C14.8499 3.42275 15.1799 3.09677 15.1799 2.71647C15.1799 1.95586 15.785 1.35823 16.5549 1.35823C17.3253 1.35823 17.9299 1.95586 17.9299 2.71647C17.9299 3.09677 18.2599 3.42275 18.6449 3.42275H20.7348C21.5047 3.42275 22.1098 4.02037 22.1098 4.78098C22.1098 5.5416 21.5047 6.13922 20.7348 6.13922H12.4848C11.7149 6.13922 11.1098 5.5416 11.1098 4.78098C11.1098 4.02037 11.6051 3.42275 12.3749 3.42275ZM27.4995 19.7216V6.62818C27.4995 5.21562 26.3447 4.0747 24.9153 4.0747H23.2647C22.9352 2.87946 21.8902 2.01019 20.625 2.01019H19.1396C18.8651 0.869268 17.7652 0 16.5 0C15.2348 0 14.1349 0.869268 13.8603 2.06452H12.3749C11.1097 2.06452 10.0099 2.93379 9.73529 4.12903H8.08462C6.65524 4.12903 5.49988 5.26995 5.49988 6.68251V29.4465C5.49988 30.8591 6.65524 32 8.08462 32H24.9153C25.1899 32 25.4101 31.9457 25.6297 31.8913C29.4797 32.5976 32.9447 29.6638 32.9447 25.8608C33.0001 22.6553 30.5796 20.0475 27.4995 19.7216Z" fill="#6E24FF"/>
<path d="M17.2151 23.7945H9.62513C9.24019 23.7945 8.91016 24.1204 8.91016 24.5007C8.91016 24.8811 9.24019 25.207 9.62513 25.207H17.2151C17.6001 25.207 17.9301 24.8811 17.9301 24.5007C17.8752 24.0661 17.5452 23.7945 17.2151 23.7945Z" fill="#6E24FF"/>
<path d="M17.2151 25.8062H9.62513C9.24019 25.8062 8.91016 26.1322 8.91016 26.5125C8.91016 26.8928 9.24019 27.2188 9.62513 27.2188H17.2151C17.6001 27.2188 17.9301 26.8928 17.9301 26.5125C17.8752 26.1322 17.5452 25.8062 17.2151 25.8062Z" fill="#6E24FF"/>
<path d="M29.3706 24.7204L26.8957 25.5353L24.4202 23.9054C24.0907 23.6881 23.6503 23.7968 23.4861 24.0684C23.2654 24.3944 23.3758 24.829 23.6503 24.992L26.4009 26.7849C26.5657 26.8935 26.7858 26.9479 27.0055 26.8392L29.7555 25.9156C30.1405 25.807 30.3057 25.4266 30.1954 25.0463C30.0855 24.7747 29.7006 24.6117 29.3706 24.7204Z" fill="#6E24FF"/>
</svg>
