<svg width="33" height="35" viewBox="0 0 33 35" fill="none" xmlns="http://www.w3.org/2000/svg">
<path d="M30.8037 10.3267V32.4657C30.8037 33.5928 29.9131 34.4829 28.7854 34.4829H3.85761C2.72992 34.4829 1.83984 33.5928 1.83984 32.4657V10.3267H13.71H30.8037Z" fill="#4B24EE"/>
<path d="M26.5314 0.355842C27.4807 0.355842 28.193 1.1274 28.193 2.01805C28.193 2.96738 27.4214 3.67969 26.5314 3.67969C25.6407 3.67969 24.8691 2.90812 24.8691 2.01805C24.8691 1.06814 25.582 0.355842 26.5314 0.355842Z" fill="#4B24EE"/>
<path d="M5.93435 1.83972C6.52812 1.83972 7.06203 2.31439 7.06203 2.96742C7.06203 3.56119 6.58738 4.0957 5.93435 4.0957C5.2819 4.0957 4.80664 3.62045 4.80664 2.96742C4.80664 2.31439 5.34058 1.83972 5.93435 1.83972Z" fill="#4B24EE"/>
<path d="M4.80664 13.2956H27.8358V16.9756H4.80664V13.2956Z" fill="white"/>
<path d="M4.80664 17.0339H27.8358V31.5161H4.80664V17.0339Z" fill="white"/>
<path d="M13.7109 8.13158H30.8047V10.387H13.7109V8.13158Z" fill="white"/>
<path d="M30.8047 7.89479V8.13184H13.7109V5.87645H28.7864C29.9141 5.87645 30.8047 6.76651 30.8047 7.89479Z" fill="white"/>
<path d="M13.71 8.13158V10.387H1.83984V7.95381C1.83984 6.82553 2.72992 5.93547 3.85761 5.93547H13.71V8.13158Z" fill="white"/>
<path d="M32.4661 5.16396C32.7607 5.16396 33.0001 5.40335 33.0001 5.69789C33.0001 5.99302 32.7607 6.23242 32.4661 6.23242C32.171 6.23242 31.9316 5.99302 31.9316 5.69789C31.9316 5.40335 32.171 5.16396 32.4661 5.16396Z" fill="#4B24EE"/>
<path d="M21.3074 2.19524C21.6025 2.19524 21.8419 2.43462 21.8419 2.72974C21.8419 3.02428 21.6025 3.26367 21.3074 3.26367C21.0122 3.26367 20.7734 3.02428 20.7734 2.72974C20.7734 2.43462 21.0122 2.19524 21.3074 2.19524Z" fill="#4B24EE"/>
<path d="M14.6589 3.68035C14.954 3.68035 15.1934 3.91972 15.1934 4.21485C15.1934 4.50997 14.954 4.74878 14.6589 4.74878C14.3644 4.74878 14.125 4.50997 14.125 4.21485C14.125 3.91972 14.3644 3.68035 14.6589 3.68035Z" fill="#4B24EE"/>
<path d="M10.9212 1.48357C11.2158 1.48357 11.4552 1.72295 11.4552 2.01807C11.4552 2.31261 11.2158 2.552 10.9212 2.552C10.6261 2.552 10.3867 2.31261 10.3867 2.01807C10.3867 1.72295 10.6261 1.48357 10.9212 1.48357Z" fill="#4B24EE"/>
<path d="M9.25787 7.36045C9.67328 7.36045 10.03 7.71659 10.03 8.13199C10.03 8.5474 9.67328 8.90356 9.25787 8.90356C8.84247 8.90356 8.48633 8.5474 8.48633 8.13199C8.48633 7.71659 8.84247 7.36045 9.25787 7.36045Z" fill="#4B24EE"/>
<path d="M7.06196 7.36045C7.47795 7.36045 7.8341 7.71659 7.8341 8.13199C7.8341 8.5474 7.47795 8.90356 7.06196 8.90356C6.64655 8.90356 6.29102 8.5474 6.29102 8.13199C6.29102 7.71659 6.64655 7.36045 7.06196 7.36045Z" fill="#4B24EE"/>
<path d="M4.8061 7.36045C5.2215 7.36045 5.57824 7.71659 5.57824 8.13199C5.57824 8.5474 5.2215 8.90356 4.8061 8.90356C4.39069 8.90356 4.03516 8.5474 4.03516 8.13199C4.03516 7.71659 4.39069 7.36045 4.8061 7.36045Z" fill="#4B24EE"/>
<path d="M0.533901 5.16396C0.829026 5.16396 1.06783 5.40335 1.06783 5.69789C1.06783 5.99302 0.829026 6.23242 0.533901 6.23242C0.238776 6.23242 0 5.99302 0 5.69789C0 5.40335 0.238776 5.16396 0.533901 5.16396Z" fill="#4B24EE"/>
<path d="M30.8031 10.7429H1.83916C1.66079 10.7429 1.48242 10.5651 1.48242 10.3868C1.48242 10.2084 1.66079 10.0306 1.83916 10.0306H30.8031C30.9814 10.0306 31.1592 10.2084 31.1592 10.3868C31.1592 10.5651 30.9814 10.7429 30.8031 10.7429Z" fill="#4B24EE"/>
<path d="M30.8048 8.48755H13.711C13.5327 8.48755 13.3555 8.30975 13.3555 8.13139C13.3555 7.95361 13.5327 7.77525 13.711 7.77525H30.8048C30.9832 7.77525 31.1609 7.95361 31.1609 8.13139C31.1609 8.30975 30.9832 8.48755 30.8048 8.48755Z" fill="#4B24EE"/>
<path d="M5.93444 2.19525C5.51904 2.19525 5.16347 2.55139 5.16347 2.96679C5.16347 3.3822 5.51904 3.73894 5.93444 3.73894C6.34984 3.73894 6.70659 3.3822 6.70659 2.96679C6.64674 2.49213 6.34984 2.19525 5.93444 2.19525ZM5.93444 4.39136C5.10363 4.39136 4.45117 3.73891 4.45117 2.90752C4.45117 2.07671 5.10363 1.42368 5.93444 1.42368C6.76525 1.42368 7.41885 2.07671 7.41885 2.90752C7.41885 3.73891 6.76525 4.39136 5.93444 4.39136Z" fill="#4B24EE"/>
<path d="M26.5301 0.711827C25.8178 0.711827 25.224 1.30558 25.224 2.01787C25.224 2.73016 25.8178 3.32335 26.5301 3.32335C27.2424 3.32335 27.8355 2.73016 27.8355 2.01787C27.8355 1.30558 27.2424 0.711827 26.5301 0.711827ZM26.5301 4.03564C25.4024 4.03564 24.5117 3.14557 24.5117 2.01787C24.5117 0.890179 25.4024 0.00010252 26.5301 0.00010252C27.6578 0.00010252 28.5478 0.890179 28.5478 2.01787C28.5478 3.14557 27.6578 4.03564 26.5301 4.03564Z" fill="#4B24EE"/>
<path d="M13.711 10.7429C13.5327 10.7429 13.3555 10.5651 13.3555 10.3868V5.93526C13.3555 5.75748 13.5327 5.5791 13.711 5.5791C13.8894 5.5791 14.0678 5.75748 14.0678 5.93526V10.3868C14.0678 10.5651 13.9481 10.7429 13.711 10.7429Z" fill="#4B24EE"/>
<path d="M3.85693 6.29149C2.96686 6.29149 2.19472 7.00378 2.19472 7.9537V32.5259C2.19472 33.416 2.90701 34.1876 3.85693 34.1876H28.7847C29.6754 34.1876 30.4475 33.4752 30.4475 32.5259V7.89442C30.4475 7.00377 29.7352 6.23224 28.7847 6.23224H3.85693V6.29149ZM28.7847 34.8406H3.85693C2.55146 34.8406 1.48242 33.7721 1.48242 32.4667V7.89442C1.48242 6.58836 2.55146 5.51994 3.85693 5.51994H28.7847C30.0908 5.51994 31.1592 6.58836 31.1592 7.89442V32.4667C31.1592 33.7721 30.0908 34.8406 28.7847 34.8406Z" fill="#4B24EE"/>
<path d="M5.16347 31.0999H27.4205V13.7099H5.16347V31.0999ZM27.8359 31.8721H4.80673C4.62895 31.8721 4.45117 31.6937 4.45117 31.5159V13.2945C4.45117 13.1161 4.62895 12.9383 4.80673 12.9383H27.8359C28.0136 12.9383 28.192 13.1161 28.192 13.2945V31.4567C28.192 31.6937 28.0136 31.8721 27.8359 31.8721Z" fill="#4B24EE"/>
<path d="M8.13003 25.9382C7.95225 25.9382 7.83374 25.8191 7.7739 25.7006L6.70607 23.0891C6.64622 22.9113 6.70605 22.6737 6.88383 22.6144C7.06161 22.5552 7.29923 22.6144 7.35849 22.7922L8.18988 24.692L9.31759 22.7329C9.4361 22.5552 9.67315 22.4953 9.85151 22.6144C10.0299 22.7329 10.0886 22.9706 9.97004 23.1483L8.48619 25.7599C8.42693 25.879 8.3084 25.9382 8.13003 25.9382Z" fill="#4B24EE"/>
<path d="M11.0978 25.9382C10.9793 25.9382 10.8607 25.879 10.8009 25.7599L9.31766 23.1483C9.19914 22.9706 9.25782 22.7329 9.43618 22.6144C9.61455 22.4953 9.85159 22.5552 9.97011 22.7329L11.0978 24.692L11.9286 22.7922C11.9885 22.6144 12.2255 22.4953 12.4039 22.6144C12.5816 22.6737 12.7002 22.9113 12.5816 23.0891L11.454 25.7006C11.3947 25.8191 11.2762 25.9382 11.0978 25.9382Z" fill="#4B24EE"/>
<path d="M14.8377 25.9382C14.6594 25.9382 14.5409 25.8191 14.4822 25.7006L13.3545 23.0891C13.2947 22.9113 13.3545 22.6737 13.5317 22.6144C13.7101 22.5552 13.9471 22.6144 14.007 22.7922L14.8377 24.692L15.9655 22.7329C16.0846 22.5552 16.3216 22.4953 16.5 22.6144C16.6777 22.7329 16.737 22.9706 16.6185 23.1483L15.1346 25.7599C15.0754 25.879 14.9563 25.9382 14.8377 25.9382Z" fill="#4B24EE"/>
<path d="M17.8059 25.9382C17.6867 25.9382 17.5676 25.879 17.509 25.7599L16.0245 23.1483C15.906 22.9706 15.9653 22.7329 16.1436 22.6144C16.3214 22.4953 16.5591 22.5552 16.6776 22.7329L17.8059 24.692L18.6366 22.7922C18.6953 22.6144 18.9335 22.4953 19.1107 22.6144C19.2891 22.6737 19.4076 22.9113 19.2891 23.0891L18.1614 25.7006C18.1022 25.8191 17.983 25.9382 17.8059 25.9382Z" fill="#4B24EE"/>
<path d="M21.4846 25.9382C21.3062 25.9382 21.1877 25.8191 21.1284 25.7006L20.0007 23.0891C19.9415 22.9113 20.0007 22.6737 20.1791 22.6144C20.3569 22.5552 20.5945 22.6144 20.6538 22.7922L21.4846 24.692L22.6122 22.7329C22.7308 22.5552 22.9684 22.4953 23.1462 22.6144C23.3245 22.7329 23.3838 22.9706 23.2653 23.1483L21.7815 25.7599C21.7815 25.879 21.6629 25.9382 21.4846 25.9382Z" fill="#4B24EE"/>
<path d="M24.4538 25.9382C24.3353 25.9382 24.2162 25.879 24.1569 25.7599L22.6737 23.1483C22.554 22.9706 22.6138 22.7329 22.7922 22.6144C22.97 22.4953 23.2076 22.5552 23.3261 22.7329L24.4538 24.692L25.2852 22.7922C25.3439 22.6144 25.5821 22.4953 25.7593 22.6144C25.9376 22.6737 26.0562 22.9113 25.9376 23.0891L24.8099 25.7006C24.7507 25.8191 24.6316 25.9382 24.4538 25.9382Z" fill="#4B24EE"/>
<path d="M27.8359 17.3899H4.80673C4.62895 17.3899 4.45117 17.2115 4.45117 17.0338C4.45117 16.856 4.62895 16.6776 4.80673 16.6776H27.8359C28.0136 16.6776 28.192 16.856 28.192 17.0338C28.192 17.2115 28.0136 17.3899 27.8359 17.3899Z" fill="#4B24EE"/>
</svg>
