<svg width="32" height="32" viewBox="0 0 32 32" fill="none" xmlns="http://www.w3.org/2000/svg">
<path d="M6.60063 18.0551H25.0345L2.61031 23.833L6.60063 18.0551ZM13.1199 8.55488L27.7885 16.6662H7.55615L13.1199 8.55488ZM6.20718 13.8883H7.72455L5.30804 17.3884H3.67823L6.20718 13.8883ZM30.8797 16.7773C30.823 16.7217 32.0597 17.3884 13.2323 6.99929C12.8951 6.83262 12.5018 6.94374 12.333 7.22152L8.73607 12.4994H5.92634C5.70128 12.4994 5.47649 12.6105 5.36427 12.7772L1.76741 17.6107C1.43017 18.0551 1.7674 18.7218 2.32925 18.7218H4.35252L0.305982 24.5553C0.137589 24.7775 0.137589 25.1108 0.305982 25.3331C0.474819 25.5553 0.755883 25.6664 1.03672 25.6108L30.5419 17.944C31.2169 17.8329 31.3291 17.1662 30.8797 16.7773Z" fill="#433CE7"/>
<path d="M28.3504 25.0004C28.3504 24.6115 28.0131 24.2782 27.6198 24.2782H11.4903C11.0968 24.2782 10.7598 24.6115 10.7598 25.0004C10.7598 25.3893 11.0968 25.7227 11.4903 25.7227H27.6759C28.0131 25.6671 28.3504 25.3338 28.3504 25.0004Z" fill="#433CE7"/>
<path d="M31.161 24.2782H29.756C29.3626 24.2782 29.0254 24.6115 29.0254 25.0004C29.0254 25.3893 29.3626 25.7227 29.756 25.7227H31.161C31.5543 25.7227 31.8916 25.3893 31.8916 25.0004C31.8916 24.6115 31.5543 24.2782 31.161 24.2782Z" fill="#433CE7"/>
<path d="M26.2702 27.0551C26.2702 26.6662 25.933 26.3329 25.5396 26.3329H9.41015C9.01669 26.3329 8.67969 26.6662 8.67969 27.0551C8.67969 27.444 9.01669 27.7773 9.41015 27.7773H25.5958C25.933 27.7773 26.2702 27.444 26.2702 27.0551Z" fill="#433CE7"/>
<path d="M29.0804 26.3876H27.6753C27.282 26.3876 26.9453 26.7209 26.9453 27.1098C26.9453 27.4987 27.282 27.832 27.6753 27.832H29.0804C29.4737 27.832 29.8109 27.4987 29.8109 27.1098C29.7548 26.6653 29.4176 26.3876 29.0804 26.3876Z" fill="#433CE7"/>
<path d="M7.27566 28.4461C6.88199 28.4461 6.54492 28.7795 6.54492 29.1684C6.54492 29.5573 6.88199 29.8906 7.27566 29.8906H23.4617C23.855 29.8906 24.1917 29.5573 24.1917 29.1684C24.1917 28.7795 23.855 28.4461 23.4617 28.4461H7.27566Z" fill="#433CE7"/>
<path d="M26.9448 28.4461H25.5392C25.1458 28.4461 24.8086 28.7795 24.8086 29.1684C24.8086 29.5573 25.1458 29.8906 25.5392 29.8906H26.9448C27.3381 29.8906 27.6748 29.5573 27.6748 29.1684C27.6748 28.7795 27.3381 28.4461 26.9448 28.4461Z" fill="#433CE7"/>
<path d="M21.3249 30.5555H5.19531C4.80207 30.5555 4.46484 30.8889 4.46484 31.2778C4.46484 31.6667 4.80207 32 5.19531 32H21.3249C21.7182 32 22.0554 31.6667 22.0554 31.2778C22.0554 30.8333 21.7182 30.5555 21.3249 30.5555Z" fill="#433CE7"/>
<path d="M24.8661 30.5555H23.4616C23.0677 30.5555 22.7305 30.8889 22.7305 31.2778C22.7305 31.6667 23.0677 32 23.4616 32H24.8661C25.2594 32 25.5966 31.6667 25.5966 31.2778C25.5405 30.8333 25.2033 30.5555 24.8661 30.5555Z" fill="#433CE7"/>
<path d="M4.46384 8.33153C4.8573 8.33153 5.19431 8.66487 5.19431 9.05377C5.19431 9.44267 4.8573 9.77601 4.46384 9.77601C4.07039 9.77601 3.73333 9.44267 3.73333 9.05377C3.73333 8.66487 4.07039 8.33153 4.46384 8.33153ZM4.46384 11.1094C5.6442 11.1094 6.59951 10.1649 6.59951 8.99821C6.59951 7.83152 5.6442 6.88705 4.46384 6.88705C3.28343 6.88705 2.32812 7.83152 2.32812 8.99821C2.32812 10.1649 3.28343 11.1094 4.46384 11.1094Z" fill="#433CE7"/>
<path d="M9.74789 2.0546C10.3102 2.0546 10.816 2.49906 10.816 3.11019C10.816 3.72131 10.3661 4.16577 9.74789 4.16577C9.12982 4.16577 8.68037 3.72131 8.68037 3.11019C8.68037 2.49906 9.12982 2.0546 9.74789 2.0546ZM9.74789 5.55469C11.0969 5.55469 12.2208 4.44355 12.2208 3.11019C12.2208 1.77682 11.0969 0.665683 9.74789 0.665683C8.39908 0.665683 7.27539 1.77682 7.27539 3.11019C7.27539 4.44355 8.39908 5.55469 9.74789 5.55469Z" fill="#433CE7"/>
<path d="M24.8652 6.94702H27.6753V8.33594H24.8652V6.94702Z" fill="#433CE7"/>
<path d="M27.6758 5.55639H30.4858V6.94531H27.6758V5.55639Z" fill="#433CE7"/>
<path d="M24.8652 9.72045H27.6753V11.1094H24.8652V9.72045Z" fill="#433CE7"/>
<path d="M27.6758 8.33373H30.4858V9.72266H27.6758V8.33373Z" fill="#433CE7"/>
<path d="M24.8652 4.16577H27.6753V5.55469H24.8652V4.16577Z" fill="#433CE7"/>
<path d="M27.6758 2.77905H30.4858V4.16797H27.6758V2.77905Z" fill="#433CE7"/>
<path d="M24.8652 1.38842H27.6753V2.77734H24.8652V1.38842Z" fill="#433CE7"/>
<path d="M27.6758 0.00170326H30.4858V1.39062H27.6758V0.00170326Z" fill="#433CE7"/>
</svg>
