<svg width="31" height="32" viewBox="0 0 31 32" fill="none" xmlns="http://www.w3.org/2000/svg">
<path d="M19.7966 23.5396L16.6342 18.5479L27.0709 16.6038L29.3382 21.2802C28.4945 21.4904 19.7966 23.5396 19.7966 23.5396ZM26.8078 28.8465L16.2653 30.5804V20.3869L18.9535 24.643C19.1119 24.8532 19.3225 24.9582 19.5861 24.9582C19.6388 24.9582 25.0158 23.6446 26.8078 23.2243V28.8465ZM4.24705 23.2243C11.8903 25.0633 11.4156 24.9057 11.4687 24.9582C11.7319 24.9582 11.9429 24.8532 12.1008 24.643L14.9475 20.2819V30.5279L4.24705 28.8465V23.2243ZM4.03601 16.6038L14.4733 18.5479L11.205 23.5396C10.7303 23.4345 3.13975 21.5954 1.61142 21.2802L4.03601 16.6038ZM12.6807 2.5221C13.5244 1.62885 14.6312 1.15596 15.7906 1.15596H15.8437C18.2683 1.15596 20.2714 3.25771 20.2714 5.7798C20.2714 6.88322 19.9024 7.98664 19.1646 8.77479C18.3209 9.77312 17.7415 11.0867 17.4778 12.4003H16.4232V9.24769H16.9505C17.3194 9.24769 17.6357 8.93242 17.6357 8.56462C17.6357 8.19681 17.3194 7.88155 16.9505 7.88155H16.4758C16.4758 7.82901 16.4758 7.82901 16.4758 7.77646C16.5289 7.25103 17.0031 6.88322 17.5305 6.88322C17.8994 6.88322 18.2157 6.56796 18.2157 6.20016C18.2157 5.83235 17.8994 5.51709 17.5305 5.51709C16.8452 5.51709 16.2653 5.7798 15.8437 6.2527C15.4216 5.83235 14.7896 5.51709 14.157 5.51709C13.7881 5.51709 13.4717 5.83235 13.4717 6.20016C13.4717 6.56796 13.7881 6.88322 14.157 6.88322C14.6838 6.88322 15.1059 7.25103 15.2111 7.77646C15.2111 7.82901 15.2111 7.82901 15.2111 7.88155H14.7369C14.368 7.88155 14.0512 8.19681 14.0512 8.56462C14.0512 8.93242 14.368 9.24769 14.7369 9.24769H15.2111V12.4003H14.157C13.8933 11.0342 13.3133 9.77312 12.5229 8.77479C10.9414 6.98831 10.994 4.30858 12.6807 2.5221ZM14.0512 14.6597C13.7881 14.6597 13.577 14.4495 13.577 14.1868C13.577 14.0817 13.6296 13.9766 13.6823 13.9241H17.8994C17.952 13.9766 18.0052 14.0817 18.0052 14.1868C18.0052 14.4495 17.7941 14.6597 17.5305 14.6597C16.7395 14.6597 15.2111 14.6597 14.0512 14.6597ZM15.1585 15.9733H16.3179C16.5816 15.9733 16.7921 16.1834 16.7921 16.4462C16.7921 16.7089 16.5816 16.9191 16.3179 16.9191H15.1585C14.8948 16.9191 14.6838 16.7089 14.6838 16.4462C14.6838 16.1834 14.8948 15.9733 15.1585 15.9733ZM30.9191 21.4378C27.8619 15.1851 28.073 15.6055 28.0198 15.5529C27.9146 15.3953 27.7567 15.2902 27.5983 15.2902L21.9055 14.2393C21.5365 14.1868 21.2202 14.397 21.115 14.7648C21.0092 15.1326 21.2729 15.4478 21.6418 15.5529L23.8559 15.9733L18.0052 17.0767C18.1104 16.7089 18.1104 16.3411 18.0052 15.9733C19.3225 15.5529 19.6388 13.9241 18.6899 13.0308C18.9009 11.8223 19.3751 10.6664 20.1129 9.77312C21.0092 8.72225 21.4839 7.35612 21.4839 5.93744C21.4839 2.67973 18.9009 0.0525455 15.7906 1.90735e-06H15.7379C12.5755 1.90735e-06 9.9925 2.67973 9.9925 5.93744C9.9925 7.35612 10.4672 8.72225 11.3629 9.77312C12.1008 10.6664 12.5755 11.8223 12.786 13.0308C11.7845 13.9241 12.1008 15.6055 13.4717 16.0258C13.366 16.3936 13.3133 16.814 13.4717 17.1818L7.30423 16.0258L10.7303 15.3953C11.0998 15.3428 11.3103 14.9749 11.2577 14.6071C11.205 14.2393 10.8361 14.0292 10.4672 14.0817C3.13975 15.2902 3.56182 15.2377 3.50919 15.2377C3.35078 15.2902 3.1929 15.3953 3.08712 15.5529L0.082567 21.3853C-0.12795 21.7531 0.0825657 22.226 0.504642 22.3311L2.87661 22.909V29.4245C2.87661 29.7397 3.08712 30.0024 3.40342 30.055C16.3179 32.1042 15.4216 31.9991 15.6327 31.9991C16.3705 31.894 26.8604 30.1601 27.493 30.055C27.8093 30.0024 28.0204 29.7397 28.0204 29.4245V22.909L30.3918 22.3311C30.9191 22.226 31.1302 21.8056 30.9191 21.4378Z" fill="#433CE7"/>
<path d="M26.1232 10.4023C26.3337 10.4023 26.5447 10.2973 26.7026 10.0871C28.0736 7.88025 28.1262 5.20052 26.7026 2.99369C26.4921 2.67843 26.1232 2.57334 25.8069 2.78351C25.4906 2.99369 25.3853 3.36149 25.5958 3.67675C26.7552 5.46324 26.7026 7.61753 25.5958 9.35147C25.3322 9.66673 25.5958 10.4023 26.1232 10.4023Z" fill="#433CE7"/>
<path d="M24.2783 9.03906C24.4893 9.03906 24.753 8.93398 24.8582 8.7238C25.5961 7.35767 25.7019 5.78136 24.8582 4.36268C24.6998 4.04741 24.2783 3.94233 23.962 4.09996C23.6457 4.25759 23.5404 4.67794 23.6983 4.9932C24.2783 6.04407 24.2256 7.14749 23.6983 8.09328C23.4346 8.51363 23.7509 9.03906 24.2783 9.03906Z" fill="#433CE7"/>
<path d="M5.5647 10.4023C6.09204 10.4023 6.40834 9.82436 6.14467 9.40401C4.98527 7.61753 5.0379 5.46324 6.14467 3.7293C6.35571 3.41404 6.25045 2.99369 5.93415 2.83606C5.61786 2.62588 5.19578 2.73097 5.0379 3.04623C3.66745 5.25307 3.61482 7.93279 5.0379 10.1396C5.14315 10.2447 5.35419 10.4023 5.5647 10.4023Z" fill="#433CE7"/>
<path d="M7.72598 8.98403C8.04228 8.8264 8.14805 8.40605 7.98964 8.09078C7.40968 7.03991 7.46283 5.93649 7.98964 4.99071C8.14805 4.67545 8.04228 4.2551 7.72598 4.09747C7.40969 3.93984 6.98812 4.04492 6.83023 4.36018C6.09186 5.72632 5.9866 7.30263 6.83023 8.72131C6.98812 8.93148 7.40969 9.14166 7.72598 8.98403Z" fill="#433CE7"/>
</svg>
