<svg width="33" height="34" viewBox="0 0 33 34" fill="none" xmlns="http://www.w3.org/2000/svg">
<path d="M20.2411 32.9978H13.4941C13.4941 32.4306 13.4941 28.5181 13.4941 28.0075C14.3439 28.0075 19.504 28.0075 20.2411 28.0075C20.2411 28.0075 20.2411 32.4306 20.2411 32.9978Z" fill="white"/>
<path d="M28.9173 29.4246C29.5978 29.4246 30.165 29.9918 30.165 30.6718C30.165 31.012 30.0518 31.3522 29.8254 31.5221C29.5978 31.7491 29.3142 31.8623 28.9745 31.8623H20.2422V29.4246H28.9173Z" fill="#4B24EE"/>
<path d="M13.4941 29.4285V31.9233H4.47817C3.7977 31.9233 3.23047 31.3561 3.23047 30.6756C3.23047 30.3354 3.34423 29.9957 3.57124 29.8253C3.79769 29.5983 4.08134 29.4845 4.42157 29.4845H13.4941V29.4285Z" fill="#4B24EE"/>
<path d="M15.252 24.0958H18.4273V28.0082H15.252V24.0958Z" fill="#4B24EE"/>
<path d="M30.8457 5.32781C31.8098 5.32781 32.6035 6.12206 32.6035 7.08504C32.6035 8.04969 31.8098 8.84338 30.8457 8.84338C29.8816 8.84338 29.0879 8.04969 29.0879 7.08504C29.0879 6.12206 29.8816 5.32781 30.8457 5.32781Z" fill="#4B24EE"/>
<path d="M2.83473 19.8446C4.21249 19.8446 5.32959 20.9611 5.32959 22.3389C5.32959 23.7166 4.21249 24.8337 2.83473 24.8337C1.45697 24.8337 0.339844 23.7166 0.339844 22.3389C0.339844 20.9611 1.45697 19.8446 2.83473 19.8446Z" fill="#4B24EE"/>
<path d="M22.3398 0.391557C23.6442 1.69588 24.6083 2.65998 25.912 3.96375H22.3398V0.391557Z" fill="#4B24EE"/>
<path d="M25.9116 3.91175V24.0972C25.1179 24.0972 8.61791 24.0972 7.82422 24.0972V0.396172H22.3394V3.91175H25.9116Z" fill="white"/>
<path d="M31.1849 22.3352C31.2981 22.6189 31.1849 22.9025 30.9013 23.0157C30.6182 23.1295 30.3346 23.0157 30.2214 22.7321C30.1076 22.4485 30.2214 22.1654 30.5044 22.0516C30.7314 21.8823 31.0711 22.0516 31.1849 22.3352Z" fill="#4B24EE"/>
<path d="M29.0309 12.0225C29.1447 12.3056 29.0309 12.5892 28.7473 12.703C28.4642 12.8162 28.1806 12.703 28.0668 12.4193C27.9536 12.1357 28.0668 11.8521 28.3504 11.7389C28.6341 11.6251 28.9171 11.7389 29.0309 12.0225Z" fill="#4B24EE"/>
<path d="M28.3512 2.491C28.465 2.77462 28.3512 3.05824 28.0676 3.17146C27.784 3.28469 27.5004 3.17147 27.3871 2.88785C27.2739 2.60422 27.3871 2.3206 27.6708 2.20737C27.9544 2.09415 28.2374 2.20738 28.3512 2.491Z" fill="#4B24EE"/>
<path d="M7.76722 26.9347C7.88101 27.2177 7.76722 27.5014 7.48359 27.6146C7.19997 27.7284 6.91693 27.6146 6.80314 27.3315C6.68992 27.0479 6.80315 26.7643 7.08677 26.651C7.37039 26.5378 7.654 26.651 7.76722 26.9347Z" fill="#4B24EE"/>
<path d="M6.00944 12.0225C6.12266 12.3056 6.00943 12.5892 5.72581 12.703C5.44219 12.8162 5.15912 12.703 5.04533 12.4193C4.93211 12.1357 5.04533 11.8521 5.32896 11.7389C5.55597 11.6251 5.89621 11.7389 6.00944 12.0225Z" fill="#4B24EE"/>
<path d="M2.83365 3.51192C2.94688 3.79554 2.83365 4.07916 2.55003 4.19295C2.26641 4.30618 1.98334 4.19295 1.86955 3.90932C1.75632 3.6257 1.86955 3.34264 2.15318 3.22885C2.38075 3.11507 2.72043 3.22886 2.83365 3.51192Z" fill="#4B24EE"/>
<path d="M13.4959 32.2571H4.47996C3.57304 32.2571 2.89258 31.52 2.89258 30.6697C2.89258 30.2162 3.06241 29.8194 3.34603 29.5358C3.62965 29.2521 4.0265 29.0817 4.47996 29.0817H13.4959C13.6652 29.0817 13.8356 29.2521 13.8356 29.4225C13.8356 29.5924 13.6652 29.7622 13.4959 29.7622H4.47996C4.25295 29.7622 4.02651 29.8754 3.85611 30.0458C3.68627 30.2162 3.57303 30.4427 3.57303 30.6697C3.57303 31.1803 3.96989 31.5772 4.47996 31.5772H13.4959C13.6652 31.5772 13.8356 31.747 13.8356 31.9174C13.8356 32.0872 13.6652 32.2571 13.4959 32.2571Z" fill="#4B24EE"/>
<path d="M28.9178 32.2571H20.2426C20.0728 32.2571 19.9023 32.0872 19.9023 31.9174C19.9023 31.747 20.0728 31.5772 20.2426 31.5772H28.9178C29.1453 31.5772 29.3718 31.4634 29.5422 31.2935C29.7114 31.1231 29.8258 30.8967 29.8258 30.6697C29.8258 30.1591 29.4284 29.7622 28.9178 29.7622H20.2426C20.0728 29.7622 19.9023 29.5924 19.9023 29.4225C19.9023 29.2521 20.0728 29.0817 20.2426 29.0817H28.9178C29.8258 29.0817 30.5057 29.8194 30.5057 30.6697C30.5057 31.1231 30.3359 31.52 30.0522 31.8036C29.7114 32.0872 29.3146 32.2571 28.9178 32.2571Z" fill="#4B24EE"/>
<path d="M20.2421 33.3397H13.4951C13.3247 33.3397 13.1543 33.1699 13.1543 33.0001V28.0097C13.1543 27.8399 13.3247 27.6695 13.4951 27.6695H15.2523C15.4222 27.6695 15.5926 27.8399 15.5926 28.0097C15.5926 28.1801 15.4222 28.3505 15.2523 28.3505H13.8348V32.6032H19.8452V28.3505H18.4277C18.2578 28.3505 18.0874 28.1801 18.0874 28.0097C18.0874 27.8399 18.2578 27.6695 18.4277 27.6695H20.1854C20.3558 27.6695 20.5257 27.8399 20.5257 28.0097V33.0001C20.5823 33.1699 20.4125 33.3397 20.2421 33.3397Z" fill="#4B24EE"/>
<path d="M18.4277 28.3501H15.2524C15.0825 28.3501 14.9121 28.1797 14.9121 28.0093V24.0969C14.9121 23.927 15.0825 23.7572 15.2524 23.7572C15.4222 23.7572 15.5926 23.927 15.5926 24.0969V27.6691H18.0875V24.0969C18.0875 23.927 18.2579 23.7572 18.4277 23.7572C18.5975 23.7572 18.7679 23.927 18.7679 24.0969V28.0093C18.8251 28.1797 18.6547 28.3501 18.4277 28.3501Z" fill="#4B24EE"/>
<path d="M8.16485 23.7549H25.5157V4.07895L22.17 0.733765H8.16485V23.7549ZM25.9126 24.4919H7.82518C7.65478 24.4919 7.48438 24.3215 7.48438 24.1517V0.393534C7.48438 0.223135 7.65478 0.0533009 7.82518 0.0533009H22.3404C22.4536 0.0533009 22.5108 0.109909 22.5668 0.167082L26.139 3.73927C26.1962 3.79532 26.2528 3.90911 26.2528 3.96572V24.1517C26.2528 24.3215 26.083 24.4919 25.9126 24.4919Z" fill="#4B24EE"/>
<path d="M25.9119 4.25269H22.3397C22.1693 4.25269 22 4.08228 22 3.91245V0.340258C22 0.170421 22.1693 2.57492e-05 22.3397 2.57492e-05C22.5101 2.57492e-05 22.6799 0.170421 22.6799 0.340258V3.5156H25.8553C26.0251 3.5156 26.1955 3.68544 26.1955 3.85583C26.1955 4.02567 26.0823 4.25269 25.9119 4.25269Z" fill="#4B24EE"/>
<path d="M23.0777 19.5023H10.66C10.4896 19.5023 10.3203 19.3319 10.3203 19.1615C10.3203 18.9922 10.4896 18.8218 10.66 18.8218H23.0777C23.2476 18.8218 23.418 18.9922 23.418 19.1615C23.418 19.3319 23.2481 19.5023 23.0777 19.5023Z" fill="#4B24EE"/>
<path d="M23.0777 17.4064H10.66C10.4896 17.4064 10.3203 17.2365 10.3203 17.0667C10.3203 16.8963 10.4896 16.7265 10.66 16.7265H23.0777C23.2476 16.7265 23.418 16.8963 23.418 17.0667C23.418 17.2365 23.2481 17.4064 23.0777 17.4064Z" fill="#4B24EE"/>
<path d="M23.0777 15.2534H10.66C10.4896 15.2534 10.3203 15.083 10.3203 14.9126C10.3203 14.7433 10.4896 14.5729 10.66 14.5729H23.0777C23.2476 14.5729 23.418 14.7433 23.418 14.9126C23.418 15.083 23.2481 15.2534 23.0777 15.2534Z" fill="#4B24EE"/>
<path d="M23.0777 13.1533H10.66C10.4896 13.1533 10.3203 12.9835 10.3203 12.8131C10.3203 12.6427 10.4896 12.4728 10.66 12.4728H23.0777C23.2476 12.4728 23.418 12.6427 23.418 12.8131C23.418 12.9835 23.2481 13.1533 23.0777 13.1533Z" fill="#4B24EE"/>
<path d="M23.0777 10.9963H10.66C10.4896 10.9963 10.3203 10.8259 10.3203 10.6555C10.3203 10.4863 10.4896 10.3159 10.66 10.3159H23.0777C23.2476 10.3159 23.418 10.4863 23.418 10.6555C23.418 10.8259 23.2481 10.9963 23.0777 10.9963Z" fill="#4B24EE"/>
<path d="M23.0777 8.89636H10.66C10.4896 8.89636 10.3203 8.72597 10.3203 8.55613C10.3203 8.38629 10.4896 8.21589 10.66 8.21589H23.0777C23.2476 8.21589 23.418 8.38629 23.418 8.55613C23.418 8.72597 23.2481 8.89636 23.0777 8.89636Z" fill="#4B24EE"/>
<path d="M17.0107 6.74341H10.66C10.4896 6.74341 10.3203 6.57301 10.3203 6.40261C10.3203 6.23333 10.4896 6.06294 10.66 6.06294H17.0673C17.2371 6.06294 17.4075 6.23333 17.4075 6.40261C17.4075 6.57301 17.2371 6.74341 17.0107 6.74341Z" fill="#4B24EE"/>
<path d="M30.846 5.66597C30.0523 5.66597 29.4285 6.28927 29.4285 7.08297C29.4285 7.87722 30.0523 8.50108 30.846 8.50108C31.6397 8.50108 32.2636 7.87722 32.2636 7.08297C32.2636 6.28927 31.6397 5.66597 30.846 5.66597ZM30.846 9.23816C29.6555 9.23816 28.6914 8.27407 28.6914 7.08297C28.6914 5.89242 29.6555 4.92889 30.846 4.92889C32.0366 4.92889 33.0007 5.89242 33.0007 7.08297C33.0007 8.27407 32.0366 9.23816 30.846 9.23816Z" fill="#4B24EE"/>
<path d="M2.83456 20.2384C1.64402 20.2384 0.679931 21.2025 0.679931 22.393C0.679931 23.5836 1.64402 24.5477 2.83456 24.5477C4.02567 24.5477 4.98974 23.5836 4.98974 22.393C4.98974 21.2025 4.02567 20.2384 2.83456 20.2384ZM2.83456 25.1715C1.24717 25.1715 0 23.9238 0 22.3358C0 20.7485 1.24717 19.5013 2.83456 19.5013C4.42251 19.5013 5.67022 20.7485 5.67022 22.3358C5.67022 23.9238 4.42251 25.1715 2.83456 25.1715Z" fill="#4B24EE"/>
</svg>
