<svg width="33" height="32" viewBox="0 0 33 32" fill="none" xmlns="http://www.w3.org/2000/svg">
<path d="M11.715 14.9414C12.0999 14.9414 12.4299 14.6154 12.4299 14.2351C12.4299 13.8548 12.0999 13.5288 11.715 13.5288C10.5602 13.5288 9.62501 12.6052 9.62501 11.4643C9.62501 10.3234 10.5602 9.39981 11.715 9.39981C12.0999 9.39981 12.4299 9.07383 12.4299 8.69353C12.4299 8.31322 12.0999 7.98725 11.715 7.98725C9.84521 7.98725 8.25 9.50847 8.25 11.41C8.25 13.3115 9.79029 14.9414 11.715 14.9414Z" fill="#433CE7"/>
<path d="M11.4947 11.0847C11.2201 10.8131 10.7797 10.8131 10.5052 11.0847C10.2301 11.3564 10.2301 11.791 10.5052 12.0626L11.2201 12.7689C11.4947 13.0406 11.9351 13.0406 12.2097 12.7689L14.3002 10.7044C14.5747 10.4328 14.5747 9.99812 14.3002 9.72648C14.0251 9.45483 13.5852 9.45483 13.3101 9.72648L11.7149 11.302L11.4947 11.0847Z" fill="#433CE7"/>
<path d="M15.84 11.5742H18.59C18.9749 11.5742 19.305 11.2482 19.305 10.8679C19.305 10.4876 18.9749 10.1617 18.59 10.1617H15.84C15.455 10.1617 15.125 10.4876 15.125 10.8679C15.125 11.2482 15.455 11.5742 15.84 11.5742Z" fill="#433CE7"/>
<path d="M20.6257 11.5742H21.3406C21.7256 11.5742 22.0556 11.2482 22.0556 10.8679C22.0556 10.4876 21.7256 10.1617 21.3406 10.1617H20.6257C20.2407 10.1617 19.9102 10.4876 19.9102 10.8679C19.9656 11.2482 20.2407 11.5742 20.6257 11.5742Z" fill="#433CE7"/>
<path d="M15.84 13.582H24.09C24.475 13.582 24.805 13.2561 24.805 12.8757C24.805 12.4954 24.475 12.1695 24.09 12.1695H15.84C15.455 12.1695 15.125 12.4954 15.125 12.8757C15.125 13.2561 15.455 13.582 15.84 13.582Z" fill="#433CE7"/>
<path d="M11.715 22.4375C12.0999 22.4375 12.4299 22.1115 12.4299 21.7312C12.4299 21.3509 12.0999 21.0249 11.715 21.0249C10.5602 21.0249 9.62501 20.1013 9.62501 18.9604C9.62501 17.8195 10.5602 16.8959 11.715 16.8959C12.0999 16.8959 12.4299 16.5699 12.4299 16.1896C12.4299 15.8093 12.0999 15.4833 11.715 15.4833C9.84521 15.4833 8.25 17.0046 8.25 18.9061C8.25 20.8076 9.79029 22.4375 11.715 22.4375Z" fill="#433CE7"/>
<path d="M13.2554 17.1679L11.6602 18.7434L11.44 18.5261C11.1654 18.2545 10.725 18.2545 10.4505 18.5261C10.1754 18.7978 10.1754 19.2324 10.4505 19.504L11.1654 20.2103C11.44 20.482 11.8799 20.482 12.155 20.2103L14.2455 18.1458C14.5201 17.8742 14.5201 17.4395 14.2455 17.1679C13.9704 16.8962 13.5305 16.8962 13.2554 17.1679Z" fill="#433CE7"/>
<path d="M15.84 19.0156H18.59C18.9749 19.0156 19.305 18.6896 19.305 18.3093C19.305 17.929 18.9749 17.6031 18.59 17.6031H15.84C15.455 17.6031 15.125 17.929 15.125 18.3093C15.125 18.6896 15.455 19.0156 15.84 19.0156Z" fill="#433CE7"/>
<path d="M20.6257 17.6577C20.2407 17.6577 19.9102 17.9837 19.9102 18.364C19.9102 18.7443 20.2407 19.0703 20.6257 19.0703H21.3406C21.7256 19.0703 22.0556 18.7443 22.0556 18.364C22.0556 17.9837 21.7256 17.6577 21.3406 17.6577H20.6257Z" fill="#433CE7"/>
<path d="M15.84 21.0781H21.34C21.725 21.0781 22.055 20.7521 22.055 20.3718C22.055 19.9915 21.725 19.6656 21.34 19.6656H15.84C15.455 19.6656 15.125 19.9915 15.125 20.3718C15.125 20.7521 15.455 21.0781 15.84 21.0781Z" fill="#433CE7"/>
<path d="M2.09052 29.2281C1.70503 29.2281 1.37501 28.9021 1.37501 28.5218C1.37501 28.1415 1.70503 27.8155 2.09052 27.8155C2.47545 27.8155 2.80549 28.1415 2.80549 28.5218C2.75003 28.9021 2.42054 29.2281 2.09052 29.2281ZM2.09052 26.5116C0.935158 26.5116 0 27.4352 0 28.5761C0 29.717 0.935158 30.6406 2.09052 30.6406C3.24533 30.6406 4.17994 29.717 4.17994 28.5761C4.17994 27.4352 3.19042 26.5116 2.09052 26.5116Z" fill="#433CE7"/>
<path d="M3.08198 9.50895C2.91724 9.50895 2.75197 9.34597 2.75197 9.18298C2.75197 9.01999 2.91724 8.857 3.08198 8.857C3.24727 8.857 3.41201 9.01999 3.41201 9.18298C3.46692 9.34597 3.30218 9.50895 3.08198 9.50895ZM3.08198 7.49877C2.14737 7.49877 1.37695 8.25938 1.37695 9.18298C1.37695 10.1066 2.14737 10.8672 3.08198 10.8672C4.01714 10.8672 4.78702 10.1066 4.78702 9.18298C4.78702 8.25938 4.01714 7.49877 3.08198 7.49877Z" fill="#433CE7"/>
<path d="M30.5802 2.71787C31.1304 2.71787 31.6251 3.15251 31.6251 3.75013C31.6251 4.34776 31.1858 4.78239 30.5802 4.78239C29.9756 4.78239 29.5357 4.34776 29.5357 3.75013C29.5357 3.15251 30.0305 2.71787 30.5802 2.71787ZM30.5802 6.14062C31.9003 6.14062 33.0007 5.05404 33.0007 3.75013C33.0007 2.44623 31.9003 1.35964 30.5802 1.35964C29.2606 1.35964 28.1602 2.44623 28.1602 3.75013C28.1602 5.05404 29.2606 6.14062 30.5802 6.14062Z" fill="#433CE7"/>
<path d="M26.8401 30.5874C24.1456 30.5874 22.0001 28.4143 22.0001 25.8065C22.0001 23.1986 24.1456 21.0255 26.8401 21.0255C29.5352 21.0255 31.6801 23.1443 31.6801 25.8065C31.6801 28.4686 29.4798 30.5874 26.8401 30.5874ZM8.08474 30.5874C7.42524 30.5874 6.87501 30.0441 6.87501 29.3922V6.62818C6.87501 5.97623 7.42524 5.43294 8.08474 5.43294H9.73541C10.01 6.57385 11.055 7.38879 12.2652 7.44312C12.3751 7.44312 20.68 7.44312 20.8448 7.44312C20.9552 7.44312 21.0101 7.44312 21.1199 7.38879C22.2203 7.22581 23.0451 6.41087 23.3202 5.37861H24.9698C25.6299 5.37861 26.1801 5.9219 26.1801 6.57385V19.6672C23.0451 19.9932 20.68 22.6553 20.68 25.7521C20.68 27.545 21.5048 29.3379 22.9902 30.4788H8.08474V30.5874ZM12.3751 3.42275H14.465C14.85 3.42275 15.18 3.09677 15.18 2.71647C15.18 1.95586 15.7851 1.35823 16.555 1.35823C17.3254 1.35823 17.93 1.95586 17.93 2.71647C17.93 3.09677 18.26 3.42275 18.645 3.42275H20.735C21.5048 3.42275 22.11 4.02037 22.11 4.78098C22.11 5.5416 21.5048 6.13922 20.735 6.13922H12.4849C11.715 6.13922 11.1099 5.5416 11.1099 4.78098C11.1099 4.02037 11.6052 3.42275 12.3751 3.42275ZM27.4997 19.7216V6.62818C27.4997 5.21562 26.3448 4.0747 24.9155 4.0747H23.2648C22.9353 2.87946 21.8903 2.01019 20.6251 2.01019H19.1398C18.8652 0.869268 17.7653 0 16.5001 0C15.2349 0 14.135 0.869268 13.8604 2.06452H12.3751C11.1099 2.06452 10.01 2.93379 9.73541 4.12903H8.08474C6.65536 4.12903 5.5 5.26995 5.5 6.68251V29.4465C5.5 30.8591 6.65536 32 8.08474 32H24.9155C25.19 32 25.4102 31.9457 25.6299 31.8913C29.4798 32.5976 32.9448 29.6638 32.9448 25.8608C33.0002 22.6553 30.5797 20.0475 27.4997 19.7216Z" fill="#433CE7"/>
<path d="M17.2151 23.7945H9.62513C9.24019 23.7945 8.91016 24.1204 8.91016 24.5007C8.91016 24.8811 9.24019 25.207 9.62513 25.207H17.2151C17.6001 25.207 17.9301 24.8811 17.9301 24.5007C17.8752 24.0661 17.5452 23.7945 17.2151 23.7945Z" fill="#433CE7"/>
<path d="M17.2151 25.8062H9.62513C9.24019 25.8062 8.91016 26.1322 8.91016 26.5125C8.91016 26.8928 9.24019 27.2188 9.62513 27.2188H17.2151C17.6001 27.2188 17.9301 26.8928 17.9301 26.5125C17.8752 26.1322 17.5452 25.8062 17.2151 25.8062Z" fill="#433CE7"/>
<path d="M29.3711 24.7204L26.8962 25.5353L24.4207 23.9054C24.0912 23.6881 23.6508 23.7968 23.4866 24.0684C23.2659 24.3944 23.3763 24.829 23.6508 24.992L26.4014 26.7849C26.5661 26.8935 26.7863 26.9479 27.006 26.8392L29.756 25.9156C30.141 25.807 30.3062 25.4266 30.1959 25.0463C30.086 24.7747 29.7011 24.6117 29.3711 24.7204Z" fill="#433CE7"/>
</svg>
