<svg width="34" height="32" viewBox="0 0 34 32" fill="none" xmlns="http://www.w3.org/2000/svg">
<path d="M31.6631 16.8392L27.8147 17.6783C27.5316 17.7343 27.3621 17.958 27.3056 18.1818C27.0225 19.3566 26.57 20.4755 25.9468 21.4825C25.7778 21.7063 25.7778 21.986 25.9468 22.2098L28.0413 25.5105L26.7395 26.7972L23.4007 24.7273C23.1742 24.5594 22.8916 24.5594 22.6645 24.7273C21.6463 25.3986 20.5146 25.8462 19.3263 26.0699C19.0432 26.1259 18.8732 26.3497 18.8161 26.5734L17.968 30.3776H16.1566L15.3079 26.5734C15.2508 26.2937 15.0248 26.1259 14.7988 26.0699C13.61 25.7902 12.4782 25.3427 11.4595 24.7273C11.2334 24.5594 10.9504 24.5594 10.7244 24.7273L7.38508 26.7972L6.08326 25.5105L8.17723 22.2098C8.3473 21.986 8.3473 21.7063 8.17723 21.4825C7.49807 20.4755 7.04493 19.3566 6.81892 18.1818C6.76186 17.9021 6.53584 17.7343 6.30982 17.6783L2.34842 16.8392V15.049L6.19682 14.2098C6.47989 14.1538 6.64885 13.9301 6.70591 13.7063C6.98899 12.5315 7.44156 11.4126 8.06422 10.4056C8.23373 10.1818 8.23373 9.9021 8.06422 9.67832L5.96968 6.37762L7.27207 5.09091L10.6102 7.16084C10.8374 7.32867 11.1205 7.32867 11.3465 7.16084C12.3652 6.54545 13.497 6.04196 14.6858 5.76224C14.9683 5.70629 15.1378 5.48252 15.1948 5.25874L16.0435 1.45455H17.8544L18.7031 5.25874C18.7602 5.53846 18.9862 5.70629 19.2128 5.76224C20.401 6.04196 21.5333 6.48951 22.5515 7.16084C22.7781 7.32867 23.0606 7.32867 23.2877 7.16084L26.6259 5.09091L27.9277 6.37762L25.8338 9.67832C25.6648 9.9021 25.6648 10.1818 25.8338 10.4056C26.5129 11.4126 26.966 12.5315 27.1921 13.7063C27.2491 13.986 27.4751 14.1538 27.7017 14.2098L31.5496 15.049V16.8392H31.6631ZM32.5118 13.8182L28.5504 12.9231C28.2673 11.9161 27.8712 10.9091 27.3056 10.014L29.4561 6.6014C29.6262 6.32168 29.5691 5.98601 29.3431 5.70629L27.2491 3.63636C27.0226 3.41259 26.6259 3.35664 26.3434 3.52448L22.8916 5.70629C21.9853 5.14685 20.9672 4.75525 19.9484 4.47552L19.0432 0.559441C18.9862 0.223776 18.7031 0 18.3641 0H15.4209C15.0818 0 14.7988 0.223776 14.7417 0.559441L13.8365 4.47552C12.8178 4.75525 11.7991 5.14685 10.8933 5.70629L7.44157 3.52448C7.15849 3.35664 6.81892 3.41259 6.53584 3.63636L4.44184 5.70629C4.21583 5.93007 4.15932 6.32168 4.32884 6.6014L6.4799 10.014C5.91374 10.9091 5.51767 11.9161 5.23459 12.9231L1.27319 13.8182C0.933611 13.8741 0.707031 14.1538 0.707031 14.4895V17.3986C0.707031 17.7343 0.933611 18.014 1.27319 18.0699L5.23459 18.965C5.51767 19.972 5.91374 20.979 6.4799 21.8741L4.32884 25.2867C4.15932 25.5664 4.21583 25.9021 4.44184 26.1818L6.53584 28.2517C6.76241 28.4755 7.15849 28.5315 7.44157 28.3636L10.8933 26.2378C11.7991 26.7972 12.8178 27.1888 13.8365 27.4685L14.5157 30.5455H5.29108C4.895 30.5455 4.55542 30.8811 4.55542 31.2727C4.55542 31.6643 4.895 32 5.29108 32C6.5929 32 28.6069 32 29.3431 32C29.7392 32 30.0782 31.6643 30.0782 31.2727C30.0782 30.8811 29.7392 30.5455 29.3431 30.5455H19.3823L20.0614 27.4685C21.0802 27.1888 22.0989 26.7972 23.0046 26.2378L26.4569 28.3636C26.7395 28.5315 27.0791 28.4755 27.3621 28.2517L29.4561 26.1818C29.6821 25.958 29.7392 25.5664 29.5691 25.2867L27.3056 21.8741C27.8712 20.979 28.2673 19.972 28.5504 18.965L32.5118 18.0699C32.8514 18.014 33.0779 17.7343 33.0779 17.3986V14.4895C33.0779 14.1538 32.8514 13.8741 32.5118 13.8182Z" fill="#6E24FF"/>
<path d="M22.382 16.6157H23.6843C23.5708 17.9024 23.0052 19.0772 22.269 20.0842L21.3073 19.1331C21.0242 18.8534 20.5716 18.8534 20.2885 19.1331C20.0055 19.4129 20.0055 19.8604 20.2885 20.1401L21.2508 21.0912C20.2885 21.8744 19.0438 22.4338 17.7414 22.5457V21.2031C17.7414 20.8115 17.4024 20.4758 17.0063 20.4758C16.6102 20.4758 16.2706 20.8115 16.2706 21.2031V22.5457C14.9688 22.4338 13.7241 21.8744 12.7618 21.0912L13.7241 20.1401C14.0071 19.8604 14.0071 19.4129 13.7241 19.1331C13.441 18.8534 12.9878 18.8534 12.7053 19.1331L11.7431 20.0842C10.9509 19.1331 10.4418 17.9024 10.2718 16.6157H11.573C11.9691 16.6157 12.3092 16.28 12.3092 15.8884C12.3092 15.4968 11.9691 15.1611 11.573 15.1611H10.2718C10.3848 13.8744 10.9509 12.6436 11.7431 11.6926L12.6483 12.5877C12.9313 12.8674 13.3839 12.8674 13.667 12.5877C13.9501 12.308 13.9501 11.8604 13.667 11.5807L12.7618 10.6856C13.7241 9.90238 14.9123 9.39888 16.2706 9.28699V10.5737C16.2706 10.9653 16.6102 11.301 17.0063 11.301C17.4024 11.301 17.7414 10.9653 17.7414 10.5737V9.28699C19.0438 9.39888 20.232 9.95832 21.2508 10.7415L20.3451 11.6366C20.062 11.9164 20.062 12.3639 20.3451 12.6436C20.6281 12.9234 21.0807 12.9234 21.3638 12.6436L22.269 11.7485C23.0611 12.6996 23.5708 13.9303 23.7403 15.2171H22.382C21.9859 15.2171 21.6469 15.5527 21.6469 15.9443C21.6469 16.3359 21.9859 16.6157 22.382 16.6157ZM17.0063 7.88839C12.5353 7.88839 8.91345 11.4688 8.91345 15.9443C8.91345 20.3639 12.5353 23.9443 17.0628 23.9443C21.5339 23.9443 25.1551 20.3639 25.1551 15.9443C25.0992 11.5248 21.4768 7.88839 17.0063 7.88839Z" fill="#6E24FF"/>
<path d="M19.0435 14.9386L17.4021 16.0015L15.7042 14.3232C15.4212 14.0435 14.9686 14.0435 14.6861 14.3232C14.403 14.6029 14.403 15.0505 14.6861 15.3302L16.836 17.4561C17.0625 17.6798 17.4586 17.7358 17.7412 17.5679L19.8922 16.1693C20.2318 15.9456 20.2883 15.498 20.0617 15.2183C19.7786 14.8267 19.3266 14.7148 19.0435 14.9386Z" fill="#6E24FF"/>
<path d="M30.9275 30.603C30.6444 30.8828 30.6444 31.3303 30.9275 31.61C31.2106 31.8898 31.6632 31.8898 31.9463 31.61C32.2293 31.3303 32.2293 30.8828 31.9463 30.603C31.8327 30.4912 31.2106 30.3233 30.9275 30.603Z" fill="#6E24FF"/>
<path d="M2.63211 30.603C2.34903 30.8828 2.34903 31.3303 2.63211 31.61C2.91518 31.8898 3.36722 31.8898 3.6503 31.61C3.93338 31.3303 3.93338 30.8828 3.6503 30.603C3.36722 30.3233 2.91518 30.3233 2.63211 30.603Z" fill="#6E24FF"/>
</svg>
