<svg width="32" height="32" viewBox="0 0 32 32" fill="none" xmlns="http://www.w3.org/2000/svg">
<path d="M20.1672 15.9457C20.1117 16.0569 20.0002 16.1124 19.9448 16.2235C19.0007 17.4457 18.334 19.0569 18.1116 20.5569H16.7226V14.8346H17.0005C17.3894 14.8346 17.7227 14.5013 17.7227 14.1124C17.7227 13.7235 17.3894 13.3902 17.0005 13.3902H16.7781C16.889 13.0013 17.2779 12.668 17.7227 12.668C18.1116 12.668 18.4449 12.3346 18.4449 11.9457C18.4449 11.5569 18.1116 11.2235 17.7227 11.2235C17.056 11.2235 16.4448 11.5013 16.0005 12.0013C15.5562 11.5569 14.9449 11.2235 14.2782 11.2235C13.8893 11.2235 13.556 11.5569 13.556 11.9457C13.556 12.3346 13.8893 12.668 14.2782 12.668C14.723 12.668 15.1118 12.9457 15.2228 13.3902H15.0004C14.6115 13.3902 14.2782 13.7235 14.2782 14.1124C14.2782 14.5013 14.6115 14.8346 15.0004 14.8346H15.4447V20.6124H14.0003C13.7784 19.0569 13.1671 17.5013 12.2225 16.2791C12.1116 16.168 12.0561 16.0569 11.9446 15.9457C11.1115 14.8902 10.6117 13.6124 10.6117 12.2235C10.6117 9.11241 13.1117 6.5013 16.1114 6.5013H16.1669C19.1671 6.5013 21.6116 9.11241 21.6116 12.2235C21.5006 13.6124 21.0003 14.9457 20.1672 15.9457ZM16.7226 25.2791H15.1673C14.6115 25.2791 14.1118 24.8346 14.1118 24.2791V23.2791C14.1118 22.8902 13.8339 22.5569 13.4445 22.5569H13.0002C12.8893 22.5569 12.7783 22.3902 12.7783 22.2791C12.7783 22.168 12.8893 22.0013 13.0002 22.0013H13.1117C13.1671 22.0013 13.2226 22.0013 13.2781 22.0013H18.6119C18.6119 22.0013 18.6119 22.0013 18.6673 22.0013C18.7228 22.0013 18.8337 22.0013 18.8892 21.9457C19.0007 21.9457 19.1116 22.0569 19.1116 22.2235C19.1116 22.3902 19.0007 22.5013 18.8892 22.5013C17.8891 22.5013 17.1669 22.5013 16.1669 22.5013C15.778 22.5013 15.4447 22.8346 15.4447 23.2235C15.4447 23.6124 15.778 23.9457 16.1669 23.9457H17.7227V24.2791C17.7227 24.8346 17.3339 25.2791 16.7226 25.2791ZM16.0559 5.11241C12.1671 5.11241 9.11133 8.39019 9.11133 12.2235C9.11133 13.8902 9.72259 15.5569 10.7781 16.8346C11.6673 17.9457 12.278 19.3346 12.5004 20.7235C11.8892 20.9457 11.4449 21.5569 11.4449 22.2791C11.4449 23.1124 12.0001 23.8346 12.7783 23.9457V24.2791C12.7783 25.6124 13.8339 26.668 15.2228 26.668H16.8336C18.167 26.668 19.2226 25.6124 19.2226 24.2791V23.9457C20.0002 23.8346 20.6115 23.1124 20.6115 22.2791C20.6115 21.5569 20.1672 20.9457 19.5559 20.7235C19.8338 19.3346 20.4445 17.9457 21.3337 16.8902C22.3892 15.6124 23.0005 13.9457 23.0005 12.2791C22.8896 8.39019 19.8893 5.16797 16.0559 5.11241Z" fill="#433CE7"/>
<path d="M15.9995 2.77501C15.6107 2.77501 15.2773 3.10834 15.2773 3.49723C15.2773 3.88612 15.6107 4.21946 15.9995 4.21946C22.4998 4.21946 27.8331 9.49723 27.8331 16.0528C27.8331 20.1639 25.7219 23.9417 22.1665 26.1083C21.8331 26.3306 21.7216 26.7195 21.944 27.0528C22.1665 27.3861 22.5553 27.4972 22.8887 27.275C26.722 24.9417 29.1665 20.7195 29.1665 15.9972C29.222 8.6639 23.2775 2.77501 15.9995 2.77501Z" fill="#433CE7"/>
<path d="M16.0017 27.7791C9.50146 27.7791 4.16822 22.5013 4.16822 15.9457C4.16822 11.6124 6.55721 7.66797 10.3351 5.55686C10.6685 5.39019 10.7794 4.94575 10.613 4.61241C10.4461 4.27908 10.0018 4.16797 9.66842 4.33463C5.44565 6.66797 2.7793 11.1124 2.7793 15.9457C2.7793 23.2235 8.7238 29.168 16.0017 29.168C16.3906 29.168 16.7239 28.8346 16.7239 28.4457C16.7239 28.0569 16.3906 27.7791 16.0017 27.7791Z" fill="#433CE7"/>
<path d="M23 23.6674C25.1666 21.6674 26.4446 18.8896 26.4446 15.9452C26.4446 15.5563 26.1112 15.2229 25.7224 15.2229C25.3336 15.2229 25.0002 15.5563 25.0002 15.9452C25.0002 18.5007 23.8886 20.9452 21.9999 22.6674C21.722 22.9452 21.6666 23.3896 21.9445 23.6674C22.2224 23.8896 22.6667 23.9452 23 23.6674Z" fill="#433CE7"/>
<path d="M7.38961 11.4428C7.0568 11.2761 6.61196 11.4428 6.50102 11.7761C4.72327 15.8873 5.77881 20.7206 9.05642 23.665C9.33431 23.9428 9.77862 23.8873 10.0565 23.6095C10.3344 23.3317 10.2789 22.8873 10.001 22.6095C7.11227 19.9984 6.22311 15.8317 7.77899 12.2761C7.88992 11.9984 7.72298 11.5539 7.38961 11.4428Z" fill="#433CE7"/>
<path d="M16.0003 30.5556C7.94467 30.5556 1.44439 24 1.44439 15.9444C1.44439 7.88889 7.94467 1.38889 16.0003 1.38889C24.0559 1.38889 30.6116 7.88889 30.6116 15.9444C30.6116 24 24.0559 30.5556 16.0003 30.5556ZM16.0003 0C7.16701 0 0 7.16667 0 16C0 24.8333 7.16701 32 16.0003 32C24.8335 32 32 24.8333 32 16C32 7.11111 24.8335 0 16.0003 0Z" fill="#433CE7"/>
</svg>
