<svg width="34" height="32" viewBox="0 0 34 32" fill="none" xmlns="http://www.w3.org/2000/svg">
<path d="M30.5324 0.500814C31.8301 0.500814 32.8818 1.5463 32.8818 2.83568C32.8818 4.12506 31.8301 5.17053 30.5324 5.17053C29.2353 5.17053 28.1836 4.12506 28.1836 2.83568C28.1836 1.5463 29.2353 0.500814 30.5324 0.500814Z" fill="#4B24EE"/>
<path d="M3.93663 27.649C5.01532 27.649 5.90389 28.5323 5.90389 29.6052C5.90389 30.6781 5.01532 31.5614 3.93663 31.5614C2.8573 31.5614 1.96875 30.6781 1.96875 29.6052C1.96875 28.5323 2.8573 27.649 3.93663 27.649Z" fill="#4B24EE"/>
<path d="M30.4068 9.47198C30.5969 10.4182 30.6609 11.4274 30.6609 12.4378C30.6609 20.6399 24.9474 28.1484 16.6316 31.6182C8.31639 28.1484 2.60352 20.6399 2.60352 12.4378C2.60352 11.4274 2.66624 10.4182 2.857 9.47198C3.2379 9.59798 3.61882 9.66097 4.0631 9.66097C6.47526 9.66097 8.44314 7.70558 8.44314 5.30733L16.6316 2.40511L24.8206 5.30733C24.8206 7.70558 26.7885 9.66097 29.2007 9.66097C29.5816 9.66097 30.0259 9.59798 30.4068 9.47198Z" fill="white"/>
<path d="M23.805 16.5875H20.2502C20.2502 12.6757 18.6626 9.45757 16.6953 9.45757C20.5677 9.52058 23.805 12.6757 23.805 16.5875Z" fill="white"/>
<path d="M16.6309 16.5967H20.1857C20.1857 20.5098 18.5994 23.7279 16.6309 23.7279V16.5967Z" fill="white"/>
<path d="M16.6304 9.5214V16.652H13.0762C13.0762 12.6765 14.6625 9.5214 16.6304 9.5214Z" fill="white"/>
<path d="M13.0759 16.5967C13.0759 20.5098 14.6623 23.7279 16.6302 23.7279C12.695 23.7279 9.45703 20.5721 9.45703 16.5967H13.0759Z" fill="white"/>
<path d="M20.186 16.5967H23.7408C23.7408 20.5098 20.5675 23.7279 16.5684 23.7279C18.5996 23.7279 20.186 20.5721 20.186 16.5967Z" fill="#4B24EE"/>
<path d="M16.6304 16.5967V23.7279C14.6625 23.7279 13.0762 20.5721 13.0762 16.5967H16.6304Z" fill="#4B24EE"/>
<path d="M20.1857 16.5875H16.6309V9.52058C18.5994 9.52058 20.1857 12.6757 20.1857 16.5875Z" fill="#4B24EE"/>
<path d="M32.6921 12.6794C33.0078 12.6794 33.2632 12.9333 33.2632 13.247C33.2632 13.5608 33.0078 13.8147 32.6921 13.8147C32.3765 13.8147 32.1211 13.5608 32.1211 13.247C32.1211 12.9333 32.3765 12.6794 32.6921 12.6794Z" fill="#4B24EE"/>
<path d="M32.3093 25.3111C32.625 25.3111 32.8816 25.5656 32.8816 25.8794C32.8816 26.1925 32.625 26.4476 32.3093 26.4476C31.9943 26.4476 31.7383 26.1925 31.7383 25.8794C31.7383 25.5656 31.9943 25.3111 32.3093 25.3111Z" fill="#4B24EE"/>
<path d="M16.6306 9.5214C14.6627 9.5214 13.0763 12.6765 13.0763 16.652H9.52148C9.52148 12.6765 12.6955 9.5214 16.6306 9.5214Z" fill="#4B24EE"/>
<path d="M7.68106 0.507997C7.9967 0.507997 8.25272 0.762496 8.25272 1.07626C8.25272 1.38941 7.9967 1.64392 7.68106 1.64392C7.36542 1.64392 7.10938 1.38941 7.10938 1.07626C7.10938 0.762496 7.36542 0.507997 7.68106 0.507997Z" fill="#4B24EE"/>
<path d="M2.15824 22.1563C2.47388 22.1563 2.72925 22.4102 2.72925 22.724C2.72925 23.0377 2.47388 23.2922 2.15824 23.2922C1.8426 23.2922 1.58594 23.0377 1.58594 22.724C1.58594 22.4102 1.8426 22.1563 2.15824 22.1563Z" fill="#4B24EE"/>
<path d="M0.571044 6.815C0.886684 6.815 1.14209 7.0695 1.14209 7.38327C1.14209 7.69704 0.886684 7.95093 0.571044 7.95093C0.255404 7.95093 0 7.69704 0 7.38327C0 7.0695 0.255404 6.815 0.571044 6.815Z" fill="#4B24EE"/>
<path d="M3.17325 9.97993C3.04649 10.8001 2.98248 11.6203 2.98248 12.4412C2.98248 20.3276 8.31511 27.6465 16.6303 31.1799C24.8827 27.6465 30.2781 20.264 30.2781 12.4412C30.2781 11.6203 30.2154 10.8001 30.088 9.97993C29.7711 10.0429 29.4535 10.0429 29.1994 10.0429C26.6605 10.0429 24.6286 8.08692 24.4378 5.6263L16.6303 2.85007L8.82278 5.6263C8.69602 8.08692 6.60137 10.0429 4.06182 10.0429C3.7443 10.0429 3.49077 9.97993 3.17325 9.97993ZM16.6303 32.0007C16.5676 32.0007 16.5035 32.0007 16.5035 32.0007C12.3143 30.2337 8.69602 27.4575 6.1571 24.0507C3.55354 20.5172 2.2207 16.5422 2.2207 12.4412C2.2207 11.4307 2.2847 10.4215 2.47483 9.41172C2.47483 9.28572 2.53823 9.22272 2.66499 9.15973C2.79175 9.09611 2.85573 9.0961 2.98248 9.0961C3.36401 9.22272 3.68092 9.22272 4.06182 9.22272C6.21984 9.22272 7.9976 7.4557 7.9976 5.31069C7.9976 5.1217 8.12435 4.99508 8.25173 4.93208L16.4402 2.02987C16.5035 2.02987 16.6303 2.02987 16.6943 2.02987L24.8827 4.93208C25.0101 4.99508 25.1369 5.1217 25.1369 5.31069C25.1369 7.4557 26.914 9.22272 29.072 9.22272C29.4536 9.22272 29.8338 9.15973 30.2153 9.03373C30.3421 8.97011 30.4689 9.03373 30.5323 9.0961C30.6596 9.15973 30.723 9.22272 30.723 9.34872C30.9132 10.3585 30.9765 11.3684 30.9765 12.3776C30.9765 16.4786 29.5803 20.4536 27.0414 23.987C24.5019 27.4575 20.947 30.1701 16.7577 31.9371C16.7577 32.0007 16.6943 32.0007 16.6303 32.0007Z" fill="#4B24EE"/>
<path d="M30.5333 0.820501C29.4546 0.820501 28.5661 1.70378 28.5661 2.77671C28.5661 3.84963 29.4546 4.73293 30.5333 4.73293C31.6126 4.73293 32.5012 3.84963 32.5012 2.77671C32.5012 1.70378 31.6126 0.820501 30.5333 0.820501ZM30.5333 5.55322C29.0103 5.55322 27.7402 4.29127 27.7402 2.77671C27.7402 1.26214 29.0103 0.000219345 30.5333 0.000219345C32.0569 0.000219345 33.327 1.26214 33.327 2.77671C33.327 4.29127 32.0569 5.55322 30.5333 5.55322Z" fill="#4B24EE"/>
<path d="M3.9356 28.0877C3.04704 28.0877 2.348 28.7826 2.348 29.6659C2.348 30.5492 3.04704 31.2428 3.9356 31.2428C4.82416 31.2428 5.52258 30.5492 5.52258 29.6659C5.52258 28.7826 4.82416 28.0877 3.9356 28.0877ZM3.9356 32.0007C2.60276 32.0007 1.52344 30.9272 1.52344 29.6023C1.52344 28.2773 2.60276 27.2044 3.9356 27.2044C5.26844 27.2044 6.34715 28.2773 6.34715 29.6023C6.34715 30.9272 5.26844 32.0007 3.9356 32.0007Z" fill="#4B24EE"/>
<path d="M16.6315 9.91436C12.8865 9.91436 9.90269 12.9426 9.90269 16.602C9.90269 20.2614 12.9499 23.2909 16.6315 23.2909C20.3131 23.2909 23.361 20.2614 23.361 16.602C23.361 12.9426 20.3772 9.91436 16.6315 9.91436ZM16.6315 24.1105C12.5056 24.1105 9.07812 20.7667 9.07812 16.602C9.07812 12.4386 12.5056 9.15716 16.6315 9.15716C20.7574 9.15716 24.1855 12.501 24.1855 16.6656C24.1855 20.8303 20.7574 24.1105 16.6315 24.1105Z" fill="#4B24EE"/>
<path d="M7.49091 17.0345C7.30014 17.0345 7.10938 16.8462 7.10938 16.6565C7.10938 11.4186 11.3633 7.1911 16.6313 7.1911C16.8221 7.1911 17.0128 7.38073 17.0128 7.56912C17.0128 7.75875 16.8221 7.94839 16.6313 7.94839C11.8076 7.94839 7.87119 11.8602 7.87119 16.6565C7.93519 16.8462 7.74442 17.0345 7.49091 17.0345Z" fill="#4B24EE"/>
<path d="M16.6303 26.0651C16.4401 26.0651 16.25 25.8761 16.25 25.687C16.25 25.4974 16.4401 25.3078 16.6303 25.3078C21.4552 25.3078 25.3904 21.396 25.3904 16.5996C25.3904 16.4113 25.5811 16.2216 25.7713 16.2216C25.962 16.2216 26.1522 16.4113 26.1522 16.5996C26.1522 21.8376 21.8995 26.0651 16.6303 26.0651Z" fill="#4B24EE"/>
<path d="M16.63 9.91436C14.9169 9.91436 13.456 13.0062 13.456 16.602C13.456 20.1991 14.9169 23.2909 16.63 23.2909C18.3444 23.2909 19.8046 20.1991 19.8046 16.602C19.8046 13.0062 18.3444 9.91436 16.63 9.91436ZM16.63 24.1105C14.4086 24.1105 12.6309 20.8303 12.6309 16.602C12.6309 12.375 14.3452 9.09354 16.63 9.09354C18.852 9.09354 20.6292 12.375 20.6292 16.602C20.6292 20.8303 18.852 24.1105 16.63 24.1105Z" fill="#4B24EE"/>
<path d="M23.8044 17.0345H9.52152C9.33075 17.0345 9.14062 16.8462 9.14062 16.6565C9.14062 16.4669 9.33075 16.2773 9.52152 16.2773H23.8044C23.9939 16.2773 24.1846 16.4669 24.1846 16.6565C24.1846 16.8462 23.9939 17.0345 23.8044 17.0345Z" fill="#4B24EE"/>
<path d="M16.6303 24.1105C16.4401 24.1105 16.25 23.9215 16.25 23.7325V9.53577C16.25 9.34615 16.4401 9.15716 16.6303 9.15716C16.821 9.15716 17.0118 9.34615 17.0118 9.53577V23.7325C17.0118 23.9215 16.821 24.1105 16.6303 24.1105Z" fill="#4B24EE"/>
</svg>
