<svg width="34" height="32" viewBox="0 0 34 32" fill="none" xmlns="http://www.w3.org/2000/svg">
<path d="M31.6631 16.8392L27.8147 17.6783C27.5316 17.7343 27.3621 17.958 27.3056 18.1818C27.0225 19.3566 26.57 20.4755 25.9468 21.4825C25.7778 21.7063 25.7778 21.986 25.9468 22.2098L28.0413 25.5105L26.7395 26.7972L23.4007 24.7273C23.1742 24.5594 22.8916 24.5594 22.6645 24.7273C21.6463 25.3986 20.5146 25.8462 19.3263 26.0699C19.0432 26.1259 18.8732 26.3497 18.8161 26.5734L17.968 30.3776H16.1566L15.3079 26.5734C15.2508 26.2937 15.0248 26.1259 14.7988 26.0699C13.61 25.7902 12.4782 25.3427 11.4595 24.7273C11.2334 24.5594 10.9504 24.5594 10.7244 24.7273L7.38508 26.7972L6.08326 25.5105L8.17723 22.2098C8.3473 21.986 8.3473 21.7063 8.17723 21.4825C7.49807 20.4755 7.04493 19.3566 6.81892 18.1818C6.76186 17.9021 6.53584 17.7343 6.30982 17.6783L2.34842 16.8392V15.049L6.19682 14.2098C6.47989 14.1538 6.64885 13.9301 6.70591 13.7063C6.98899 12.5315 7.44156 11.4126 8.06422 10.4056C8.23373 10.1818 8.23373 9.9021 8.06422 9.67832L5.96968 6.37762L7.27207 5.09091L10.6102 7.16084C10.8374 7.32867 11.1205 7.32867 11.3465 7.16084C12.3652 6.54545 13.497 6.04196 14.6858 5.76224C14.9683 5.70629 15.1378 5.48252 15.1948 5.25874L16.0435 1.45455H17.8544L18.7031 5.25874C18.7602 5.53846 18.9862 5.70629 19.2128 5.76224C20.401 6.04196 21.5333 6.48951 22.5515 7.16084C22.7781 7.32867 23.0606 7.32867 23.2877 7.16084L26.6259 5.09091L27.9277 6.37762L25.8338 9.67832C25.6648 9.9021 25.6648 10.1818 25.8338 10.4056C26.5129 11.4126 26.966 12.5315 27.1921 13.7063C27.2491 13.986 27.4751 14.1538 27.7017 14.2098L31.5496 15.049V16.8392H31.6631ZM32.5118 13.8182L28.5504 12.9231C28.2673 11.9161 27.8712 10.9091 27.3056 10.014L29.4561 6.6014C29.6262 6.32168 29.5691 5.98601 29.3431 5.70629L27.2491 3.63636C27.0226 3.41259 26.6259 3.35664 26.3434 3.52448L22.8916 5.70629C21.9853 5.14685 20.9672 4.75525 19.9484 4.47552L19.0432 0.559441C18.9862 0.223776 18.7031 0 18.3641 0H15.4209C15.0818 0 14.7988 0.223776 14.7417 0.559441L13.8365 4.47552C12.8178 4.75525 11.7991 5.14685 10.8933 5.70629L7.44157 3.52448C7.15849 3.35664 6.81892 3.41259 6.53584 3.63636L4.44184 5.70629C4.21583 5.93007 4.15932 6.32168 4.32884 6.6014L6.4799 10.014C5.91374 10.9091 5.51767 11.9161 5.23459 12.9231L1.27319 13.8182C0.933611 13.8741 0.707031 14.1538 0.707031 14.4895V17.3986C0.707031 17.7343 0.933611 18.014 1.27319 18.0699L5.23459 18.965C5.51767 19.972 5.91374 20.979 6.4799 21.8741L4.32884 25.2867C4.15932 25.5664 4.21583 25.9021 4.44184 26.1818L6.53584 28.2517C6.76241 28.4755 7.15849 28.5315 7.44157 28.3636L10.8933 26.2378C11.7991 26.7972 12.8178 27.1888 13.8365 27.4685L14.5157 30.5455H5.29108C4.895 30.5455 4.55542 30.8811 4.55542 31.2727C4.55542 31.6643 4.895 32 5.29108 32C6.5929 32 28.6069 32 29.3431 32C29.7392 32 30.0782 31.6643 30.0782 31.2727C30.0782 30.8811 29.7392 30.5455 29.3431 30.5455H19.3823L20.0614 27.4685C21.0802 27.1888 22.0989 26.7972 23.0046 26.2378L26.4569 28.3636C26.7395 28.5315 27.0791 28.4755 27.3621 28.2517L29.4561 26.1818C29.6821 25.958 29.7392 25.5664 29.5691 25.2867L27.3056 21.8741C27.8712 20.979 28.2673 19.972 28.5504 18.965L32.5118 18.0699C32.8514 18.014 33.0779 17.7343 33.0779 17.3986V14.4895C33.0779 14.1538 32.8514 13.8741 32.5118 13.8182Z" fill="#433CE7"/>
<path d="M22.3826 16.6166H23.685C23.5714 17.9034 23.0058 19.0782 22.2696 20.0852L21.3079 19.1341C21.0248 18.8544 20.5722 18.8544 20.2891 19.1341C20.0061 19.4138 20.0061 19.8614 20.2891 20.1411L21.2514 21.0922C20.2892 21.8754 19.0444 22.4348 17.742 22.5467V21.2041C17.742 20.8124 17.403 20.4768 17.0069 20.4768C16.6108 20.4768 16.2713 20.8124 16.2713 21.2041V22.5467C14.9694 22.4348 13.7247 21.8754 12.7624 21.0922L13.7247 20.1411C14.0078 19.8614 14.0078 19.4138 13.7247 19.1341C13.4416 18.8544 12.9885 18.8544 12.7059 19.1341L11.7437 20.0852C10.9515 19.1341 10.4424 17.9034 10.2724 16.6166H11.5736C11.9697 16.6166 12.3099 16.281 12.3099 15.8894C12.3099 15.4978 11.9697 15.1621 11.5736 15.1621H10.2724C10.3854 13.8754 10.9515 12.6446 11.7437 11.6936L12.6489 12.5887C12.932 12.8684 13.3845 12.8684 13.6676 12.5887C13.9507 12.3089 13.9507 11.8614 13.6676 11.5817L12.7624 10.6866C13.7247 9.90335 14.9129 9.39986 16.2713 9.28797V10.5747C16.2713 10.9663 16.6108 11.302 17.0069 11.302C17.403 11.302 17.742 10.9663 17.742 10.5747V9.28797C19.0444 9.39986 20.2327 9.9593 21.2514 10.7425L20.3457 11.6376C20.0626 11.9173 20.0626 12.3649 20.3457 12.6446C20.6287 12.9243 21.0813 12.9243 21.3644 12.6446L22.2696 11.7495C23.0618 12.7006 23.5714 13.9313 23.7409 15.218H22.3826C21.9865 15.218 21.6475 15.5537 21.6475 15.9453C21.6475 16.3369 21.9865 16.6166 22.3826 16.6166ZM17.0069 7.88937C12.5359 7.88937 8.91406 11.4698 8.91406 15.9453C8.91406 20.3649 12.5359 23.9453 17.0634 23.9453C21.5345 23.9453 25.1557 20.3649 25.1557 15.9453C25.0998 11.5257 21.4774 7.88937 17.0069 7.88937Z" fill="#433CE7"/>
<path d="M19.0444 14.9371L17.403 16L15.7051 14.3217C15.422 14.042 14.9694 14.042 14.6869 14.3217C14.4038 14.6014 14.4038 15.049 14.6869 15.3287L16.8368 17.4546C17.0634 17.6784 17.4595 17.7343 17.742 17.5665L19.8931 16.1679C20.2327 15.9441 20.2891 15.4965 20.0626 15.2168C19.7795 14.8252 19.3275 14.7133 19.0444 14.9371Z" fill="#433CE7"/>
<path d="M30.9272 30.6035C30.6441 30.8832 30.6441 31.3308 30.9272 31.6105C31.2102 31.8902 31.6628 31.8902 31.9459 31.6105C32.229 31.3308 32.229 30.8832 31.9459 30.6035C31.8323 30.4916 31.2102 30.3238 30.9272 30.6035Z" fill="#433CE7"/>
<path d="M2.63223 30.6035C2.34915 30.8832 2.34915 31.3308 2.63223 31.6105C2.91531 31.8902 3.36735 31.8902 3.65042 31.6105C3.9335 31.3308 3.9335 30.8832 3.65042 30.6035C3.36735 30.3238 2.91531 30.3238 2.63223 30.6035Z" fill="#433CE7"/>
</svg>
