<svg width="32" height="32" viewBox="0 0 32 32" fill="none" xmlns="http://www.w3.org/2000/svg">
<path d="M6.60063 18.0561H25.0345L2.61031 23.834L6.60063 18.0561ZM13.1199 8.55586L27.7885 16.6672H7.55615L13.1199 8.55586ZM6.20718 13.8893H7.72455L5.30804 17.3894H3.67823L6.20718 13.8893ZM30.8797 16.7783C30.823 16.7227 32.0597 17.3894 13.2323 7.00027C12.8951 6.8336 12.5018 6.94471 12.333 7.2225L8.73607 12.5004H5.92634C5.70128 12.5004 5.47649 12.6115 5.36427 12.7782L1.76741 17.6116C1.43017 18.0561 1.7674 18.7228 2.32925 18.7228H4.35252L0.305982 24.5562C0.137589 24.7785 0.137589 25.1118 0.305982 25.334C0.474819 25.5563 0.755883 25.6674 1.03672 25.6118L30.5419 17.945C31.2169 17.8339 31.3291 17.1672 30.8797 16.7783Z" fill="#6E24FF"/>
<path d="M28.35 24.9999C28.35 24.611 28.0128 24.2777 27.6194 24.2777H11.4899C11.0965 24.2777 10.7594 24.611 10.7594 24.9999C10.7594 25.3888 11.0965 25.7222 11.4899 25.7222H27.6755C28.0128 25.6666 28.35 25.3333 28.35 24.9999Z" fill="#6E24FF"/>
<path d="M31.1604 24.2777H29.7553C29.362 24.2777 29.0248 24.611 29.0248 24.9999C29.0248 25.3888 29.362 25.7222 29.7553 25.7222H31.1604C31.5537 25.7222 31.891 25.3888 31.891 24.9999C31.891 24.611 31.5537 24.2777 31.1604 24.2777Z" fill="#6E24FF"/>
<path d="M26.2706 27.0556C26.2706 26.6667 25.9333 26.3334 25.54 26.3334H9.41051C9.01706 26.3334 8.68005 26.6667 8.68005 27.0556C8.68005 27.4445 9.01706 27.7778 9.41051 27.7778H25.5961C25.9333 27.7778 26.2706 27.4445 26.2706 27.0556Z" fill="#6E24FF"/>
<path d="M29.0805 26.3885H27.6755C27.2821 26.3885 26.9454 26.7219 26.9454 27.1108C26.9454 27.4997 27.2821 27.833 27.6755 27.833H29.0805C29.4738 27.833 29.8111 27.4997 29.8111 27.1108C29.7549 26.6663 29.4177 26.3885 29.0805 26.3885Z" fill="#6E24FF"/>
<path d="M7.2753 28.4447C6.88162 28.4447 6.54456 28.778 6.54456 29.1669C6.54456 29.5558 6.88162 29.8892 7.2753 29.8892H23.4613C23.8546 29.8892 24.1913 29.5558 24.1913 29.1669C24.1913 28.778 23.8546 28.4447 23.4613 28.4447H7.2753Z" fill="#6E24FF"/>
<path d="M26.9454 28.4447H25.5398C25.1464 28.4447 24.8092 28.778 24.8092 29.1669C24.8092 29.5558 25.1464 29.8892 25.5398 29.8892H26.9454C27.3387 29.8892 27.6754 29.5558 27.6754 29.1669C27.6754 28.778 27.3387 28.4447 26.9454 28.4447Z" fill="#6E24FF"/>
<path d="M21.3245 30.5555H5.19494C4.80171 30.5555 4.46448 30.8889 4.46448 31.2778C4.46448 31.6667 4.80171 32 5.19494 32H21.3245C21.7178 32 22.0551 31.6667 22.0551 31.2778C22.0551 30.8333 21.7178 30.5555 21.3245 30.5555Z" fill="#6E24FF"/>
<path d="M24.8655 30.5555H23.461C23.0671 30.5555 22.7299 30.8889 22.7299 31.2778C22.7299 31.6667 23.0671 32 23.461 32H24.8655C25.2588 32 25.596 31.6667 25.596 31.2778C25.5399 30.8333 25.2027 30.5555 24.8655 30.5555Z" fill="#6E24FF"/>
<path d="M4.4647 8.333C4.85815 8.333 5.19516 8.66634 5.19516 9.05524C5.19516 9.44413 4.85815 9.77747 4.4647 9.77747C4.07124 9.77747 3.73418 9.44413 3.73418 9.05524C3.73418 8.66634 4.07124 8.333 4.4647 8.333ZM4.4647 11.1108C5.64506 11.1108 6.60036 10.1664 6.60036 8.99968C6.60036 7.83298 5.64506 6.88852 4.4647 6.88852C3.28428 6.88852 2.32898 7.83298 2.32898 8.99968C2.32898 10.1664 3.28428 11.1108 4.4647 11.1108Z" fill="#6E24FF"/>
<path d="M9.74704 2.05558C10.3093 2.05558 10.8152 2.50004 10.8152 3.11116C10.8152 3.72229 10.3653 4.16674 9.74704 4.16674C9.12897 4.16674 8.67951 3.72229 8.67951 3.11116C8.67951 2.50004 9.12897 2.05558 9.74704 2.05558ZM9.74704 5.55566C11.096 5.55566 12.2199 4.44453 12.2199 3.11116C12.2199 1.7778 11.096 0.666659 9.74704 0.666659C8.39823 0.666659 7.27454 1.7778 7.27454 3.11116C7.27454 4.44453 8.39823 5.55566 9.74704 5.55566Z" fill="#6E24FF"/>
<path d="M24.8654 6.94506H27.6754V8.33398H24.8654V6.94506Z" fill="#6E24FF"/>
<path d="M27.6754 5.55493H30.4855V6.94385H27.6754V5.55493Z" fill="#6E24FF"/>
<path d="M24.8654 9.72192H27.6754V11.1108H24.8654V9.72192Z" fill="#6E24FF"/>
<path d="M27.6754 8.33373H30.4855V9.72266H27.6754V8.33373Z" fill="#6E24FF"/>
<path d="M24.8654 4.16674H27.6754V5.55566H24.8654V4.16674Z" fill="#6E24FF"/>
<path d="M27.6754 2.77856H30.4855V4.16748H27.6754V2.77856Z" fill="#6E24FF"/>
<path d="M24.8654 1.38842H27.6754V2.77734H24.8654V1.38842Z" fill="#6E24FF"/>
<path d="M27.6754 0.000238419H30.4855V1.38916H27.6754V0.000238419Z" fill="#6E24FF"/>
</svg>
