<svg width="60" height="60" viewBox="0 0 60 60" fill="none" xmlns="http://www.w3.org/2000/svg">
<path d="M7.52883 12.5V10.625H6.04322L5.7035 12.0712L7.52883 12.5ZM29.9935 55.0002L29.6002 56.8335L29.9935 56.918L30.387 56.8335L29.9935 55.0002ZM52.4587 12.5L54.284 12.0712L53.9442 10.625H52.4587V12.5ZM29.9937 3.125C25.0765 3.125 21.24 5.25462 17.853 7.10442C14.3719 9.00565 11.3431 10.625 7.52883 10.625V14.375C12.4343 14.375 16.2654 12.2443 19.6505 10.3956C23.1297 8.49537 26.166 6.875 29.9937 6.875V3.125ZM29.9937 6.875C33.8395 6.875 36.8792 8.49628 40.353 10.3952C43.734 12.2434 47.5572 14.375 52.4587 14.375V10.625C48.65 10.625 45.6307 9.00657 42.1517 7.10477C38.7655 5.25372 34.928 3.125 29.9937 3.125V6.875ZM55.6125 22.4685C55.5562 19.1221 55.1225 15.6414 54.284 12.0712L50.6332 12.9288C51.4137 16.251 51.8115 19.4653 51.863 22.5315L55.6125 22.4685ZM8.12445 22.5315C8.17595 19.4653 8.57373 16.251 9.35413 12.9288L5.7035 12.0712C4.86485 15.6414 4.43117 19.1221 4.375 22.4685L8.12445 22.5315ZM30.387 53.167C24.0154 51.7998 18.7356 48.4977 14.9197 43.8155L12.0128 46.1845C16.3725 51.534 22.4028 55.289 29.6002 56.8335L30.387 53.167ZM30.387 56.8335C37.5845 55.289 43.6147 51.534 47.9745 46.1845L45.0675 43.8155C41.2515 48.4977 35.9717 51.7998 29.6002 53.167L30.387 56.8335Z" fill="#6E24FF"/>
<path d="M45 30L48.75 33.75M48.75 33.75L52.5 37.5M48.75 33.75L52.5 30M48.75 33.75L45 37.5M32.5 30L36.25 33.75M36.25 33.75L40 37.5M36.25 33.75L40 30M36.25 33.75L32.5 37.5M20 30L23.75 33.75M23.75 33.75L27.5 37.5M23.75 33.75L27.5 30M23.75 33.75L20 37.5M7.5 30L11.25 33.75M11.25 33.75L15 37.5M11.25 33.75L15 30M11.25 33.75L7.5 37.5" stroke="#6E24FF" stroke-width="1.5" stroke-linejoin="round"/>
</svg>
