<svg width="66" height="66" viewBox="0 0 66 66" fill="none" xmlns="http://www.w3.org/2000/svg">
<circle cx="33" cy="33" r="27.5" fill="#181717"/>
<path d="M9.37305 47.0732C12.7207 52.6815 18.0087 56.9974 24.3107 59.0954C25.6866 59.347 26.188 58.4978 26.188 57.7685C26.188 57.4666 26.1829 56.933 26.1761 56.2191C26.1683 55.3923 26.1581 54.3234 26.1508 53.0922C18.5016 54.7534 16.8877 49.4051 16.8877 49.4051C15.6367 46.2296 13.8337 45.3838 13.8337 45.3838C11.3369 43.6771 14.0228 43.7108 14.0228 43.7108C16.783 43.9067 18.2349 46.5453 18.2349 46.5453C20.6878 50.7473 24.672 49.5334 26.2386 48.8312C26.4885 47.0535 27.1975 45.8413 27.9842 45.1542C21.878 44.4604 15.4578 42.1003 15.4578 31.5625C15.4578 28.5609 16.5298 26.1062 18.2889 24.1834C18.0053 23.4878 17.0616 20.6922 18.5573 16.9055C18.5573 16.9055 20.8668 16.1661 26.1205 19.7248C28.3134 19.1154 30.6668 18.8098 33.0049 18.7997C35.3397 18.8098 37.6931 19.1154 39.8894 19.7248C45.1398 16.1661 47.4442 16.9055 47.4442 16.9055C48.945 20.6922 48.0013 23.4878 47.7176 24.1834C49.4801 26.1062 50.5454 28.5609 50.5454 31.5625C50.5454 42.1273 44.115 44.4519 37.9885 45.1323C38.9761 45.9815 39.8557 47.6595 39.8557 50.2256C39.8557 52.6835 39.8406 54.8243 39.8306 56.2424C39.8256 56.9448 39.8219 57.4699 39.8219 57.7685C39.8219 58.5046 40.3166 59.3605 41.7127 59.0921C46.733 57.4163 51.1092 54.3338 54.3724 50.3118C49.3304 56.5274 41.6312 60.5 33.0041 60.5C22.9592 60.5 14.1722 55.1144 9.37305 47.0732Z" fill="white"/>
</svg>
