<svg width="38" height="28" viewBox="0 0 38 28" fill="none" xmlns="http://www.w3.org/2000/svg">
<g clip-path="url(#clip0_5395_20786)">
<path d="M8.44091 27.8619V13.5123L3.99065 9.44094L0 7.18164V25.3296C0 26.7307 1.13523 27.8619 2.53233 27.8619H8.44091Z" fill="#4285F4"/>
<path d="M28.6992 27.8617H34.6078C36.0091 27.8617 37.1401 26.7264 37.1401 25.3294V7.18164L32.6201 9.76939L28.6992 13.5121V27.8617Z" fill="#34A853"/>
<path d="M8.44149 13.5122L7.83594 7.90534L8.44149 2.53906L18.5705 10.1359L28.6996 2.53906L29.3769 7.61562L28.6996 13.5122L18.5705 21.109L8.44149 13.5122Z" fill="#EA4335"/>
<path d="M28.6992 2.5394V13.5125L37.1401 7.18188V3.80549C37.1401 0.673986 33.5654 -1.1112 31.0628 0.766836L28.6992 2.5394Z" fill="#FBBC04"/>
<path d="M0 7.18195L3.88213 10.0937L8.44091 13.5126V2.53946L6.0773 0.766902C3.57036 -1.11127 0 0.674053 0 3.80541V7.1818V7.18195Z" fill="#C5221F"/>
</g>
<defs>
<clipPath id="clip0_5395_20786">
<rect width="37.1399" height="28" fill="white"/>
</clipPath>
</defs>
</svg>
