<svg width="66" height="66" viewBox="0 0 66 66" fill="none" xmlns="http://www.w3.org/2000/svg">
<path d="M66 33C66 49.6672 53.6445 63.446 37.5948 65.6827C36.0936 65.8917 34.5582 66 33 66C31.2004 66 29.4351 65.8556 27.7135 65.5781C12.0021 63.0489 0 49.424 0 32.9981C0 14.7746 14.7746 0 33 0C51.2254 0 66 14.7746 66 33Z" fill="url(#paint0_linear_6190_10648)"/>
<path d="M43.3382 13.1919H22.669C16.9587 13.1919 12.3145 17.8361 12.3145 23.5464V42.456C12.3145 48.1663 16.9587 52.8105 22.669 52.8105H43.3382C49.0485 52.8105 53.6927 48.1663 53.6927 42.456V23.5464C53.6927 17.8361 49.0485 13.1919 43.3382 13.1919ZM15.9668 23.5464C15.9668 19.8504 18.973 16.8442 22.669 16.8442H43.3382C47.0342 16.8442 50.0404 19.8504 50.0404 23.5464V42.456C50.0404 46.152 47.0342 49.1582 43.3382 49.1582H22.669C18.973 49.1582 15.9668 46.152 15.9668 42.456V23.5464Z" fill="white"/>
<path d="M33.0035 42.6345C38.3148 42.6345 42.636 38.3133 42.636 33.0021C42.636 27.6908 38.3148 23.3696 33.0035 23.3696C27.6923 23.3696 23.3711 27.6908 23.3711 33.0021C23.3711 38.3133 27.6923 42.6345 33.0035 42.6345ZM33.0035 27.0238C36.3005 27.0238 38.9818 29.7051 38.9818 33.0021C38.9818 36.299 36.3005 38.9803 33.0035 38.9803C29.7066 38.9803 27.0253 36.299 27.0253 33.0021C27.0253 29.7051 29.7066 27.0238 33.0035 27.0238Z" fill="white"/>
<path d="M43.5254 24.9244C44.9563 24.9244 46.1212 23.7596 46.1212 22.3287C46.1212 20.8978 44.9563 19.7329 43.5254 19.7329C42.0945 19.7329 40.9297 20.8978 40.9297 22.3287C40.9297 23.7596 42.0945 24.9244 43.5254 24.9244Z" fill="white"/>
<defs>
<linearGradient id="paint0_linear_6190_10648" x1="9.66475" y1="56.3353" x2="56.3353" y2="9.66475" gradientUnits="userSpaceOnUse">
<stop stop-color="#FAAD4F"/>
<stop offset="0.35" stop-color="#DD2A7B"/>
<stop offset="0.62" stop-color="#9537B0"/>
<stop offset="1" stop-color="#515BD4"/>
</linearGradient>
</defs>
</svg>
