<svg width="32" height="32" viewBox="0 0 32 32" fill="none" xmlns="http://www.w3.org/2000/svg">
<path d="M16.0135 7.84727C15.7321 7.84727 15.4537 7.86162 15.1795 7.88971C14.9053 7.9178 14.6349 7.95942 14.369 8.01406C14.1032 8.0687 13.8421 8.13636 13.5862 8.21622L12.8352 8.49199L12.1201 8.83726L11.4454 9.24784L10.8149 9.71941L10.2331 10.2479L9.70416 10.8291L9.23208 11.4589L8.82099 12.133L8.47552 12.8473C8.37167 13.0916 8.2793 13.342 8.19934 13.5977C8.11938 13.8533 8.05172 14.1144 7.99697 14.3799C7.94223 14.6454 7.90061 14.9155 7.87242 15.1895C7.84423 15.4636 7.83008 15.7416 7.83008 16.0227C7.83008 16.3038 7.84443 16.5818 7.87242 16.8558C7.90025 17.1277 7.94182 17.3979 7.99697 17.6656C8.05172 17.9321 8.11938 18.1921 8.19934 18.4478C8.2793 18.7035 8.37156 18.9538 8.47552 19.1982L8.82099 19.9124L9.23208 20.5865L9.70416 21.2163L10.2331 21.7976L10.8149 22.326L11.4454 22.7976L12.1201 23.2082L12.8352 23.5535L13.5862 23.8292L14.369 24.0314C14.6369 24.0865 14.9074 24.128 15.1795 24.1558C15.4566 24.1841 15.735 24.1982 16.0135 24.1982C16.2949 24.1982 16.5732 24.1838 16.8473 24.1558C17.1194 24.128 17.3899 24.0865 17.6578 24.0314L18.4407 23.8292L19.1918 23.5535L19.9067 23.2082L20.5816 22.7976L21.212 22.326L21.7939 21.7976L22.3229 21.2163L22.795 20.5865L23.2061 19.9124L23.5515 19.1982L23.8277 18.4478C23.9077 18.1921 23.9753 17.9311 24.0301 17.6656L24.1546 16.8557C24.1827 16.5817 24.1971 16.3037 24.1971 16.0226C24.1971 15.7415 24.1827 15.4635 24.1546 15.1894C24.1268 14.9176 24.0852 14.6474 24.0301 14.3798C23.9753 14.1132 23.9077 13.8533 23.8277 13.5976L23.5515 12.8472L23.2061 12.1329L22.795 11.4588L22.3229 10.829L21.7939 10.2478L21.212 9.71931L20.5816 9.24773L19.9067 8.83716L19.1918 8.49189L18.4407 8.21612L17.6578 8.01396L16.8473 7.88961C16.5703 7.86131 16.292 7.84715 16.0135 7.84717V7.84727ZM16.0135 10.6691C16.1995 10.6691 16.3831 10.6783 16.564 10.6966L17.0971 10.7773L17.612 10.9085L18.1051 11.0876L18.5739 11.3121L19.0147 11.5791L19.4268 11.8864L19.8068 12.231L20.1517 12.6106L20.4593 13.0223L20.7266 13.4637L20.9511 13.9322C21.0186 14.0925 21.0785 14.2568 21.1305 14.4249C21.1826 14.5929 21.2264 14.7646 21.2618 14.9395C21.2971 15.1144 21.3233 15.2924 21.3424 15.4731L21.3699 16.0232C21.3699 16.2091 21.3607 16.3926 21.3424 16.5734C21.3242 16.7542 21.2973 16.9322 21.2618 17.107C21.2262 17.2818 21.1823 17.4535 21.1305 17.6216L20.9511 18.1143L20.7266 18.5828L20.4593 19.0241L20.1517 19.4359L19.8068 19.8154L19.4268 20.1601L19.0147 20.4673L18.5739 20.7344L18.1051 20.9589L17.612 21.138L17.0971 21.2692L16.564 21.3498C16.381 21.3681 16.1973 21.3773 16.0134 21.3773C15.8295 21.3773 15.6457 21.3681 15.4627 21.3498L14.9296 21.2692C14.7546 21.2337 14.5828 21.1899 14.4145 21.138L13.9214 20.9589L13.4526 20.7344L13.0118 20.4673L12.5997 20.1601L12.2198 19.8154L11.8748 19.4359L11.5673 19.0241L11.2999 18.5828L11.0754 18.1143L10.896 17.6216L10.7648 17.107L10.6841 16.5734C10.6658 16.3906 10.6566 16.2069 10.6566 16.0232C10.6566 15.8395 10.6658 15.6559 10.6841 15.4731C10.7023 15.2924 10.7292 15.1143 10.7648 14.9395C10.8 14.7659 10.8438 14.5942 10.8961 14.425L11.0755 13.9323L11.3 13.4638L11.5674 13.0224L11.8749 12.6107L12.2199 12.2311L12.5998 11.8865L13.0119 11.5792L13.4527 11.3122L13.9215 11.0877C14.0829 11.0199 14.2475 10.9602 14.4148 10.9086L14.9298 10.7774C15.1048 10.7419 15.283 10.7148 15.4629 10.6967C15.6459 10.6784 15.8297 10.6692 16.0136 10.6692L16.0135 10.6691Z" fill="url(#paint0_radial_5495_1859)"/>
<path d="M24.5289 5.52173C24.4639 5.52174 24.399 5.52503 24.3343 5.53157C24.2697 5.5381 24.2054 5.54789 24.1417 5.56089C24.078 5.57388 24.015 5.59006 23.953 5.60938C23.8909 5.62871 23.8298 5.65116 23.77 5.67663C23.7101 5.70213 23.6516 5.73063 23.5946 5.76202C23.5376 5.79335 23.4821 5.82754 23.4285 5.86444C23.3749 5.90138 23.3231 5.941 23.2734 5.98315C23.2237 6.02526 23.1761 6.06984 23.1309 6.11673C23.0856 6.16365 23.0427 6.21281 23.0023 6.26404C22.962 6.31528 22.9242 6.36852 22.8891 6.42356C22.854 6.47855 22.8216 6.53528 22.7922 6.59353C22.7627 6.65182 22.7361 6.71156 22.7125 6.77252C22.689 6.83347 22.6685 6.89557 22.6511 6.95859C22.6337 7.0216 22.6195 7.08544 22.6085 7.14988C22.5974 7.2143 22.5896 7.27924 22.585 7.34445C22.5817 7.39065 22.5801 7.43695 22.5801 7.48326C22.5801 7.54869 22.5833 7.61407 22.5898 7.67917C22.5963 7.74423 22.606 7.80893 22.6189 7.87302C22.6318 7.93711 22.6479 8.00051 22.6671 8.06299C22.6863 8.12548 22.7086 8.18696 22.734 8.24721C22.7593 8.30747 22.7876 8.36642 22.8187 8.42384C22.8499 8.48125 22.8839 8.53705 22.9205 8.59104C22.9572 8.645 22.9966 8.69707 23.0384 8.74707C23.0803 8.79711 23.1246 8.84501 23.1712 8.89059C23.2178 8.93615 23.2667 8.97933 23.3176 9.01997C23.3685 9.06064 23.4214 9.09872 23.4761 9.13407C23.5308 9.16942 23.5872 9.20199 23.6451 9.23166C23.703 9.26135 23.7623 9.28811 23.8229 9.31183C23.8834 9.33552 23.9451 9.35615 24.0077 9.37365C24.0703 9.39111 24.1337 9.40541 24.1978 9.4165C24.2618 9.42763 24.3263 9.43553 24.3911 9.44018C24.437 9.44346 24.483 9.4451 24.529 9.4451C24.594 9.44512 24.6589 9.44187 24.7236 9.43536C24.7882 9.42882 24.8525 9.41904 24.9162 9.40604C24.9799 9.39305 25.0429 9.37687 25.1049 9.35755C25.167 9.33822 25.2281 9.31577 25.2879 9.2903C25.3478 9.26483 25.4063 9.23636 25.4633 9.20501C25.5203 9.17364 25.5758 9.13943 25.6294 9.10249C25.683 9.06558 25.7348 9.026 25.7845 8.98388C25.8342 8.94174 25.8817 8.89712 25.927 8.8502C25.9723 8.80328 26.0152 8.75412 26.0556 8.70289C26.0959 8.65165 26.1337 8.59841 26.1688 8.54337C26.2039 8.48834 26.2363 8.43158 26.2657 8.3733C26.2952 8.31501 26.3218 8.25527 26.3454 8.19431C26.3689 8.13336 26.3894 8.07126 26.4068 8.00824C26.4241 7.94523 26.4384 7.88139 26.4494 7.81695C26.4605 7.75252 26.4683 7.68758 26.4729 7.62237C26.4762 7.57618 26.4778 7.52988 26.4778 7.48357C26.4778 7.41818 26.4746 7.35283 26.4681 7.28776C26.4616 7.2227 26.4519 7.158 26.439 7.09391C26.4261 7.02982 26.41 6.96642 26.3908 6.90395C26.3716 6.84145 26.3493 6.77997 26.3239 6.71972C26.2986 6.65946 26.2703 6.60051 26.2392 6.54309C26.208 6.48568 26.174 6.42988 26.1374 6.37589C26.1006 6.3219 26.0613 6.26979 26.0194 6.21976C25.9776 6.16972 25.9333 6.12182 25.8867 6.07623C25.8401 6.03068 25.7912 5.9875 25.7403 5.94686C25.6894 5.90623 25.6365 5.86818 25.5818 5.83286C25.5271 5.79751 25.4707 5.76494 25.4128 5.73527C25.3549 5.70558 25.2956 5.67882 25.235 5.6551C25.1745 5.63141 25.1128 5.61078 25.0502 5.59328C24.9876 5.57579 24.9242 5.56145 24.8601 5.55033C24.7961 5.53923 24.7316 5.53136 24.6668 5.52675C24.6209 5.52347 24.5749 5.52183 24.5289 5.52183V5.52173Z" fill="url(#paint1_radial_5495_1859)"/>
<path d="M14.462 0.0288626C13.5719 0.0274274 12.7776 0.0311174 12.0641 0.0411639L10.1512 0.0924217C9.58448 0.117025 9.0838 0.14911 8.63437 0.190629C8.40965 0.211337 8.19765 0.234506 7.99672 0.260032C7.80552 0.284132 7.61483 0.312194 7.42479 0.344199C7.24385 0.374954 7.07213 0.408167 6.90749 0.444252C6.74285 0.480338 6.5856 0.519295 6.43387 0.561122C6.28555 0.602022 6.13838 0.64701 5.99254 0.696033C5.84964 0.744215 5.71022 0.795268 5.57254 0.849806C5.29718 0.958883 5.02859 1.08128 4.752 1.21845C4.53918 1.32404 4.34256 1.43096 4.15577 1.54414C3.96899 1.65732 3.79205 1.77685 3.6188 1.90705C3.44038 2.04178 3.2684 2.18485 3.10345 2.33577C2.93102 2.49282 2.7549 2.66556 2.57191 2.8586C2.34197 3.09981 2.14216 3.32473 1.96481 3.54545C1.87614 3.65576 1.7931 3.76483 1.71488 3.87452C1.63752 3.98263 1.56357 4.09312 1.49314 4.20585C1.42343 4.3176 1.35741 4.43139 1.29426 4.54846C1.23012 4.66755 1.16951 4.7885 1.1125 4.91116C0.995835 5.16171 0.886964 5.43153 0.778298 5.73272C0.697681 5.95539 0.625493 6.18101 0.561888 6.40912C0.496995 6.64224 0.439279 6.88612 0.387816 7.14989C0.336353 7.41367 0.291451 7.69733 0.251983 8.01103C0.209451 8.35489 0.175474 8.69975 0.150083 9.0453C0.121378 9.42523 0.0975947 9.84328 0.0781167 10.3086L0.0319849 11.8558L0.00717605 13.7417L0 16.0214L0.0210157 19.3364L0.0866255 21.8481L0.137166 22.8291L0.200315 23.6421C0.220559 23.8612 0.245887 24.0798 0.276279 24.2978C0.303959 24.4913 0.333688 24.6607 0.365673 24.8073C0.430572 25.1053 0.507315 25.4007 0.595717 25.6926C0.680362 25.9721 0.77716 26.2478 0.885836 26.5189C0.992658 26.7844 1.10953 27.0405 1.23664 27.2869C1.36376 27.5334 1.50113 27.7702 1.64876 27.9976C1.79638 28.2251 1.95425 28.4433 2.12279 28.6521C2.29113 28.8609 2.47019 29.0609 2.65925 29.2512C2.8486 29.4419 3.0483 29.6233 3.25876 29.7958C3.47172 29.9702 3.69307 30.134 3.92204 30.2868C4.13455 30.4289 4.34481 30.559 4.55661 30.6784C4.76841 30.7979 4.98205 30.9062 5.20164 31.0047C5.42123 31.1033 5.64635 31.1919 5.88152 31.2717C6.11669 31.3514 6.3617 31.4224 6.62066 31.4853C6.87961 31.5483 7.15374 31.6035 7.44386 31.6517C7.73397 31.6999 8.04408 31.7412 8.37541 31.7768C8.70674 31.8124 9.06022 31.8418 9.44004 31.8664C9.81986 31.891 10.2258 31.9107 10.662 31.9265C11.3359 31.9509 12.3559 31.9651 13.5321 31.9705L17.3401 31.9628L20.946 31.9123L22.317 31.8738L23.2102 31.8278C23.4019 31.8122 23.5895 31.7938 23.7706 31.7722C23.9516 31.7505 24.1302 31.7258 24.3041 31.6977C24.4779 31.6697 24.6479 31.6383 24.8149 31.6034C24.98 31.569 25.1442 31.5307 25.3074 31.4883C25.4689 31.4473 25.6283 31.4007 25.7859 31.3511C25.9436 31.3016 26.0996 31.2481 26.2547 31.1907C26.4107 31.1329 26.5653 31.0714 26.7183 31.0061C26.8724 30.9405 27.0263 30.8703 27.1807 30.7959C27.4178 30.6817 27.6087 30.5865 27.7763 30.4935C27.9339 30.407 28.0858 30.3103 28.2308 30.204C28.3739 30.0986 28.5162 29.9787 28.6802 29.8276C28.8443 29.6764 29.0301 29.4944 29.2603 29.2641C29.4625 29.062 29.6331 28.8863 29.7802 28.7264C29.9273 28.5666 30.0513 28.4228 30.16 28.2842C30.2636 28.1527 30.3601 28.0157 30.449 27.8739C30.5359 27.7355 30.6158 27.5918 30.6973 27.4324C30.82 27.1925 30.929 26.9703 31.0267 26.756C31.1216 26.5494 31.2082 26.3391 31.2865 26.1257C31.3636 25.914 31.4303 25.6986 31.4865 25.4804C31.5443 25.2559 31.5941 25.0189 31.6372 24.7589C31.6803 24.4989 31.7167 24.216 31.7482 23.9C31.7798 23.584 31.8067 23.2349 31.8302 22.8426L31.8928 21.5255L31.9465 19.8876L31.9848 18.0629L31.9996 16.1549L31.9654 12.4074L31.9195 10.7289L31.857 9.28775L31.7791 8.16418C31.7508 7.85151 31.7202 7.60527 31.6878 7.43878C31.652 7.25483 31.6119 7.07172 31.5677 6.88961C31.5246 6.7124 31.4773 6.53626 31.4257 6.36134C31.3754 6.19093 31.3208 6.02183 31.2619 5.8542C31.2037 5.68864 31.142 5.52656 31.0774 5.36797C31.0128 5.20938 30.9429 5.05448 30.8701 4.90286C30.7973 4.75124 30.721 4.60331 30.641 4.45876C30.5609 4.31421 30.4774 4.17325 30.3902 4.03578C30.303 3.89831 30.2121 3.76432 30.1175 3.63392C30.0234 3.50394 29.9253 3.37693 29.8233 3.25308C29.7218 3.1299 29.6164 3.00997 29.5073 2.89345C29.3984 2.77708 29.2858 2.66419 29.1698 2.55495C29.0536 2.44566 28.934 2.33987 28.8105 2.23756C28.6867 2.13491 28.5596 2.03614 28.4296 1.94139C28.2982 1.84567 28.1639 1.75398 28.0269 1.66644C27.8881 1.57766 27.7466 1.49301 27.6027 1.41262C27.4563 1.33087 27.3076 1.25334 27.1568 1.18011C26.9064 1.05842 26.6749 0.950477 26.4477 0.854727C26.2243 0.759701 25.9965 0.675304 25.7651 0.601821C25.5324 0.528522 25.2902 0.465681 25.0236 0.41145C24.7571 0.357219 24.4665 0.31201 24.1375 0.273566C23.8085 0.235123 23.4412 0.204062 23.0211 0.178228C22.601 0.152394 22.1285 0.132094 21.5889 0.115692L19.7554 0.0746861L17.4347 0.0473146L14.463 0.0290659L14.462 0.0288626ZM16.0053 2.84824L20.2908 2.87264L21.9075 2.90381C22.3527 2.91631 22.6924 2.93097 22.8916 2.94789C23.151 2.96972 23.398 2.99709 23.6343 3.0299C23.8611 3.06121 24.0868 3.10016 24.3109 3.14666C24.5262 3.19177 24.7316 3.24303 24.9281 3.30085C25.1246 3.35867 25.3123 3.42346 25.4924 3.49511C25.6725 3.56677 25.8448 3.64561 26.0105 3.73193C26.175 3.81759 26.3348 3.91187 26.4893 4.01436C26.6431 4.11636 26.7913 4.22625 26.9352 4.34466C27.0792 4.46307 27.2187 4.58998 27.3549 4.72571C27.4988 4.86892 27.6314 5.0148 27.7537 5.1653C27.8756 5.31486 27.9883 5.47161 28.0913 5.63472C28.1955 5.80014 28.2894 5.97184 28.3724 6.14883C28.4573 6.32926 28.5335 6.51994 28.602 6.72261C28.6705 6.92528 28.7315 7.14067 28.7855 7.37081C28.8421 7.61481 28.8895 7.86086 28.9276 8.10841C28.9686 8.37085 29.0037 8.65072 29.0334 8.95037C29.0631 9.25003 29.0877 9.56957 29.108 9.91146C29.1242 10.1857 29.1384 10.5476 29.1504 10.975L29.1804 12.4322L29.2034 16.0018L29.1772 19.568L29.1459 21.0211L29.1027 22.0779C29.0728 22.5727 29.0412 22.9887 29.0035 23.3508C28.9845 23.5319 28.964 23.6994 28.9413 23.8565C28.9199 24.005 28.8947 24.1529 28.8655 24.3C28.8388 24.4342 28.8079 24.5676 28.7727 24.6998C28.739 24.826 28.7011 24.9511 28.659 25.0747C28.6166 25.199 28.5705 25.3219 28.5207 25.4434C28.4681 25.5716 28.4126 25.6987 28.3541 25.8244C28.3022 25.9367 28.2475 26.0459 28.1897 26.1522C28.1325 26.2574 28.0718 26.3607 28.0076 26.4618C27.9441 26.5619 27.8774 26.6592 27.8077 26.7534C27.7384 26.8473 27.6657 26.9387 27.5898 27.0273C27.5141 27.1156 27.4352 27.2011 27.3533 27.2836C27.2713 27.3662 27.1862 27.4458 27.098 27.5227C27.0099 27.5996 26.9184 27.6734 26.8238 27.7445C26.7292 27.8157 26.6313 27.884 26.5301 27.9494C26.4289 28.0148 26.3245 28.0775 26.2168 28.1374C26.1091 28.1972 25.9979 28.2545 25.8836 28.3089C25.7673 28.3641 25.6494 28.4159 25.53 28.4641C25.4066 28.5139 25.2819 28.5602 25.1559 28.603C24.8996 28.6903 24.6292 28.767 24.3447 28.8332C24.0481 28.9016 23.7487 28.9577 23.4474 29.0011C23.3316 29.018 23.0654 29.0339 22.684 29.0486L21.2308 29.089L17.1107 29.1425L12.7982 29.1493L11.1047 29.1313L10.005 29.097L9.1941 29.04C8.94232 29.0188 8.70818 28.9952 8.4888 28.9685C8.26941 28.9417 8.0651 28.9119 7.87288 28.8783C7.69073 28.8468 7.50969 28.8091 7.33006 28.7655C7.16628 28.7256 7.00417 28.6792 6.84414 28.6263C6.68985 28.575 6.54233 28.5186 6.39881 28.4566C6.25529 28.3946 6.11587 28.3266 5.97778 28.2524C5.83969 28.1782 5.70304 28.0976 5.56485 28.0097C5.46059 27.9435 5.35982 27.8765 5.26284 27.8054C5.16586 27.7344 5.07216 27.6636 4.98195 27.5893C4.89173 27.5151 4.80511 27.4386 4.72156 27.3599C4.63856 27.2815 4.55841 27.2002 4.48126 27.1161C4.40437 27.0323 4.33087 26.9459 4.26034 26.8566C4.18953 26.7668 4.12207 26.6745 4.05808 26.5798C3.99313 26.4836 3.93169 26.3851 3.87386 26.2845C3.81542 26.183 3.75986 26.078 3.70706 25.9698C3.65338 25.8595 3.60329 25.7474 3.55688 25.6338C3.50972 25.5182 3.46502 25.3989 3.42299 25.2757C3.33893 25.0291 3.26512 24.7667 3.20094 24.4868C3.13677 24.2069 3.08203 23.9096 3.03569 23.5929C2.98935 23.2761 2.95204 22.9403 2.92231 22.5833C2.90037 22.3203 2.88294 21.9108 2.86961 21.3941L2.84173 19.5565L2.85198 14.8721L2.93266 10.3958L2.99417 8.81874L3.02903 8.29745C3.04112 8.15824 3.05363 8.05511 3.06644 7.99319C3.10868 7.78949 3.15122 7.59994 3.1952 7.42248C3.23629 7.25507 3.28199 7.08883 3.33227 6.92395C3.38004 6.76833 3.43037 6.62255 3.48419 6.48447C3.53609 6.3507 3.59393 6.21931 3.65755 6.0907C3.71967 5.96564 3.78641 5.8459 3.85889 5.72934C3.93137 5.61278 4.00959 5.4997 4.09488 5.38724C4.18017 5.27478 4.27203 5.16376 4.37198 5.0512C4.47193 4.93863 4.57988 4.82495 4.69695 4.70777C4.83339 4.57055 4.97547 4.43905 5.1228 4.3136C5.26192 4.19524 5.407 4.08407 5.55747 3.98053C5.7054 3.87801 5.85712 3.78677 6.0151 3.70291C6.17307 3.61906 6.3373 3.5433 6.51004 3.47512C6.68278 3.40695 6.86423 3.34595 7.05645 3.2906C7.25839 3.23395 7.46256 3.18563 7.66847 3.14574C7.88498 3.1033 8.11492 3.06629 8.36045 3.034C8.60597 3.00171 8.86718 2.97382 9.14643 2.94963C9.34121 2.93282 9.67685 2.91785 10.1188 2.90524L11.7273 2.87346L16.0061 2.84732L16.0053 2.84824Z" fill="url(#paint2_radial_5495_1859)"/>
<defs>
<radialGradient id="paint0_radial_5495_1859" cx="0" cy="0" r="1" gradientUnits="userSpaceOnUse" gradientTransform="translate(5.09773 34.2989) rotate(-9.53101) scale(67.6306 41.0514)">
<stop stop-color="#FED576"/>
<stop offset="0.263" stop-color="#F47133"/>
<stop offset="0.609" stop-color="#BC3081"/>
<stop offset="1" stop-color="#4C63D2"/>
</radialGradient>
<radialGradient id="paint1_radial_5495_1859" cx="0" cy="0" r="1" gradientUnits="userSpaceOnUse" gradientTransform="translate(5.09781 34.2991) rotate(-9.53101) scale(67.6306 41.0514)">
<stop stop-color="#FED576"/>
<stop offset="0.263" stop-color="#F47133"/>
<stop offset="0.609" stop-color="#BC3081"/>
<stop offset="1" stop-color="#4C63D2"/>
</radialGradient>
<radialGradient id="paint2_radial_5495_1859" cx="0" cy="0" r="1" gradientUnits="userSpaceOnUse" gradientTransform="translate(5.09809 34.299) rotate(-9.53101) scale(67.6306 41.0514)">
<stop stop-color="#FED576"/>
<stop offset="0.263" stop-color="#F47133"/>
<stop offset="0.609" stop-color="#BC3081"/>
<stop offset="1" stop-color="#4C63D2"/>
</radialGradient>
</defs>
</svg>
