<svg width="97" height="97" viewBox="0 0 97 97" fill="none" xmlns="http://www.w3.org/2000/svg">
<circle cx="48.5" cy="48.5" r="45.1562" fill="url(#paint0_radial_6190_10594)"/>
<circle cx="48.5" cy="48.5" r="45.1562" fill="url(#paint1_radial_6190_10594)"/>
<circle cx="48.5" cy="48.5" r="45.1562" stroke="#581164" stroke-width="5.3125"/>
<path d="M48.4981 25.3188C42.2028 25.3188 41.4128 25.3464 38.9403 25.4589C36.4726 25.5719 34.7882 25.9626 33.3144 26.5359C31.7898 27.128 30.4966 27.92 29.2082 29.209C27.9188 30.4976 27.1268 31.7909 26.5329 33.3151C25.9582 34.7896 25.567 36.4746 25.456 38.9415C25.3454 41.4142 25.3164 42.2048 25.3164 48.5006C25.3164 54.7964 25.3444 55.5841 25.4565 58.0568C25.5699 60.5247 25.9606 62.2092 26.5333 63.6832C27.1259 65.2079 27.9178 66.5012 29.2067 67.7897C30.4947 69.0792 31.7879 69.8732 33.3115 70.4653C34.7863 71.0386 36.4712 71.4293 38.9384 71.5423C41.4109 71.6548 42.2004 71.6823 48.4952 71.6823C54.7909 71.6823 55.5785 71.6548 58.051 71.5423C60.5187 71.4293 62.205 71.0386 63.6798 70.4653C65.2039 69.8732 66.4952 69.0792 67.7831 67.7897C69.0725 66.5012 69.8645 65.2079 70.4584 63.6837C71.0283 62.2092 71.4194 60.5242 71.5353 58.0573C71.6464 55.5846 71.6754 54.7964 71.6754 48.5006C71.6754 42.2048 71.6464 41.4147 71.5353 38.942C71.4194 36.4741 71.0283 34.7896 70.4584 33.3156C69.8645 31.7909 69.0725 30.4976 67.7831 29.209C66.4938 27.9196 65.2044 27.1275 63.6784 26.5359C62.2007 25.9626 60.5153 25.5719 58.0476 25.4589C55.5751 25.3464 54.788 25.3188 48.4908 25.3188H48.4981ZM46.4187 29.4964C47.0358 29.4954 47.7244 29.4964 48.4981 29.4964C54.6871 29.4964 55.4206 29.5186 57.8646 29.6297C60.1246 29.733 61.3512 30.1107 62.1683 30.428C63.25 30.8482 64.0212 31.3504 64.8321 32.1618C65.6433 32.9732 66.1456 33.7459 66.5667 34.8277C66.8839 35.6439 67.2621 36.8706 67.3649 39.1308C67.476 41.5746 67.5001 42.3087 67.5001 48.4953C67.5001 54.6819 67.476 55.416 67.3649 57.8597C67.2616 60.12 66.8839 61.3467 66.5667 62.1629C66.1465 63.2447 65.6433 64.015 64.8321 64.8259C64.0208 65.6372 63.2505 66.1395 62.1683 66.5597C61.3522 66.8784 60.1246 67.2551 57.8646 67.3585C55.4211 67.4695 54.6871 67.4937 48.4981 67.4937C42.3086 67.4937 41.5751 67.4695 39.1315 67.3585C36.8715 67.2541 35.6449 66.8765 34.8273 66.5592C33.7456 66.139 32.973 65.6367 32.1617 64.8254C31.3504 64.014 30.8482 63.2432 30.4271 62.1609C30.1098 61.3447 29.7317 60.118 29.6288 57.8578C29.5177 55.4141 29.4955 54.68 29.4955 48.4895C29.4955 42.299 29.5177 41.5688 29.6288 39.125C29.7321 36.8648 30.1098 35.6381 30.4271 34.8209C30.8472 33.7391 31.3504 32.9664 32.1617 32.155C32.973 31.3437 33.7456 30.8414 34.8273 30.4203C35.6444 30.1015 36.8715 29.7248 39.1315 29.621C41.2699 29.5244 42.0985 29.4954 46.4187 29.4906V29.4964ZM60.8712 33.3455C59.3356 33.3455 58.0896 34.5901 58.0896 36.1264C58.0896 37.6622 59.3356 38.9082 60.8712 38.9082C62.4069 38.9082 63.6528 37.6622 63.6528 36.1264C63.6528 34.5906 62.4069 33.3446 60.8712 33.3446V33.3455ZM48.4981 36.5958C41.9242 36.5958 36.5943 41.9262 36.5943 48.5006C36.5943 55.075 41.9242 60.403 48.4981 60.403C55.0719 60.403 60.3999 55.075 60.3999 48.5006C60.3999 41.9262 55.0715 36.5958 48.4976 36.5958H48.4981ZM48.4981 40.7733C52.7651 40.7733 56.2246 44.2327 56.2246 48.5006C56.2246 52.768 52.7651 56.2278 48.4981 56.2278C44.2306 56.2278 40.7715 52.768 40.7715 48.5006C40.7715 44.2327 44.2306 40.7733 48.4981 40.7733V40.7733Z" fill="#FFDD55"/>
<path d="M48.4981 25.3188C42.2028 25.3188 41.4128 25.3464 38.9403 25.4589C36.4726 25.5719 34.7882 25.9626 33.3144 26.5359C31.7898 27.128 30.4966 27.92 29.2082 29.209C27.9188 30.4976 27.1268 31.7909 26.5329 33.3151C25.9582 34.7896 25.567 36.4746 25.456 38.9415C25.3454 41.4142 25.3164 42.2048 25.3164 48.5006C25.3164 54.7964 25.3444 55.5841 25.4565 58.0568C25.5699 60.5247 25.9606 62.2092 26.5333 63.6832C27.1259 65.2079 27.9178 66.5012 29.2067 67.7897C30.4947 69.0792 31.7879 69.8732 33.3115 70.4653C34.7863 71.0386 36.4712 71.4293 38.9384 71.5423C41.4109 71.6548 42.2004 71.6823 48.4952 71.6823C54.7909 71.6823 55.5785 71.6548 58.051 71.5423C60.5187 71.4293 62.205 71.0386 63.6798 70.4653C65.2039 69.8732 66.4952 69.0792 67.7831 67.7897C69.0725 66.5012 69.8645 65.2079 70.4585 63.6837C71.0283 62.2092 71.4194 60.5242 71.5353 58.0573C71.6464 55.5846 71.6754 54.7964 71.6754 48.5006C71.6754 42.2048 71.6464 41.4147 71.5353 38.942C71.4194 36.4741 71.0283 34.7896 70.4585 33.3156C69.8645 31.7909 69.0725 30.4976 67.7831 29.209C66.4938 27.9196 65.2044 27.1275 63.6784 26.5359C62.2007 25.9626 60.5153 25.5719 58.0476 25.4589C55.5751 25.3464 54.788 25.3188 48.4908 25.3188H48.4981ZM46.4187 29.4964C47.0358 29.4954 47.7244 29.4964 48.4981 29.4964C54.6871 29.4964 55.4206 29.5186 57.8646 29.6297C60.1246 29.733 61.3512 30.1107 62.1683 30.428C63.25 30.8482 64.0213 31.3504 64.8321 32.1618C65.6434 32.9732 66.1456 33.7459 66.5667 34.8277C66.8839 35.6439 67.2621 36.8706 67.3649 39.1308C67.476 41.5746 67.5001 42.3087 67.5001 48.4953C67.5001 54.6819 67.476 55.416 67.3649 57.8597C67.2616 60.12 66.8839 61.3467 66.5667 62.1629C66.1465 63.2447 65.6434 64.015 64.8321 64.8259C64.0208 65.6372 63.2505 66.1395 62.1683 66.5597C61.3522 66.8784 60.1246 67.2551 57.8646 67.3585C55.4211 67.4695 54.6871 67.4937 48.4981 67.4937C42.3086 67.4937 41.5751 67.4695 39.1315 67.3585C36.8715 67.2541 35.6449 66.8765 34.8273 66.5592C33.7456 66.139 32.973 65.6367 32.1617 64.8254C31.3504 64.014 30.8482 63.2432 30.4271 62.1609C30.1098 61.3447 29.7317 60.118 29.6288 57.8578C29.5177 55.4141 29.4955 54.68 29.4955 48.4895C29.4955 42.299 29.5177 41.5688 29.6288 39.125C29.7321 36.8648 30.1098 35.6381 30.4271 34.8209C30.8472 33.7391 31.3504 32.9664 32.1617 32.155C32.973 31.3437 33.7456 30.8414 34.8273 30.4203C35.6444 30.1015 36.8715 29.7248 39.1315 29.621C41.2699 29.5244 42.0985 29.4954 46.4187 29.4906V29.4964ZM60.8712 33.3455C59.3356 33.3455 58.0897 34.5901 58.0897 36.1264C58.0897 37.6622 59.3356 38.9082 60.8712 38.9082C62.4069 38.9082 63.6528 37.6622 63.6528 36.1264C63.6528 34.5906 62.4069 33.3446 60.8712 33.3446V33.3455ZM48.4981 36.5958C41.9242 36.5958 36.5943 41.9262 36.5943 48.5006C36.5943 55.075 41.9242 60.403 48.4981 60.403C55.0719 60.403 60.3999 55.075 60.3999 48.5006C60.3999 41.9262 55.0715 36.5958 48.4976 36.5958H48.4981ZM48.4981 40.7733C52.7651 40.7733 56.2246 44.2327 56.2246 48.5006C56.2246 52.768 52.7651 56.2278 48.4981 56.2278C44.2306 56.2278 40.7715 52.768 40.7715 48.5006C40.7715 44.2327 44.2306 40.7733 48.4981 40.7733V40.7733Z" fill="white"/>
<defs>
<radialGradient id="paint0_radial_6190_10594" cx="0" cy="0" r="1" gradientUnits="userSpaceOnUse" gradientTransform="translate(28.5782 97.5468) rotate(-90) scale(84.2413 78.351)">
<stop stop-color="#FFDD55"/>
<stop offset="0.1" stop-color="#FFDD55"/>
<stop offset="0.5" stop-color="#FF543E"/>
<stop offset="1" stop-color="#C837AB"/>
</radialGradient>
<radialGradient id="paint1_radial_6190_10594" cx="0" cy="0" r="1" gradientUnits="userSpaceOnUse" gradientTransform="translate(-8.23795 12.1233) rotate(78.6806) scale(37.6562 155.22)">
<stop stop-color="#3771C8"/>
<stop offset="0.128" stop-color="#3771C8"/>
<stop offset="1" stop-color="#6600FF" stop-opacity="0"/>
</radialGradient>
</defs>
</svg>
