<svg width="66" height="66" viewBox="0 0 66 66" fill="none" xmlns="http://www.w3.org/2000/svg">
<path d="M66 33.0009C66 49.6677 53.6445 63.4461 37.5948 65.6827C36.0936 65.8917 34.5582 66 33 66C31.2004 66 29.4351 65.8556 27.7135 65.5782C12.0021 63.049 0 49.4245 0 32.999C0 14.7741 14.7745 0 33 0C51.2254 0 66 14.7741 66 32.999V33.0009Z" fill="#007EBB"/>
<path d="M16.0571 21.8563C15.1773 21.0393 14.7383 20.0283 14.7383 18.8255C14.7383 17.6227 15.1773 16.5662 16.0571 15.7491C16.9369 14.932 18.0694 14.5234 19.4585 14.5234C20.8476 14.5234 21.9346 14.932 22.8125 15.7491C23.6923 16.5662 24.1313 17.5923 24.1313 18.8255C24.1313 20.0588 23.6923 21.0393 22.8125 21.8563C21.9327 22.6734 20.8153 23.082 19.4585 23.082C18.1017 23.082 16.9369 22.6734 16.0571 21.8563ZM23.3902 26.5423V51.5813H15.4794V26.5423H23.3902Z" fill="#FEFFFC"/>
<path d="M49.7253 29.0152C51.4488 30.8869 52.3116 33.4578 52.3116 36.73V51.1412H44.796V37.7466C44.796 36.0972 44.3684 34.8146 43.5133 33.9006C42.6582 32.9866 41.5086 32.5305 40.0644 32.5305C38.6202 32.5305 37.4705 32.9885 36.6154 33.9006C35.7603 34.8146 35.3327 36.0972 35.3327 37.7466V51.1412H27.7734V26.4746H35.3327V29.7467C36.0985 28.656 37.1304 27.7952 38.4282 27.1606C39.7242 26.5278 41.1836 26.2104 42.8045 26.2104C45.6929 26.2104 47.9999 27.1473 49.7234 29.0171L49.7253 29.0152Z" fill="#FEFFFC"/>
</svg>
