<svg width="29" height="37" viewBox="0 0 29 37" fill="none" xmlns="http://www.w3.org/2000/svg">
<g id="Group 18516">
<path id="layer2" d="M27.9438 16.6017C28 16.1271 28 15.7119 28 15.2373C28 11.4613 26.5777 7.84001 24.0459 5.17C21.5142 2.5 18.0804 1 14.5 1C10.9196 1 7.4858 2.5 4.95406 5.17C2.42232 7.84001 1 11.4613 1 15.2373C1 15.7119 1 16.1864 1.05625 16.6017V16.7797C2.18125 28.0508 14.5 36 14.5 36C14.5 36 26.8187 27.9322 27.8875 16.839L27.9438 16.6017Z" stroke="#6E24FF" stroke-width="2" stroke-miterlimit="10" stroke-linecap="round" stroke-linejoin="round"/>
<path id="layer1" d="M14.5 22.3564C18.2279 22.3564 21.25 19.1693 21.25 15.2378C21.25 11.3063 18.2279 8.11914 14.5 8.11914C10.7721 8.11914 7.75 11.3063 7.75 15.2378C7.75 19.1693 10.7721 22.3564 14.5 22.3564Z" stroke="#6E24FF" stroke-width="2" stroke-miterlimit="10" stroke-linecap="round" stroke-linejoin="round"/>
</g>
</svg>
