<svg width="26" height="26" viewBox="0 0 26 26" fill="none" xmlns="http://www.w3.org/2000/svg">
<g id="icon" clip-path="url(#clip0_5395_20775)">
<path id="Vector" d="M7.6273 12.7453C6.2455 11.3327 5.48438 9.47546 5.48438 7.51562C5.48438 3.3714 8.85577 0 13 0C17.1442 0 20.5156 3.3714 20.5156 7.51562C20.5156 11.0529 18.0589 14.0269 14.7623 14.822C14.412 15.4323 13.7542 15.8438 13 15.8438C11.8783 15.8438 10.9688 14.9342 10.9688 13.8125C10.9688 12.6908 11.8783 11.7812 13 11.7812C13.7216 11.7812 14.3548 12.1579 14.7153 12.7251C16.9018 12.0032 18.4844 9.94102 18.4844 7.51562C18.4844 4.49156 16.0241 2.03125 13 2.03125C9.97594 2.03125 7.51562 4.49156 7.51562 7.51562C7.51562 8.94127 8.07104 10.2941 9.07933 11.325C9.4715 11.7259 9.46455 12.3688 9.06366 12.7612C8.66257 13.1533 8.01967 13.1464 7.6273 12.7453ZM23.9376 16.5045C23.0759 15.7473 22.0309 15.0931 20.8314 14.5601C20.3188 14.3324 19.7188 14.5633 19.4909 15.0759C19.2632 15.5885 19.494 16.1887 20.0066 16.4164C21.0181 16.8659 21.8897 17.4088 22.5969 18.0303C23.4687 18.7964 23.9688 19.9057 23.9688 21.0742V22.9531C23.9688 23.5131 23.5131 23.9688 22.9531 23.9688H3.04688C2.48689 23.9688 2.03125 23.5131 2.03125 22.9531V21.0742C2.03125 19.9057 2.53133 18.7964 3.40314 18.0303C4.25432 17.2823 5.79184 16.255 8.2823 15.6081C8.82523 15.4671 9.15094 14.9124 9.0099 14.3697C8.86887 13.8268 8.31444 13.5011 7.77151 13.6421C4.89503 14.3893 3.07921 15.6111 2.06239 16.5045C0.751602 17.656 0 19.3217 0 21.0742V22.9531C0 24.6333 1.36673 26 3.04688 26H22.9531C24.6333 26 26 24.6333 26 22.9531V21.0742C26 19.3217 25.2484 17.656 23.9376 16.5045Z" fill="#6E24FF"/>
</g>
<defs>
<clipPath id="clip0_5395_20775">
<rect width="26" height="26" fill="white"/>
</clipPath>
</defs>
</svg>
