<svg width="56" height="56" viewBox="0 0 56 56" fill="none" xmlns="http://www.w3.org/2000/svg">
<path d="M55.0835 27.5425C55.0835 41.4526 44.7716 52.952 31.3766 54.8186C30.1237 54.9931 28.8422 55.0835 27.5417 55.0835C26.0398 55.0835 24.5665 54.9629 23.1296 54.7314C10.0169 52.6206 0 41.2496 0 27.5409C0 12.3305 12.3308 0 27.5417 0C42.7526 0 55.0835 12.3305 55.0835 27.5409V27.5425Z" fill="url(#paint0_linear_6190_10716)"/>
<path d="M44.5138 26.0612C43.7637 17.602 36.638 10.9443 27.9834 10.9443C18.8324 10.9443 11.3848 18.3918 11.3848 27.5409C11.3848 30.8999 12.3887 34.032 14.1142 36.6472L12.0445 41.2305C11.5005 42.4358 12.4711 43.7759 13.7859 43.6363L21.4873 42.8164C23.4825 43.668 25.6806 44.139 27.9834 44.139C28.5702 44.139 29.1522 44.1073 29.7232 44.0487C30.2497 43.9916 30.7668 43.9123 31.279 43.8108C38.8282 42.2835 44.5345 35.6148 44.5805 27.6376V27.5409C44.5805 27.0445 44.5598 26.5465 44.5138 26.0612ZM37.2042 23.8045L33.7182 29.1792L31.8753 32.0227C31.482 32.6285 30.6573 32.7728 30.0816 32.3367L27.0239 30.0197L25.1398 28.5924C24.9875 28.4766 24.775 28.4798 24.6259 28.6019L20.0013 32.3748C19.2575 32.9822 18.2393 32.0687 18.7611 31.263L22.025 26.2309L23.8679 23.3874C24.2612 22.7816 25.0859 22.6373 25.6616 23.0734L28.6289 25.3222L30.513 26.7479C30.6668 26.8637 30.8794 26.8605 31.0284 26.7384L35.9624 22.6944C36.7062 22.0838 37.7275 22.9973 37.2042 23.8045Z" fill="white"/>
<defs>
<linearGradient id="paint0_linear_6190_10716" x1="10.5974" y1="48.7208" x2="55.2992" y2="-7.15847" gradientUnits="userSpaceOnUse">
<stop stop-color="#FA8679"/>
<stop offset="0.27" stop-color="#F44E90"/>
<stop offset="0.31" stop-color="#E14F9D"/>
<stop offset="0.49" stop-color="#9A57D1"/>
<stop offset="0.62" stop-color="#6D5CF1"/>
<stop offset="0.69" stop-color="#5C5EFE"/>
<stop offset="1" stop-color="#0498FA"/>
</linearGradient>
</defs>
</svg>
