<svg width="66" height="66" viewBox="0 0 66 66" fill="none" xmlns="http://www.w3.org/2000/svg">
<circle cx="32.998" cy="33" r="27.5" fill="#0070BA"/>
<path d="M44.4544 24.8828C44.4238 25.0786 44.3888 25.2787 44.3495 25.4843C42.9967 32.4294 38.3688 34.8286 32.4582 34.8286H29.4488C28.7259 34.8286 28.1168 35.3535 28.0042 36.0665L26.4634 45.8385L26.0271 48.6084C25.9538 49.0765 26.3147 49.4986 26.7871 49.4986H32.1247C32.7568 49.4986 33.2937 49.0393 33.3932 48.416L33.4457 48.1448L34.4507 41.7672L34.5152 41.4173C34.6136 40.7918 35.1516 40.3325 35.7837 40.3325H36.582C41.7534 40.3325 45.8017 38.2328 46.9849 32.1571C47.4792 29.619 47.2233 27.4997 45.9154 26.0092C45.5196 25.5597 45.0286 25.1868 44.4544 24.8828Z" fill="white" fill-opacity="0.6"/>
<path d="M43.0391 24.3176C42.8324 24.2574 42.6192 24.2027 42.4005 24.1535C42.1807 24.1054 41.9554 24.0628 41.7236 24.0256C40.9122 23.8944 40.0231 23.832 39.0706 23.832H31.0308C30.8329 23.832 30.6448 23.8769 30.4764 23.9578C30.1057 24.136 29.8301 24.4871 29.7634 24.9168L28.0531 35.7495L28.0039 36.0656C28.1165 35.3526 28.7256 34.8277 29.4485 34.8277H32.4579C38.3686 34.8277 42.9965 32.4273 44.3492 25.4833C44.3896 25.2777 44.4235 25.0776 44.4542 24.8818C44.1119 24.7003 43.7412 24.545 43.342 24.4127C43.2436 24.3799 43.1419 24.3482 43.0391 24.3176Z" fill="white" fill-opacity="0.8"/>
<path d="M29.7634 24.9173C29.8301 24.4875 30.1056 24.1365 30.4764 23.9593C30.6459 23.8784 30.8329 23.8336 31.0308 23.8336H39.0706C40.023 23.8336 40.9121 23.8959 41.7235 24.0271C41.9553 24.0643 42.1806 24.107 42.4004 24.1551C42.6191 24.2043 42.8324 24.259 43.039 24.3191C43.1418 24.3497 43.2435 24.3814 43.343 24.4131C43.7422 24.5455 44.1129 24.7018 44.4552 24.8823C44.8576 22.3157 44.4519 20.5682 43.0642 18.9859C41.5343 17.2438 38.7731 16.498 35.2399 16.498H24.9824C24.2606 16.498 23.645 17.0229 23.5334 17.737L19.2609 44.8188C19.1767 45.3546 19.5901 45.8379 20.1303 45.8379H26.463L28.0531 35.75L29.7634 24.9173Z" fill="white"/>
</svg>
