<svg width="66" height="66" viewBox="0 0 66 66" fill="none" xmlns="http://www.w3.org/2000/svg">
<path d="M66 33.001C66 49.6677 53.6445 63.4461 37.5948 65.6827C36.0936 65.8917 34.5582 66 33 66C31.2005 66 29.4351 65.8556 27.7135 65.5782C12.0021 63.049 0 49.4245 0 32.9991C0 14.7741 14.7746 0 33 0C51.2255 0 66 14.7741 66 32.9991V33.001Z" fill="#FF0000"/>
<path fill-rule="evenodd" clip-rule="evenodd" d="M29.9506 41.7051C29.9107 41.8438 29.8727 41.9597 29.8423 42.0757C28.075 48.9981 27.8793 50.5354 26.0626 53.7505C25.1961 55.2783 24.2213 56.7263 23.1419 58.1115C23.0203 58.2673 22.9063 58.4707 22.6631 58.4212C22.397 58.3642 22.3761 58.1248 22.3476 57.912C22.0569 55.8085 21.8972 53.6992 21.9656 51.5748C22.0569 48.8081 22.3989 47.858 25.9657 32.8615C26.017 32.6335 25.96 32.4435 25.8821 32.2364C25.0289 29.9333 24.8598 27.596 25.6047 25.2284C27.2199 20.113 33.0176 19.7216 34.0323 23.9419C34.6575 26.5528 33.0043 29.9675 31.7349 35.0183C30.6841 39.1854 35.5886 42.146 39.7806 39.1056C43.6458 36.3028 45.147 29.5799 44.8619 24.816C44.2995 15.3169 33.8841 13.2647 27.275 16.324C19.6986 19.8261 17.977 29.2169 21.3975 33.5076C21.8307 34.053 22.6479 34.3874 22.5053 34.9404C22.2849 35.7992 22.0911 36.6657 21.8535 37.5208C21.6768 38.1574 20.6621 38.3873 20.0198 38.127C18.758 37.6178 17.7091 36.814 16.8558 35.7575C13.9503 32.1604 13.1199 25.046 16.9604 19.0223C21.2151 12.3488 29.1296 9.65047 36.3564 10.4695C44.9874 11.4519 50.443 17.3482 51.4635 24.0369C51.929 27.0849 51.5946 34.6002 47.3152 39.9094C42.3935 46.0129 34.4162 46.4176 30.7354 42.6704C30.4522 42.3835 30.2242 42.0471 29.9468 41.7032L29.9506 41.7051Z" fill="white"/>
</svg>
