<svg width="89" height="89" viewBox="0 0 89 89" fill="none" xmlns="http://www.w3.org/2000/svg">
<circle cx="44.5" cy="44.5" r="43.5" fill="#E60019" stroke="#581164" stroke-width="2"/>
<g clip-path="url(#clip0_6190_10597)">
<path d="M44.5013 72.8346C60.1494 72.8346 72.8346 60.1494 72.8346 44.5013C72.8346 28.8532 60.1494 16.168 44.5013 16.168C28.8532 16.168 16.168 28.8532 16.168 44.5013C16.168 60.1494 28.8532 72.8346 44.5013 72.8346Z" fill="white"/>
<path d="M44.5013 16.168C28.8538 16.168 16.168 28.8538 16.168 44.5013C16.168 56.5109 23.6302 66.7715 34.1707 70.8991C33.9142 68.6604 33.7043 65.2091 34.264 62.7606C34.777 60.5452 37.5754 48.6755 37.5754 48.6755C37.5754 48.6755 36.7359 46.9732 36.7359 44.478C36.7359 40.537 39.0212 37.5987 41.8662 37.5987C44.2914 37.5987 45.4574 39.4176 45.4574 41.5864C45.4574 44.0116 43.9183 47.6495 43.1021 51.0308C42.4259 53.8525 44.5246 56.1611 47.2997 56.1611C52.3367 56.1611 56.2078 50.8442 56.2078 43.1954C56.2078 36.4094 51.334 31.6755 44.3614 31.6755C36.2928 31.6755 31.5589 37.7153 31.5589 43.965C31.5589 46.3902 32.4917 49.002 33.6577 50.4245C33.8909 50.7043 33.9142 50.9608 33.8442 51.2407C33.6344 52.1268 33.1446 54.0623 33.0514 54.4588C32.9348 54.9718 32.6316 55.0884 32.0953 54.8319C28.5507 53.1762 26.3353 48.0226 26.3353 43.8484C26.3353 34.9169 32.8182 26.7084 45.061 26.7084C54.8785 26.7084 62.5274 33.7043 62.5274 43.0788C62.5274 52.8497 56.371 60.7084 47.836 60.7084C44.9677 60.7084 42.2626 59.216 41.3532 57.4437C41.3532 57.4437 39.9307 62.8538 39.5809 64.1831C38.9512 66.6549 37.2256 69.7331 36.0596 71.622C38.718 72.4382 41.5164 72.8813 44.4547 72.8813C60.1021 72.8813 72.788 60.1954 72.788 44.5479C72.8346 28.8538 60.1488 16.168 44.5013 16.168Z" fill="#E60019"/>
</g>
<defs>
<clipPath id="clip0_6190_10597">
<rect width="56.6667" height="56.6667" fill="white" transform="translate(16.168 16.168)"/>
</clipPath>
</defs>
</svg>
