<svg width="60" height="60" viewBox="0 0 60 60" fill="none" xmlns="http://www.w3.org/2000/svg">
<circle cx="30" cy="30" r="30" fill="#581164"/>
<path d="M38.0004 38C38.5308 38 39.0395 37.7893 39.4146 37.4142C39.7896 37.0391 40.0004 36.5304 40.0004 36V31.116C40.0004 30.5856 39.7896 30.0769 39.4146 29.7018C39.0395 29.3267 38.5308 29.116 38.0004 29.116H35.2244C35.2244 28.414 35.2663 27.71 35.3483 27.008C35.4723 26.264 35.6804 25.602 35.9684 25.024C36.2584 24.444 36.6304 23.99 37.0864 23.658C37.5404 23.286 38.1184 23.1 38.8224 23.1V20C37.6644 20 36.6523 20.248 35.7823 20.744C34.9199 21.235 34.1784 21.9129 33.6123 22.728C33.0442 23.6266 32.6254 24.6114 32.3723 25.644C32.1173 26.7835 31.9925 27.9483 32.0003 29.116V36C32.0003 36.5304 32.2111 37.0391 32.5861 37.4142C32.9612 37.7893 33.4699 38 34.0003 38H38.0004ZM26.0003 38C26.5308 38 27.0395 37.7893 27.4146 37.4142C27.7896 37.0391 28.0003 36.5304 28.0003 36V31.116C28.0003 30.5856 27.7896 30.0769 27.4146 29.7018C27.0395 29.3267 26.5308 29.116 26.0003 29.116H23.2243C23.2243 28.414 23.2663 27.71 23.3483 27.008C23.4723 26.264 23.6803 25.602 23.9683 25.024C24.2583 24.444 24.6303 23.99 25.0863 23.658C25.5403 23.286 26.1183 23.1 26.8223 23.1V20C25.6643 20 24.6523 20.248 23.7823 20.744C22.9199 21.235 22.1784 21.9129 21.6123 22.728C21.0442 23.6266 20.6254 24.6114 20.3723 25.644C20.1173 26.7835 19.9925 27.9483 20.0003 29.116V36C20.0003 36.5304 20.2111 37.0391 20.5861 37.4142C20.9612 37.7893 21.4699 38 22.0003 38H26.0003Z" fill="white"/>
</svg>
