<svg width="66" height="66" viewBox="0 0 66 66" fill="none" xmlns="http://www.w3.org/2000/svg">
<path d="M66 33.0009C66 49.6677 53.6445 63.4461 37.5948 65.6827C36.0936 65.8917 34.5582 66 33 66C31.2004 66 29.4351 65.8556 27.7135 65.5782C12.0021 63.049 0 49.4245 0 32.999C0 14.7741 14.7746 0 33 0C51.2254 0 66 14.7741 66 32.999V33.0009Z" fill="#FF4500"/>
<path d="M53.6935 32.1655C53.1386 29.6515 50.8412 28.0193 48.5609 28.5228C47.7856 28.6938 47.1148 29.0948 46.5846 29.642C43.5176 27.4131 39.3275 25.9423 34.649 25.663L36.8894 16.3387L43.5328 17.9291C43.643 19.7457 45.148 21.1842 46.9912 21.1842C48.8345 21.1842 50.4611 19.6317 50.4611 17.7144C50.4611 15.7971 48.9086 14.2446 46.9912 14.2446C45.6022 14.2446 44.4088 15.0617 43.8539 16.2398L36.6462 14.5145C36.0799 14.3796 35.5098 14.7273 35.373 15.2955L32.8932 25.6136C27.6751 25.6402 22.9662 27.1509 19.5856 29.5679C19.4203 29.414 19.2417 29.2696 19.046 29.1461C17.0773 27.89 14.358 28.6311 12.9727 30.8012C11.5874 32.9712 12.0587 35.7493 14.0274 37.0073C14.1433 37.0814 14.263 37.1479 14.3846 37.2087C14.3067 37.6932 14.2611 38.1854 14.2611 38.687C14.2611 45.9078 22.666 51.7605 33.0319 51.7605C43.3979 51.7605 51.8027 45.9078 51.8027 38.687C51.8027 38.1816 51.7571 37.6837 51.6773 37.1935C53.2754 36.2643 54.1476 34.2405 53.6897 32.1674L53.6935 32.1655ZM23.4147 35.6581C23.4147 34.0125 24.7487 32.6805 26.3924 32.6805C28.0361 32.6805 29.3701 34.0144 29.3701 35.6581C29.3701 37.3018 28.0361 38.6357 26.3924 38.6357C24.7487 38.6357 23.4147 37.3018 23.4147 35.6581ZM39.9603 45.0623C39.0462 45.8945 36.5189 47.8309 32.8172 47.8651C32.783 47.8651 32.7507 47.8651 32.7165 47.8651C28.9672 47.8651 26.4057 45.9078 25.4727 45.0623C25.1743 44.7905 25.1515 44.3288 25.4232 44.0285C25.695 43.7302 26.1567 43.7074 26.457 43.9791C27.2703 44.7183 29.5126 46.4342 32.8039 46.4019C36.002 46.3715 38.1854 44.6974 38.9778 43.9791C39.2762 43.7074 39.7398 43.7302 40.0116 44.0285C40.2833 44.3269 40.2605 44.7905 39.9622 45.0623H39.9603ZM39.6011 38.6357C37.9555 38.6357 36.6234 37.3018 36.6234 35.6581C36.6234 34.0144 37.9574 32.6805 39.6011 32.6805C41.2448 32.6805 42.5788 34.0144 42.5788 35.6581C42.5788 37.3018 41.2448 38.6357 39.6011 38.6357Z" fill="white"/>
</svg>
