<svg width="22" height="25" viewBox="0 0 22 25" fill="none" xmlns="http://www.w3.org/2000/svg">
<g clip-path="url(#clip0_6275_33600)">
<path d="M3.92857 6.25C3.92857 4.52393 5.33795 3.125 7.07143 3.125H14.9286C16.6621 3.125 18.0714 4.52393 18.0714 6.25V12.5C18.0714 14.2236 16.6621 15.625 14.9286 15.625H7.07143C5.33795 15.625 3.92857 14.2236 3.92857 12.5V6.25ZM7.85714 13.2812C8.28929 13.2812 8.64286 12.9297 8.64286 12.5C8.64286 12.0703 8.28929 11.7188 7.85714 11.7188C7.425 11.7188 7.07143 12.0703 7.07143 12.5C7.07143 12.9297 7.425 13.2812 7.85714 13.2812ZM11 11.7188C10.5679 11.7188 10.2143 12.0703 10.2143 12.5C10.2143 12.9297 10.5679 13.2812 11 13.2812C11.4321 13.2812 11.7857 12.9297 11.7857 12.5C11.7857 12.0703 11.4321 11.7188 11 11.7188ZM14.1429 13.2812C14.575 13.2812 14.9286 12.9297 14.9286 12.5C14.9286 12.0703 14.575 11.7188 14.1429 11.7188C13.7107 11.7188 13.3571 12.0703 13.3571 12.5C13.3571 12.9297 13.7107 13.2812 14.1429 13.2812ZM6.70312 5.83496C6.47232 5.60547 6.09911 5.60547 5.8683 5.83496C5.6375 6.06445 5.6375 6.43555 5.8683 6.66504L7.02232 7.76856L5.8683 8.95996C5.6375 9.18945 5.6375 9.56055 5.8683 9.79004C6.09911 10.0195 6.47232 10.0195 6.70312 9.79004L7.85714 8.59863L9.01116 9.79004C9.24196 10.0195 9.61518 10.0195 9.84598 9.79004C10.0768 9.56055 10.0768 9.18945 9.84598 8.95996L8.64777 7.8125L9.84598 6.66504C10.0768 6.43555 10.0768 6.06445 9.84598 5.83496C9.61518 5.60547 9.24196 5.60547 9.01116 5.83496L7.85714 6.98242L6.70312 5.83496ZM12.154 6.66504L13.308 7.8125L12.154 8.95996C11.9232 9.18945 11.9232 9.56055 12.154 9.79004C12.3848 10.0195 12.758 10.0195 12.9888 9.79004L14.1429 8.59863L15.2969 9.79004C15.5277 10.0195 15.9009 10.0195 16.1317 9.79004C16.3625 9.56055 16.3625 9.18945 16.1317 8.95996L14.9335 7.8125L16.1317 6.66504C16.3625 6.43555 16.3625 6.06445 16.1317 5.83496C15.9009 5.60547 15.5277 5.60547 15.2969 5.83496L14.1429 6.98242L12.9888 5.83496C12.758 5.60547 12.3848 5.60547 12.154 5.83496C11.9232 6.06445 11.9232 6.43555 12.154 6.66504ZM0 21.875C0 19.2432 2.11063 17.1875 4.71429 17.1875H17.2857C19.8884 17.1875 22 19.2432 22 21.875V23.4375C22 24.3018 21.2978 25 20.4286 25H17.2857V21.875C17.2857 21.0107 16.5835 20.3125 15.7143 20.3125H6.28571C5.41652 20.3125 4.71429 21.0107 4.71429 21.875V25H1.57143C0.703705 25 0 24.3018 0 23.4375V21.875Z" fill="#1E9E7A"/>
<path opacity="0.4" d="M11.7852 3.125H10.2137V0.78125C10.2137 0.349805 10.5673 0 10.9994 0C11.4316 0 11.7852 0.349805 11.7852 0.78125V3.125ZM2.35658 7.03125V11.7188C2.35658 12.1484 2.00498 12.5 1.57087 12.5C1.13676 12.5 0.785156 12.1484 0.785156 11.7188V7.03125C0.785156 6.60156 1.13676 6.25 1.57087 6.25C2.00498 6.25 2.35658 6.60156 2.35658 7.03125ZM8.6423 25H7.07087V22.6562C7.07087 22.2266 7.42444 21.875 7.85658 21.875C8.28873 21.875 8.6423 22.2266 8.6423 22.6562V25ZM11.7852 25H10.2137V22.6562C10.2137 22.2266 10.5673 21.875 10.9994 21.875C11.4316 21.875 11.7852 22.2266 11.7852 22.6562V25ZM14.1423 21.875C14.5744 21.875 14.928 22.2266 14.928 22.6562V25H13.3566V22.6562C13.3566 22.2266 13.7102 21.875 14.1423 21.875ZM21.2137 11.7188C21.2137 12.1484 20.8602 12.5 20.428 12.5C19.9959 12.5 19.6423 12.1484 19.6423 11.7188V7.03125C19.6423 6.60156 19.9959 6.25 20.428 6.25C20.8602 6.25 21.2137 6.60156 21.2137 7.03125V11.7188Z" fill="#1E9E7A"/>
</g>
<defs>
<clipPath id="clip0_6275_33600">
<rect width="22" height="25" fill="white"/>
</clipPath>
</defs>
</svg>
