<svg width="20" height="20" viewBox="0 0 20 20" fill="none" xmlns="http://www.w3.org/2000/svg">
<path d="M16 13.0004V17.0004C16 17.5504 15.55 18.0004 15 18.0004H3C2.45 18.0004 2 17.5504 2 17.0004V5.00043C2 4.45043 2.45 4.00043 3 4.00043H6.02C6.57 4.00043 7.02 3.55043 7.02 3.00043C7.02 2.45043 6.57 2.00043 6.02 2.00043H2C0.9 2.00043 0 2.90043 0 4.00043V18.0004C0 19.1004 0.9 20.0004 2 20.0004H16C17.1 20.0004 18 19.1004 18 18.0004V13.0004C18 12.4504 17.55 12.0004 17 12.0004C16.45 12.0004 16 12.4504 16 13.0004ZM13.5 16.0004H4.52C4.1 16.0004 3.87 15.5204 4.13 15.1904L5.87 12.9604C6.07 12.7104 6.45 12.7004 6.65 12.9504L8.21 14.8304L10.56 11.8104C10.76 11.5504 11.16 11.5504 11.35 11.8204L13.9 15.2104C14.15 15.5304 13.91 16.0004 13.5 16.0004ZM17.3 6.89043C17.78 6.12043 18.05 5.22043 17.99 4.23043C17.86 2.08043 16.15 0.260427 14.02 0.0304269C11.3 -0.269573 9 1.84043 9 4.50043C9 6.99043 11.01 9.00043 13.49 9.00043C14.37 9.00043 15.19 8.74043 15.88 8.30043L18.29 10.7104C18.68 11.1004 19.32 11.1004 19.71 10.7104C20.1 10.3204 20.1 9.68043 19.71 9.29043L17.3 6.89043ZM13.5 7.00043C12.12 7.00043 11 5.88043 11 4.50043C11 3.12043 12.12 2.00043 13.5 2.00043C14.88 2.00043 16 3.12043 16 4.50043C16 5.88043 14.88 7.00043 13.5 7.00043Z" fill="#E25AFF"/>
</svg>
