<svg width="40" height="40" viewBox="0 0 40 40" fill="none" xmlns="http://www.w3.org/2000/svg">
<path d="M38.2517 21.049L33.4964 22.0979C33.1466 22.1678 32.9371 22.4476 32.8673 22.7273C32.5175 24.1958 31.9583 25.5944 31.1882 26.8531C30.9794 27.1329 30.9794 27.4825 31.1882 27.7622L33.7763 31.8881L32.1677 33.4965L28.0421 30.9091C27.7621 30.6993 27.413 30.6993 27.1324 30.9091C25.8742 31.7483 24.4757 32.3077 23.0074 32.5874C22.6576 32.6573 22.4475 32.9371 22.377 33.2168L21.329 37.972H19.0906L18.0419 33.2168C17.9714 32.8671 17.6921 32.6573 17.4129 32.5874C15.9439 32.2378 14.5454 31.6783 13.2865 30.9091C13.0073 30.6993 12.6575 30.6993 12.3782 30.9091L8.25191 33.4965L6.64329 31.8881L9.23076 27.7622C9.44091 27.4825 9.44091 27.1329 9.23076 26.8531C8.39153 25.5944 7.8316 24.1958 7.55232 22.7273C7.48181 22.3776 7.20252 22.1678 6.92324 22.0979L2.02823 21.049V18.8112L6.7836 17.7622C7.13339 17.6923 7.34217 17.4126 7.41268 17.1329C7.76247 15.6643 8.32171 14.2657 9.09111 13.007C9.30058 12.7273 9.30058 12.3776 9.09111 12.0979L6.50294 7.97203L8.11227 6.36364L12.2372 8.95105C12.5178 9.16084 12.8677 9.16084 13.1469 8.95105C14.4058 8.18182 15.8042 7.55245 17.2732 7.2028C17.6223 7.13287 17.8318 6.85315 17.9023 6.57343L18.951 1.81818H21.1887L22.2374 6.57343C22.3079 6.92308 22.5872 7.13287 22.8671 7.2028C24.3354 7.55245 25.7346 8.11189 26.9927 8.95105C27.2727 9.16084 27.6218 9.16084 27.9025 8.95105L32.0274 6.36364L33.636 7.97203L31.0485 12.0979C30.8398 12.3776 30.8398 12.7273 31.0485 13.007C31.8878 14.2657 32.4477 15.6643 32.727 17.1329C32.7975 17.4825 33.0767 17.6923 33.3567 17.7622L38.1114 18.8112V21.049H38.2517ZM39.3004 17.2727L34.4054 16.1538C34.0556 14.8951 33.5662 13.6364 32.8673 12.5175L35.5246 8.25175C35.7348 7.9021 35.6643 7.48252 35.385 7.13287L32.7975 4.54546C32.5175 4.26574 32.0274 4.1958 31.6783 4.40559L27.413 7.13287C26.2931 6.43357 25.035 5.94406 23.7762 5.59441L22.6576 0.699303C22.5871 0.27972 22.2374 0 21.8184 0H18.1816C17.7626 0 17.4129 0.27972 17.3424 0.699303L16.2238 5.59441C14.965 5.94406 13.7062 6.43357 12.587 7.13287L8.32172 4.40559C7.97193 4.1958 7.55232 4.26574 7.20253 4.54546L4.61502 7.13287C4.33574 7.41259 4.26592 7.9021 4.47538 8.25175L7.1334 12.5175C6.43382 13.6364 5.9444 14.8951 5.59461 16.1538L0.699592 17.2727C0.27998 17.3427 0 17.6923 0 18.1119V21.7483C0 22.1678 0.27998 22.5175 0.699592 22.5874L5.59461 23.7063C5.9444 24.965 6.43382 26.2238 7.1334 27.3427L4.47538 31.6084C4.26592 31.958 4.33574 32.3776 4.61502 32.7273L7.20253 35.3147C7.4825 35.5944 7.97193 35.6643 8.32172 35.4545L12.587 32.7972C13.7062 33.4965 14.965 33.986 16.2238 34.3357L17.0631 38.1818H5.66441C5.17498 38.1818 4.75537 38.6014 4.75537 39.0909C4.75537 39.5804 5.17498 40 5.66441 40C7.27304 40 34.4752 40 35.385 40C35.8744 40 36.2933 39.5804 36.2933 39.0909C36.2933 38.6014 35.8744 38.1818 35.385 38.1818H23.0766L23.9158 34.3357C25.1746 33.986 26.4335 33.4965 27.5527 32.7972L31.8186 35.4545C32.1677 35.6643 32.5873 35.5944 32.9371 35.3147L35.5246 32.7273C35.8039 32.4476 35.8744 31.958 35.6643 31.6084L32.8673 27.3427C33.5662 26.2238 34.0556 24.965 34.4054 23.7063L39.3004 22.5874C39.72 22.5175 40 22.1678 40 21.7483V18.1119C40 17.6923 39.72 17.3427 39.3004 17.2727Z" fill="#581164"/>
<path d="M26.7834 20.7688H28.3927C28.2524 22.3772 27.5535 23.8458 26.6437 25.1045L25.4554 23.9157C25.1056 23.5661 24.5464 23.5661 24.1966 23.9157C23.8468 24.2654 23.8468 24.8248 24.1966 25.1744L25.3856 26.3633C24.1966 27.3423 22.6585 28.0416 21.0491 28.1814V26.5031C21.0491 26.0136 20.6302 25.594 20.1408 25.594C19.6513 25.594 19.2317 26.0136 19.2317 26.5031V28.1814C17.6231 28.0416 16.085 27.3423 14.896 26.3633L16.085 25.1744C16.4348 24.8248 16.4348 24.2654 16.085 23.9157C15.7352 23.5661 15.1753 23.5661 14.8262 23.9157L13.6371 25.1045C12.6583 23.9157 12.0292 22.3772 11.8191 20.7688H13.427C13.9164 20.7688 14.3367 20.3493 14.3367 19.8598C14.3367 19.3702 13.9164 18.9507 13.427 18.9507H11.8191C11.9587 17.3423 12.6583 15.8038 13.6371 14.615L14.7556 15.7339C15.1054 16.0835 15.6647 16.0835 16.0145 15.7339C16.3643 15.3842 16.3643 14.8248 16.0145 14.4751L14.896 13.3563C16.085 12.3772 17.5533 11.7479 19.2317 11.608V13.2164C19.2317 13.7059 19.6513 14.1255 20.1408 14.1255C20.6302 14.1255 21.0491 13.7059 21.0491 13.2164V11.608C22.6585 11.7479 24.1268 12.4472 25.3856 13.4262L24.2664 14.5451C23.9166 14.8947 23.9166 15.4542 24.2664 15.8038C24.6162 16.1535 25.1754 16.1535 25.5252 15.8038L26.6437 14.6849C27.6226 15.8737 28.2524 17.4122 28.4618 19.0206H26.7834C26.294 19.0206 25.875 19.4402 25.875 19.9297C25.875 20.4192 26.294 20.7688 26.7834 20.7688ZM20.1408 9.85976C14.616 9.85976 10.1406 14.3353 10.1406 19.9297C10.1406 25.4542 14.616 29.9297 20.2106 29.9297C25.7354 29.9297 30.2101 25.4542 30.2101 19.9297C30.141 14.4052 25.6649 9.85976 20.1408 9.85976Z" fill="#581164"/>
<path d="M22.6585 18.6714L20.6303 20.0001L18.5322 17.9022C18.1824 17.5525 17.6232 17.5525 17.2741 17.9022C16.9243 18.2518 16.9243 18.8112 17.2741 19.1609L19.9307 21.8182C20.2106 22.098 20.7001 22.1679 21.0492 21.9581L23.7072 20.2098C24.1268 19.9301 24.1966 19.3707 23.9166 19.021C23.5668 18.5315 23.0083 18.3917 22.6585 18.6714Z" fill="#581164"/>
<path d="M37.3405 38.2525C36.9907 38.6021 36.9907 39.1615 37.3405 39.5112C37.6903 39.8609 38.2495 39.8609 38.5993 39.5112C38.9491 39.1615 38.9491 38.6021 38.5993 38.2525C38.459 38.1126 37.6903 37.9028 37.3405 38.2525Z" fill="#581164"/>
<path d="M2.37953 38.2525C2.02974 38.6021 2.02974 39.1615 2.37953 39.5112C2.72932 39.8609 3.2879 39.8609 3.63769 39.5112C3.98748 39.1615 3.98748 38.6021 3.63769 38.2525C3.2879 37.9028 2.72932 37.9028 2.37953 38.2525Z" fill="#581164"/>
</svg>
