<svg width="33" height="32" viewBox="0 0 33 32" fill="none" xmlns="http://www.w3.org/2000/svg">
<path d="M25.263 30.4928H8.38235C7.79596 30.4928 7.26868 30.029 7.26868 29.3913C7.26868 28.7536 7.73744 28.2899 8.38235 28.2899C9.02668 28.2899 24.2084 28.2899 25.263 28.2899C25.8494 28.2899 26.3772 28.7536 26.3772 29.3913C26.3772 30.029 25.8494 30.4928 25.263 30.4928ZM15.3576 21.1014H18.2883V26.8986H15.3576V21.1014ZM3.51743 17.4493L6.79992 15.2464C9.31987 15.2464 18.8741 15.2464 20.5157 15.2464C21.7464 15.2464 22.743 16.2319 22.743 17.4493C22.743 18.6667 21.7464 19.6522 20.5157 19.6522C18.8156 19.6522 9.84774 19.6522 6.79992 19.6522L3.51743 17.4493ZM15.3576 12.4058H18.2883V13.8551H15.3576V12.4058ZM10.9614 8.75362C10.9614 7.53623 11.958 6.55072 13.1887 6.55072C15.1229 6.55072 26.4358 6.55072 26.9045 6.55072L30.187 8.75362L26.9045 10.9565C24.0908 10.9565 16.0025 10.9565 13.1887 10.9565C11.958 10.9565 10.9614 9.97101 10.9614 8.75362ZM15.3576 2.95652C15.3576 2.14493 16.0025 1.50725 16.823 1.50725C17.6434 1.50725 18.2883 2.14493 18.2883 2.95652V5.15942H15.3576V2.95652ZM25.263 26.8986H19.7537V21.1014H20.5157C22.5084 21.1014 24.2084 19.4783 24.2084 17.4493C24.2084 15.4203 22.5669 13.7971 20.5157 13.7971H19.7537V12.3478H27.0807C27.1977 12.3478 27.3733 12.2899 27.4909 12.2319L31.8871 9.33333C32.2973 9.04348 32.2973 8.4058 31.8871 8.11594L27.4909 5.21739C27.3733 5.15942 27.2562 5.10145 27.0807 5.10145H19.7537V2.89855C19.7537 1.27536 18.4639 0 16.823 0C15.182 0 13.8922 1.27536 13.8922 2.89855V5.10145H13.1302C11.137 5.10145 9.43692 6.72464 9.43692 8.75362C9.43692 10.7826 11.0785 12.4058 13.1302 12.4058H13.8922V13.8551H6.56526C6.44821 13.8551 6.27206 13.913 6.15501 13.971L1.75885 16.8696C1.34861 17.1594 1.34861 17.7971 1.75885 18.087L6.15501 20.9855C6.27206 21.0435 6.38911 21.1014 6.56526 21.1014H13.8922V26.8986H8.38235C6.97549 26.8986 5.80329 28.058 5.80329 29.4493C5.80329 30.8406 6.97549 32 8.38235 32H25.263C26.6699 32 27.8426 30.8406 27.8426 29.4493C27.8426 28.058 26.6699 26.8986 25.263 26.8986Z" fill="#FC4B3E"/>
<path d="M30.7731 23.2467C30.3628 23.2467 30.0106 22.8988 30.0106 22.493C30.0106 22.0872 30.3623 21.7394 30.7731 21.7394C31.1833 21.7394 31.535 22.0872 31.535 22.493C31.535 22.8988 31.1248 23.2467 30.7731 23.2467ZM30.7731 20.3481C29.5418 20.3481 28.5452 21.3336 28.5452 22.551C28.5452 23.7684 29.5418 24.7539 30.7731 24.7539C32.0038 24.7539 32.9999 23.7684 32.9999 22.551C32.9999 21.3336 31.9453 20.3481 30.7731 20.3481Z" fill="#FC4B3E"/>
<path d="M1.46539 5.85536C1.46539 5.04376 2.1103 4.40608 2.93078 4.40608C3.75126 4.40608 4.39616 5.04376 4.39616 5.85536C4.39616 6.66695 3.75126 7.30463 2.93078 7.30463C2.1103 7.30463 1.46539 6.66695 1.46539 5.85536ZM5.86155 5.85536C5.86155 4.23217 4.57173 2.9568 2.93078 2.9568C1.28924 2.9568 0 4.23217 0 5.85536C0 7.47854 1.28924 8.75391 2.93078 8.75391C4.57173 8.75391 5.86155 7.47854 5.86155 5.85536Z" fill="#FC4B3E"/>
</svg>
