<svg width="24" height="24" viewBox="0 0 24 24" fill="none" xmlns="http://www.w3.org/2000/svg">
<g clip-path="url(#clip0_6275_33043)">
<path d="M18.8519 15.8519L14.6999 11.6999L16.2959 10.1039L13.8959 7.70388L12.2999 9.29988L8.14787 5.14788C7.67987 4.67988 6.91187 4.67988 6.44387 5.14788L5.14787 6.44387C4.67988 6.91188 4.67988 7.67988 5.14787 8.14788L9.29987 12.2999L4.79988 16.7999V18.5999C4.79988 18.9359 5.06388 19.1999 5.39988 19.1999H7.19987L11.6999 14.6999L15.8519 18.8519C16.3199 19.3199 17.0759 19.3199 17.5439 18.8519L18.8399 17.5559C19.3199 17.0879 19.3199 16.3199 18.8519 15.8519ZM10.1519 11.4479L5.99987 7.29588L7.29587 5.99988L8.12387 6.82788L7.87187 7.07988C7.65587 7.29588 7.65587 7.65588 7.87187 7.88388C8.08787 8.09988 8.44787 8.09988 8.67587 7.88388L8.92788 7.63188L10.1999 8.90388L9.93587 9.14388C9.71987 9.35988 9.71987 9.71988 9.93587 9.94788C10.1519 10.1639 10.5119 10.1639 10.7399 9.94788L10.9919 9.69588L11.4479 10.1519L10.1519 11.4479ZM16.7039 17.9999L12.5519 13.8479L13.8479 12.5519L14.3279 13.0319L14.0759 13.2839C13.8599 13.4999 13.8599 13.8599 14.0759 14.0879C14.2919 14.3039 14.6519 14.3039 14.8799 14.0879L15.1319 13.8359L16.4039 15.1079L16.1519 15.3599C15.9359 15.5759 15.9359 15.9359 16.1519 16.1639C16.3679 16.3799 16.7279 16.3799 16.9559 16.1639L17.2079 15.9119L17.9999 16.7039L16.7039 17.9999Z" fill="#1E9E7A"/>
<path d="M18.7443 7.65617C18.9843 7.41617 18.9843 7.04417 18.7443 6.80417L17.1963 5.25617C16.9563 5.01617 16.5843 5.01617 16.3443 5.25617L14.7363 6.86417L17.1363 9.26417L18.7443 7.65617Z" fill="#1E9E7A"/>
</g>
<defs>
<clipPath id="clip0_6275_33043">
<rect width="24" height="24" fill="white"/>
</clipPath>
</defs>
</svg>
