<svg width="27" height="32" viewBox="0 0 27 32" fill="none" xmlns="http://www.w3.org/2000/svg">
<path fill-rule="evenodd" clip-rule="evenodd" d="M13.3928 16.9624C13.5914 16.9622 13.7846 17.0267 13.9431 17.1463C14.1016 17.2658 14.2168 17.4338 14.2712 17.6247C14.3256 17.8156 14.3163 18.0191 14.2446 18.2043C14.1729 18.3894 14.0427 18.5461 13.8739 18.6506C13.8009 18.6958 13.7457 18.7648 13.7175 18.8459C13.6893 18.927 13.69 19.0154 13.7192 19.0961L14.2135 20.4735H12.575L13.0689 19.0961C13.0975 19.0153 13.0978 18.9272 13.0697 18.8462C13.0416 18.7652 12.9868 18.6963 12.9142 18.6506C12.7456 18.5462 12.6156 18.3897 12.5438 18.2048C12.472 18.02 12.4625 17.8167 12.5166 17.6259C12.5707 17.4351 12.6855 17.2671 12.8436 17.1474C13.0017 17.0277 13.1945 16.9627 13.3928 16.9624ZM12.0417 21.2241H14.744C14.8042 21.2243 14.8636 21.21 14.9172 21.1825C14.9708 21.1549 15.017 21.1148 15.0518 21.0657C15.0867 21.0165 15.1092 20.9597 15.1175 20.9C15.1258 20.8404 15.1196 20.7796 15.0995 20.7228L14.5164 19.1004C14.7636 18.874 14.9366 18.5782 15.0128 18.2518C15.089 17.9253 15.0647 17.5835 14.9433 17.2711C14.8219 16.9587 14.6089 16.6903 14.3322 16.501C14.0556 16.3117 13.7282 16.2104 13.393 16.2104C13.0578 16.2104 12.7304 16.3117 12.4538 16.501C12.1772 16.6903 11.9642 16.9587 11.8427 17.2711C11.7213 17.5835 11.6971 17.9253 11.7732 18.2518C11.8494 18.5782 12.0224 18.874 12.2696 19.1004L11.6883 20.7228C11.6678 20.7793 11.6613 20.84 11.6693 20.8996C11.6773 20.9592 11.6995 21.016 11.7342 21.0652C11.7689 21.1141 11.8149 21.1541 11.8682 21.1817C11.9215 21.2094 11.9806 21.2239 12.0406 21.2241H12.0417ZM8.73786 15.3716V22.0643C8.73824 22.2639 8.81777 22.4552 8.95902 22.5962C9.10026 22.7373 9.29168 22.8166 9.49129 22.8166H17.2954C17.3944 22.8168 17.4925 22.7975 17.584 22.7598C17.6755 22.7221 17.7587 22.6667 17.8289 22.5969C17.899 22.527 17.9547 22.444 17.9927 22.3526C18.0308 22.2613 18.0505 22.1633 18.0506 22.0643V15.3716C18.0503 15.1721 17.9707 14.9808 17.8294 14.8399C17.6882 14.699 17.4968 14.6199 17.2972 14.62H9.49022C9.29068 14.6199 9.09926 14.699 8.958 14.8399C8.81673 14.9808 8.73717 15.1721 8.7368 15.3716H8.73786ZM13.3928 9.18277C14.2829 9.18371 15.1362 9.53759 15.7657 10.1668C16.3952 10.796 16.7494 11.6492 16.7507 12.5392V13.8694H10.0357V12.5392C10.037 11.6495 10.391 10.7965 11.0202 10.1673C11.6494 9.53814 12.5023 9.18409 13.3921 9.18277H13.3928ZM9.49022 23.5665H17.2954C17.6937 23.5662 18.0756 23.4079 18.3572 23.1262C18.6388 22.8445 18.7971 22.4626 18.7973 22.0643V15.3716C18.7971 15.0086 18.6654 14.6579 18.4266 14.3844C18.1878 14.111 17.8581 13.9332 17.4985 13.884V12.5392C17.4985 11.4501 17.0658 10.4055 16.2956 9.63537C15.5255 8.86521 14.4809 8.43254 13.3918 8.43254C12.3026 8.43254 11.258 8.86521 10.4879 9.63537C9.71774 10.4055 9.28507 11.4501 9.28507 12.5392V13.884C8.92586 13.9339 8.5968 14.1119 8.35851 14.3853C8.12022 14.6587 7.98876 15.009 7.98835 15.3716V22.0643C7.98891 22.4628 8.14756 22.8448 8.42947 23.1264C8.71138 23.408 9.09351 23.5663 9.492 23.5665H9.49022ZM2.74458 8.02578C2.72253 12.0194 2.72893 16.8994 4.02956 20.6613C5.44753 24.7647 8.42497 27.4581 13.3928 29.1306C18.3618 27.4595 21.3388 24.7647 22.7565 20.6613C24.0578 16.8994 24.0635 12.0212 24.0421 8.02578C20.1693 7.41417 16.5095 5.84828 13.3928 3.46931C10.2767 5.8486 6.61723 7.41453 2.74458 8.02578ZM13.2748 29.8816C13.3126 29.8942 13.3522 29.9005 13.3921 29.9004C13.4325 29.9006 13.4726 29.8942 13.5109 29.8816C18.7891 28.133 21.9522 25.28 23.4644 20.9066C24.8418 16.9243 24.8134 11.8093 24.7888 7.70116C24.7886 7.61112 24.7559 7.52419 24.6967 7.45633C24.6375 7.38847 24.5559 7.34423 24.4667 7.33173C20.5095 6.76257 16.771 5.16521 13.6243 2.69917C13.5582 2.64773 13.4769 2.6198 13.3932 2.6198C13.3095 2.6198 13.2281 2.64773 13.1621 2.69917C10.0147 5.16528 6.27536 6.76252 2.31755 7.33138C2.22848 7.34402 2.14694 7.38832 2.08785 7.45615C2.02876 7.52399 1.99608 7.61084 1.99577 7.7008C1.97266 11.8089 1.94386 16.9243 3.32058 20.9066C4.83277 25.28 7.9951 28.1333 13.2762 29.8819L13.2748 29.8816ZM0.75203 7.25102C0.72963 17.9935 0.709364 27.2753 13.3921 31.2324C26.0763 27.2753 26.056 17.9935 26.0333 7.25102C26.0333 6.91751 26.0333 6.58257 26.0333 6.24728C21.3489 5.87699 16.9121 3.99276 13.3928 0.879066C9.87427 3.99316 5.4379 5.87768 0.753808 6.24799C0.753808 6.58317 0.753808 6.91775 0.753808 7.25173L0.75203 7.25102ZM5.59758 27.9168C7.56559 29.6672 10.0801 30.9973 13.2833 31.9829C13.3185 31.9942 13.3552 32 13.3921 32C13.4295 32 13.4667 31.9943 13.5023 31.9829C16.7056 30.9973 19.2201 29.6672 21.1877 27.9168C22.9672 26.3349 24.3299 24.3392 25.1554 22.1059C26.8066 17.7972 26.7952 12.674 26.7835 7.2496C26.7821 6.8016 26.7821 6.35051 26.7835 5.89635C26.7831 5.80106 26.7465 5.70949 26.6812 5.64012C26.6158 5.57076 26.5266 5.52878 26.4315 5.52266C21.6757 5.22572 17.1643 3.31189 13.6456 0.0986161C13.5767 0.0351992 13.4865 0 13.3928 0C13.2992 0 13.2089 0.0351992 13.14 0.0986161C9.62171 3.31152 5.11089 5.22532 0.355583 5.52266C0.260464 5.52862 0.171181 5.57056 0.105868 5.63997C0.0405553 5.70938 0.00411027 5.80104 0.00393559 5.89635C0.00393559 6.35051 0.00322463 6.8016 0.0018024 7.2496C-0.0092199 12.674 -0.0205976 17.7972 1.62955 22.1059C2.45545 24.3391 3.81819 26.3347 5.59758 27.9168Z" fill="#1E9E7A"/>
</svg>
