<svg width="33" height="32" viewBox="0 0 33 32" fill="none" xmlns="http://www.w3.org/2000/svg">
<path d="M12.6631 10.4837C11.8817 10.4837 11.2686 11.0875 11.2686 11.8559C11.2686 12.6244 11.8817 13.2281 12.6631 13.2281C13.4439 13.2281 14.0571 12.6244 14.0571 11.8559C14.0571 11.1424 13.4439 10.4837 12.6631 10.4837Z" fill="#433CE7"/>
<path d="M4.68627 11.8557C5.74613 10.7031 7.08501 9.76996 8.59098 9.16619C7.47543 10.758 7.47543 12.8986 8.59098 14.4904C7.08501 13.9964 5.74613 13.0633 4.68627 11.8557ZM20.6398 11.8557C19.58 13.0084 18.2411 13.9415 16.7351 14.5453C17.8506 12.9535 17.8506 10.8128 16.7351 9.22108C18.2411 9.76996 19.58 10.7031 20.6398 11.8557ZM9.20472 11.8557C9.20472 9.98952 10.7669 8.39775 12.719 8.39775C14.6716 8.39775 16.2333 9.93463 16.2333 11.8557C16.2333 13.7219 14.6716 15.3137 12.719 15.3137C10.7669 15.3137 9.20472 13.7768 9.20472 11.8557ZM22.0906 12.2948C22.3134 12.0204 22.3134 11.6911 22.0906 11.4715C19.9152 8.72708 16.4009 7.08042 12.6633 7.08042C8.92567 7.08042 5.4114 8.72708 3.23544 11.4715C3.01266 11.7459 3.01266 12.0753 3.23544 12.2948C5.4114 15.0393 8.92567 16.6859 12.6633 16.6859C16.4009 16.6859 19.9152 15.0393 22.0906 12.2948Z" fill="#433CE7"/>
<path d="M27.2778 23.8765L30.9034 27.4443L28.449 29.8593L24.8233 26.2916L27.2778 23.8765ZM21.9228 24.8645C23.0389 23.7667 23.9311 22.8885 25.8275 21.0223L26.9987 22.175C25.0466 24.0961 24.2101 24.9194 23.094 26.0172L21.9228 24.8645ZM19.8588 21.4065C20.7515 20.7479 21.588 19.9245 22.3132 18.9914L24.0982 20.7479L21.6438 23.1629L19.8588 21.4065ZM12.6631 22.3945C6.75006 22.3945 2.0083 17.6741 2.0083 11.9108C2.0083 6.09262 6.80576 1.4271 12.6631 1.4271C15.5074 1.4271 18.1857 2.52487 20.1935 4.50086C24.2653 8.50772 24.4329 15.2041 20.1935 19.3756C18.2971 21.2419 15.6199 22.3945 12.6631 22.3945ZM32.0752 30.5729H29.6765L32.3543 27.9383C32.6333 27.6638 32.6333 27.2247 32.3543 26.9503L28.2819 22.9434L28.5052 22.7238C28.7843 22.4494 28.7843 22.0103 28.5052 21.7358L26.3293 19.5952C26.0508 19.3208 25.6047 19.3208 25.3257 19.5952L25.1023 19.8148L23.094 17.8388C24.3772 15.6981 24.9353 13.1732 24.6562 10.7033C24.0425 4.72041 18.9665 0 12.6631 0C5.96923 0 0.614258 5.32418 0.614258 11.8559C0.614258 18.4425 6.02493 23.7118 12.6631 23.7118C12.8859 23.7118 15.6199 23.8765 18.6875 22.1201L20.6958 24.0961L20.4168 24.3705C20.1378 24.6449 20.1378 25.084 20.4168 25.3585L22.5922 27.4991C22.8712 27.7736 23.3168 27.7736 23.5958 27.4991L23.8197 27.2796L27.1664 30.5729H4.18371C3.7933 30.5729 3.45912 30.9022 3.45912 31.2864C3.45912 31.6707 3.7933 32 4.18371 32H32.0752C32.4656 32 32.8004 31.6707 32.8004 31.2864C32.8004 30.8473 32.4656 30.5729 32.0752 30.5729Z" fill="#433CE7"/>
<path d="M13.2763 28.4865C13.2763 28.1022 12.9416 27.7729 12.5512 27.7729H0.725669C0.335253 27.7729 0 28.1022 0 28.4865C0 28.8707 0.335253 29.2 0.725669 29.2H12.6074C12.9416 29.2 13.2763 28.8707 13.2763 28.4865Z" fill="#433CE7"/>
<path d="M26.498 4.5012H28.6178V5.87341H26.498V4.5012Z" fill="#433CE7"/>
<path d="M28.6162 3.12779H30.7365V4.5H28.6162V3.12779Z" fill="#433CE7"/>
<path d="M26.498 7.24497H28.6178V8.61719H26.498V7.24497Z" fill="#433CE7"/>
<path d="M28.6162 5.87309H30.7365V7.2453H28.6162V5.87309Z" fill="#433CE7"/>
<path d="M26.498 9.99028H28.6178V11.3625H26.498V9.99028Z" fill="#433CE7"/>
<path d="M28.6162 8.61686H30.7365V9.98907H28.6162V8.61686Z" fill="#433CE7"/>
<path d="M26.498 12.734H28.6178V14.1063H26.498V12.734Z" fill="#433CE7"/>
<path d="M28.6162 11.3622H30.7365V12.7344H28.6162V11.3622Z" fill="#433CE7"/>
<path d="M26.498 15.4778H28.6178V16.85H26.498V15.4778Z" fill="#433CE7"/>
<path d="M28.6162 14.1059H30.7365V15.4781H28.6162V14.1059Z" fill="#433CE7"/>
</svg>
