<svg width="31" height="32" viewBox="0 0 31 32" fill="none" xmlns="http://www.w3.org/2000/svg">
<path d="M16.3264 9.35319C16.6013 9.0813 16.6013 8.64627 16.3264 8.37438C16.0517 8.10248 15.6119 8.10248 15.337 8.37438C15.0621 8.64627 15.0621 9.0813 15.337 9.35319C15.5019 9.51632 16.0517 9.62508 16.3264 9.35319Z" fill="#433CE7"/>
<path d="M28.2556 23.8721H2.14399C1.75891 23.8721 1.42905 23.5459 1.42905 23.1652C1.42905 22.7846 1.75891 22.4583 2.14399 22.4583C5.11246 22.4583 25.1771 22.4583 28.2556 22.4583C28.6404 22.4583 28.9702 22.7846 28.9702 23.1652C28.9702 23.5459 28.5855 23.8721 28.2556 23.8721ZM3.51826 6.85169H26.8813V8.21115H17.9207C17.536 8.21115 17.2061 8.53742 17.2061 8.91807C17.2061 9.29872 17.536 9.62499 17.9207 9.62499H26.8813V21.2076H3.51826V6.85169ZM1.42905 4.83969C1.42905 4.45904 1.75891 4.13276 2.14399 4.13276H13.8532C14.2378 4.13276 14.5677 3.80649 14.5677 3.42584V2.06638C14.5677 1.68573 14.8975 1.35946 15.2822 1.35946C15.667 1.35946 15.9969 1.68573 15.9969 2.06638V3.42584C15.9969 3.80649 16.3266 4.13276 16.7117 4.13276H28.4208C28.8056 4.13276 29.1354 4.45904 29.1354 4.83969C29.1354 5.22034 28.8056 5.54661 28.4208 5.54661C25.4521 5.54661 5.3871 5.54661 2.3087 5.54661C1.75891 5.49223 1.42905 5.16596 1.42905 4.83969ZM28.2556 21.1532V6.85169C29.4104 6.85169 30.3451 5.92726 30.3451 4.78531C30.3451 3.64336 29.3555 2.7733 28.2556 2.7733H17.261V2.06638C17.261 0.924435 16.3266 0 15.1724 0C14.0179 0 13.0834 0.924435 13.0834 2.06638V2.7733H2.08877C0.934421 2.7733 0 3.69774 0 4.83969C0 5.98163 0.934421 6.90607 2.08877 6.90607V21.2076C0.934421 21.2076 0 22.132 0 23.274C0 24.4159 0.934421 25.3404 2.08877 25.3404H13.688L9.12535 30.887C8.90542 31.1589 8.96036 31.5939 9.23528 31.8658C9.5102 32.0833 9.94978 32.0289 10.2247 31.757L14.5127 26.4823V30.6695C14.5127 31.0501 14.8426 31.3764 15.2274 31.3764C15.6121 31.3764 15.9419 31.0501 15.9419 30.6695V26.4823L20.2297 31.757C20.4498 32.0289 20.8895 32.0833 21.2193 31.8658C21.4943 31.6483 21.5492 31.2132 21.3291 30.887L16.7117 25.1772H28.3105C29.4653 25.1772 30.4 24.2528 30.4 23.1109C30.4 21.9689 29.3555 21.1532 28.2556 21.1532Z" fill="#433CE7"/>
<path d="M16.5475 18.4337C16.1626 18.4337 15.8328 18.1074 15.8328 17.7268C15.8328 17.3461 16.1626 17.0199 16.5475 17.0199C16.9319 17.0199 17.2618 17.3461 17.2618 17.7268C17.2618 18.1074 16.9319 18.4337 16.5475 18.4337ZM12.4245 11.6364C12.8093 11.6364 13.1389 11.9627 13.1389 12.3433C13.1389 12.724 12.8093 13.0502 12.4245 13.0502C12.0398 13.0502 11.7099 12.724 11.7099 12.3433C11.7099 11.9627 12.0398 11.6364 12.4245 11.6364ZM8.30163 18.4337C7.91677 18.4337 7.58686 18.1074 7.58686 17.7268C7.58686 17.3461 7.91677 17.0199 8.30163 17.0199C8.68627 17.0199 9.01612 17.3461 9.01612 17.7268C9.01612 18.1074 8.68627 18.4337 8.30163 18.4337ZM23.4188 10.9295H21.3848C21 10.9295 20.6701 11.2557 20.6701 11.6364C20.6701 12.017 21 12.3433 21.3848 12.3433H21.77L17.8666 16.2042C17.427 15.8235 16.8221 15.6604 16.2176 15.7692L14.0736 13.6484C14.3485 13.3221 14.5684 12.8327 14.5684 12.3433C14.5684 11.2014 13.634 10.2769 12.4794 10.2769C11.325 10.2769 10.3906 11.2014 10.3906 12.3433C10.3906 12.8871 10.6103 13.4309 10.9954 13.8115L9.34582 16.041C9.07112 15.8779 8.68626 15.7692 8.35635 15.7692C7.20222 15.7692 6.26758 16.6936 6.26758 17.8355C6.26758 18.9775 7.20222 19.9019 8.35635 19.9019C9.78584 19.9019 10.7753 18.4337 10.2805 17.1286C12.3145 14.4097 12.2595 14.5728 12.3145 14.4641C12.4794 14.4641 12.6993 14.4641 12.8641 14.4641L15.0081 16.5848C14.7331 16.9111 14.5134 17.4005 14.5134 17.8899C14.5134 19.0319 15.4481 19.9563 16.6023 19.9563C17.8666 19.9563 18.8562 18.8144 18.6366 17.5636L22.8145 13.4309V13.6484C22.8145 14.029 23.1444 14.3553 23.5291 14.3553C23.9139 14.3553 24.2437 14.029 24.2437 13.6484V11.6364C24.1334 11.2557 23.8036 10.9295 23.4188 10.9295Z" fill="#433CE7"/>
<path d="M2.80371 28.6031H5.55226V29.9625H2.80371V28.6031Z" fill="#433CE7"/>
<path d="M5.55273 27.2437H8.3015V28.6031H5.55273V27.2437Z" fill="#433CE7"/>
<path d="M22.7588 28.6031H25.5069V29.9625H22.7588V28.6031Z" fill="#433CE7"/>
<path d="M25.5078 27.2437H28.2565V28.6031H25.5078V27.2437Z" fill="#433CE7"/>
</svg>
