<svg width="31" height="32" viewBox="0 0 31 32" fill="none" xmlns="http://www.w3.org/2000/svg">
<path d="M14.9234 17.9922C15.3103 17.9922 15.6414 17.6626 15.6414 17.278C15.6414 16.8935 15.3103 16.6188 14.9234 16.6188C12.7121 16.6188 10.8882 14.8059 10.8882 12.6085C10.8882 12.2239 10.5566 11.8943 10.1697 11.8943C9.78284 11.8943 9.45117 12.2239 9.45117 12.6085C9.50636 15.575 11.9384 17.9922 14.9234 17.9922Z" fill="#433CE7"/>
<path d="M14.9243 8.54275C17.135 8.54275 18.959 10.3556 18.959 12.553C18.959 12.9376 19.2906 13.2672 19.6775 13.2672C20.0643 13.2672 20.3965 12.9376 20.3965 12.553C20.3965 9.58653 17.9645 7.16936 14.9795 7.16936C14.5926 7.16936 14.2609 7.49897 14.2609 7.88352C14.2057 8.26807 14.5374 8.54275 14.9243 8.54275Z" fill="#433CE7"/>
<path d="M14.924 5.84993C18.6827 5.84993 21.7224 8.87139 21.7224 12.607C21.7224 16.3426 18.6827 19.3641 14.924 19.3641C11.1652 19.3641 8.12557 16.3426 8.12557 12.607C8.12557 8.87139 11.1652 5.84993 14.924 5.84993ZM14.924 20.7375C19.4564 20.7375 23.1048 17.1117 23.1048 12.607C23.1048 8.10229 19.4564 4.47654 14.924 4.47654C10.3915 4.47654 6.74316 8.10229 6.74316 12.607C6.74316 17.0568 10.3915 20.7375 14.924 20.7375Z" fill="#433CE7"/>
<path d="M15.642 27.9348V25.0781C16.4163 24.9682 17.1348 24.5837 17.743 24.0343C17.9085 23.8695 18.1298 23.8146 18.3511 23.8695C18.9035 23.9794 19.5117 24.0343 20.0641 23.9245L22.441 30.1871L15.642 27.9348ZM9.83861 23.9245C10.3916 24.0343 10.9992 24.0343 11.5521 23.8695C11.7729 23.8146 11.9947 23.8695 12.1597 24.0343C12.7127 24.5288 13.4318 24.9133 14.2607 25.0781V27.9348L7.40653 30.1871L9.83861 23.9245ZM6.74321 19.3648C5.41708 18.9803 4.58761 17.6069 4.91928 16.2335C5.08484 15.5742 4.8641 14.8601 4.42151 14.3657C3.48223 13.3768 3.42704 11.7837 4.42151 10.7399C4.8641 10.2455 5.08484 9.53133 4.91928 8.8721C4.58761 7.49871 5.41708 6.12532 6.74321 5.74077C7.40655 5.52103 7.90377 5.02661 8.12561 4.36738C8.51247 2.99399 9.94952 2.22489 11.2757 2.55451C11.4969 2.60944 11.7729 2.60944 11.7182 2.60944C12.2155 2.60944 12.7127 2.44464 13.0996 2.06009C14.0946 1.12618 15.6977 1.12618 16.7479 2.06009C17.2452 2.55451 17.9642 2.71931 18.627 2.55451C19.9537 2.22489 21.3908 2.99399 21.7776 4.36738C21.9989 5.02661 22.4962 5.52103 23.1595 5.74077C24.4862 6.12532 25.3156 7.49871 24.9839 8.8721C24.8178 9.53133 25.0391 10.1906 25.4812 10.685C26.421 11.7288 26.421 13.267 25.4812 14.3107C25.0391 14.8051 24.8178 15.5193 24.9839 16.1236C25.3156 17.497 24.4862 18.8704 23.1595 19.2549C22.4962 19.4747 21.9989 19.9691 21.8334 20.5734C21.3356 22.1665 19.5669 22.8807 18.0746 22.1665C17.743 22.0017 17.4113 22.1116 17.1905 22.3863C16.3053 23.7047 14.4814 23.9245 13.2657 22.9906C13.0449 22.8258 12.8788 22.606 12.7127 22.3863C12.5466 22.1116 12.1597 22.0017 11.8286 22.1665C10.3364 22.8807 8.56711 22.1116 8.06988 20.5734C7.90377 20.079 7.40655 19.5845 6.74321 19.3648ZM21.2804 23.43C22.165 22.9356 22.7726 22.1116 23.1049 21.1227C23.1595 20.903 23.3256 20.7382 23.5464 20.6833C25.5916 20.079 26.8079 17.9914 26.3106 15.9039C26.2549 15.6841 26.3106 15.4644 26.4762 15.2996C27.9138 13.7614 27.9138 11.3442 26.4762 9.80601C26.3106 9.6412 26.2549 9.42146 26.3106 9.20172C26.8079 7.11416 25.5916 5.02661 23.5464 4.42232C23.3256 4.36738 23.1595 4.20258 23.1049 3.98283C22.4962 1.95021 20.3963 0.741631 18.2954 1.23605C18.0746 1.29099 17.8533 1.23605 17.6878 1.07125C16.1403 -0.357082 13.7077 -0.357082 12.1597 1.07125C11.9947 1.23605 11.7729 1.29099 11.5521 1.23605C9.45174 0.741631 7.35136 1.95021 6.74321 3.98283C6.68802 4.20258 6.52244 4.36738 6.30115 4.42232C4.25594 5.02661 3.04018 7.11416 3.53741 9.20172C3.5926 9.42146 3.53743 9.6412 3.37133 9.80601C1.93482 11.3442 1.93482 13.7614 3.37133 15.2996C3.53743 15.4644 3.5926 15.6841 3.53741 15.9039C3.04018 17.9914 4.25594 20.079 6.30115 20.6833C6.52244 20.7382 6.68802 20.903 6.74321 21.1227C7.01969 22.1116 7.68303 22.8807 8.56711 23.43L5.58263 31.0661C5.4717 31.3408 5.52745 31.6155 5.7482 31.7803C5.91431 32 6.19078 32.0549 6.46726 31.9451L14.9792 29.1433L23.3256 31.9451C23.8786 32.1099 24.3758 31.6155 24.2097 31.0661L21.2804 23.43Z" fill="#433CE7"/>
<path d="M2.10039 25.6826C1.71299 25.6826 1.38187 25.353 1.38187 24.9685C1.38187 24.5839 1.71299 24.2543 2.10039 24.2543C2.48725 24.2543 2.81891 24.5839 2.81891 24.9685C2.76373 25.353 2.43206 25.6826 2.10039 25.6826ZM2.10039 22.9359C0.939273 22.9359 0 23.8698 0 25.0234C0 26.1771 0.939273 27.111 2.10039 27.111C3.26096 27.111 4.20078 26.1771 4.20078 25.0234C4.20078 23.8698 3.20577 22.9359 2.10039 22.9359Z" fill="#433CE7"/>
<path d="M27.6373 29.8016C26.8631 29.8016 26.2549 29.1973 26.2549 28.4282C26.2549 27.6591 26.8631 27.0548 27.6373 27.0548C28.411 27.0548 29.0187 27.6591 29.0187 28.4282C29.0187 29.1973 28.411 29.8016 27.6373 29.8016ZM27.6373 25.6814C26.0893 25.6814 24.873 26.89 24.873 28.4282C24.873 29.9664 26.0893 31.175 27.6373 31.175C29.1847 31.175 30.4005 29.9664 30.4005 28.4282C30.4005 26.89 29.1847 25.6814 27.6373 25.6814Z" fill="#433CE7"/>
<path d="M14.9248 11.0135V15.2985H16.1958V9.91477H15.1456L13.6533 10.574L13.8741 11.5079L14.9248 11.0135Z" fill="#433CE7"/>
</svg>
