<svg width="32" height="32" viewBox="0 0 32 32" fill="none" xmlns="http://www.w3.org/2000/svg">
<path d="M30.6014 16.8392L26.7971 17.6783C26.5173 17.7343 26.3497 17.958 26.2938 18.1818C26.014 19.3566 25.5666 20.4755 24.9505 21.4825C24.7835 21.7063 24.7835 21.986 24.9505 22.2098L27.0211 25.5105L25.7342 26.7972L22.4337 24.7273C22.2097 24.5594 21.9304 24.5594 21.7059 24.7273C20.6994 25.3986 19.5806 25.8462 18.406 26.0699C18.1261 26.1259 17.958 26.3497 17.9016 26.5734L17.0632 30.3776H15.2725L14.4335 26.5734C14.3771 26.2937 14.1537 26.1259 13.9303 26.0699C12.7551 25.7902 11.6363 25.3427 10.6292 24.7273C10.4058 24.5594 10.126 24.5594 9.90257 24.7273L6.60153 26.7972L5.31463 25.5105L7.3846 22.2098C7.55273 21.986 7.55273 21.7063 7.3846 21.4825C6.71323 20.4755 6.26528 19.3566 6.04186 18.1818C5.98545 17.9021 5.76202 17.7343 5.5386 17.6783L1.62258 16.8392V15.049L5.42688 14.2098C5.70672 14.1538 5.87374 13.9301 5.93015 13.7063C6.20998 12.5315 6.65737 11.4126 7.27289 10.4056C7.44046 10.1818 7.44046 9.9021 7.27289 9.67832L5.20235 6.37762L6.48982 5.09091L9.78975 7.16084C10.0143 7.32867 10.2941 7.32867 10.5175 7.16084C11.5246 6.54545 12.6434 6.04196 13.8186 5.76224C14.0979 5.70629 14.2654 5.48252 14.3218 5.25874L15.1608 1.45455H16.9509L17.7899 5.25874C17.8463 5.53846 18.0697 5.70629 18.2937 5.76224C19.4683 6.04196 20.5877 6.48951 21.5942 7.16084C21.8181 7.32867 22.0974 7.32867 22.322 7.16084L25.6219 5.09091L26.9088 6.37762L24.8388 9.67832C24.6718 9.9021 24.6718 10.1818 24.8388 10.4056C25.5102 11.4126 25.9581 12.5315 26.1816 13.7063C26.238 13.986 26.4614 14.1538 26.6854 14.2098L30.4891 15.049V16.8392H30.6014ZM31.4403 13.8182L27.5243 12.9231C27.2445 11.9161 26.8529 10.9091 26.2938 10.014L28.4197 6.6014C28.5878 6.32168 28.5314 5.98601 28.308 5.70629L26.238 3.63636C26.014 3.41259 25.6219 3.35664 25.3426 3.52448L21.9304 5.70629C21.0345 5.14685 20.028 4.75525 19.0209 4.47552L18.1261 0.559441C18.0697 0.223776 17.7899 0 17.4548 0H14.5452C14.2101 0 13.9303 0.223776 13.8739 0.559441L12.9791 4.47552C11.972 4.75525 10.9649 5.14685 10.0696 5.70629L6.65738 3.52448C6.37754 3.35664 6.04186 3.41259 5.76202 3.63636L3.69202 5.70629C3.46859 5.93007 3.41274 6.32168 3.58031 6.6014L5.70672 10.014C5.14705 10.9091 4.75552 11.9161 4.47569 12.9231L0.559673 13.8182C0.223984 13.8741 0 14.1538 0 14.4895V17.3986C0 17.7343 0.223984 18.014 0.559673 18.0699L4.47569 18.965C4.75552 19.972 5.14705 20.979 5.70672 21.8741L3.58031 25.2867C3.41274 25.5664 3.46859 25.9021 3.69202 26.1818L5.76202 28.2517C5.986 28.4755 6.37754 28.5315 6.65738 28.3636L10.0696 26.2378C10.9649 26.7972 11.972 27.1888 12.9791 27.4685L13.6505 30.5455H4.53153C4.13998 30.5455 3.8043 30.8811 3.8043 31.2727C3.8043 31.6643 4.13998 32 4.53153 32C5.81843 32 27.5802 32 28.308 32C28.6995 32 29.0346 31.6643 29.0346 31.2727C29.0346 30.8811 28.6995 30.5455 28.308 30.5455H18.4613L19.1326 27.4685C20.1397 27.1888 21.1468 26.7972 22.0421 26.2378L25.4549 28.3636C25.7342 28.5315 26.0699 28.4755 26.3497 28.2517L28.4197 26.1818C28.6431 25.958 28.6995 25.5664 28.5314 25.2867L26.2938 21.8741C26.8529 20.979 27.2445 19.972 27.5243 18.965L31.4403 18.0699C31.776 18.014 32 17.7343 32 17.3986V14.4895C32 14.1538 31.776 13.8741 31.4403 13.8182Z" fill="#433CE7"/>
<path d="M21.4265 16.6147H22.714C22.6017 17.9014 22.0426 19.0762 21.3148 20.0832L20.3641 19.1322C20.0843 18.8524 19.6369 18.8524 19.3571 19.1322C19.0772 19.4119 19.0772 19.8594 19.3571 20.1392L20.3083 21.0902C19.3571 21.8734 18.1266 22.4329 16.8391 22.5448V21.2021C16.8391 20.8105 16.504 20.4748 16.1124 20.4748C15.7209 20.4748 15.3852 20.8105 15.3852 21.2021V22.5448C14.0983 22.4329 12.8678 21.8734 11.9166 21.0902L12.8678 20.1392C13.1476 19.8594 13.1476 19.4119 12.8678 19.1322C12.588 18.8524 12.14 18.8524 11.8607 19.1322L10.9095 20.0832C10.1264 19.1322 9.62317 17.9014 9.45505 16.6147H10.7414C11.1329 16.6147 11.4692 16.279 11.4692 15.8874C11.4692 15.4958 11.1329 15.1601 10.7414 15.1601H9.45505C9.56676 13.8734 10.1264 12.6427 10.9095 11.6916L11.8043 12.5867C12.0842 12.8664 12.5316 12.8664 12.8114 12.5867C13.0912 12.307 13.0912 11.8594 12.8114 11.5797L11.9166 10.6846C12.8678 9.9014 14.0424 9.3979 15.3852 9.28602V10.5727C15.3852 10.9643 15.7209 11.3 16.1124 11.3C16.504 11.3 16.8391 10.9643 16.8391 10.5727V9.28602C18.1266 9.3979 19.3012 9.95735 20.3083 10.7406L19.4129 11.6357C19.1331 11.9154 19.1331 12.3629 19.4129 12.6427C19.6928 12.9224 20.1402 12.9224 20.42 12.6427L21.3148 11.7476C22.0979 12.6986 22.6017 13.9294 22.7693 15.2161H21.4265C21.035 15.2161 20.6998 15.5518 20.6998 15.9434C20.6998 16.335 21.035 16.6147 21.4265 16.6147ZM16.1124 7.88741C11.6926 7.88741 8.1123 11.4678 8.1123 15.9434C8.1123 20.3629 11.6926 23.9434 16.1683 23.9434C20.5881 23.9434 24.1679 20.3629 24.1679 15.9434C24.1126 11.5238 20.5317 7.88741 16.1124 7.88741Z" fill="#433CE7"/>
<path d="M18.1258 14.9371L16.5032 16L14.8248 14.3217C14.5449 14.042 14.0976 14.042 13.8183 14.3217C13.5384 14.6014 13.5384 15.049 13.8183 15.3287L15.9436 17.4546C16.1675 17.6784 16.5591 17.7343 16.8384 17.5665L18.9648 16.1679C19.3005 15.9441 19.3563 15.4965 19.1323 15.2168C18.8525 14.8252 18.4056 14.7133 18.1258 14.9371Z" fill="#433CE7"/>
<path d="M29.8739 30.6016C29.5941 30.8813 29.5941 31.3288 29.8739 31.6086C30.1538 31.8883 30.6012 31.8883 30.881 31.6086C31.1608 31.3288 31.1608 30.8813 30.881 30.6016C30.7687 30.4897 30.1538 30.3219 29.8739 30.6016Z" fill="#433CE7"/>
<path d="M1.90323 30.6016C1.6234 30.8813 1.6234 31.3288 1.90323 31.6086C2.18307 31.8883 2.62993 31.8883 2.90976 31.6086C3.18959 31.3288 3.18959 30.8813 2.90976 30.6016C2.62993 30.3219 2.18307 30.3219 1.90323 30.6016Z" fill="#433CE7"/>
</svg>
