<svg width="66" height="66" viewBox="0 0 66 66" fill="none" xmlns="http://www.w3.org/2000/svg">
<path d="M66 33.0009C66 49.6677 53.6445 63.4461 37.5948 65.6827C36.0936 65.8917 34.5582 66 33 66C31.2005 66 29.4351 65.8556 27.7135 65.5782C12.0021 63.049 0 49.4245 0 32.999C0 14.7741 14.7746 0 33 0C51.2255 0 66 14.7741 66 32.999V33.0009Z" fill="#00B0F2"/>
<path d="M11.7028 31.5141C11.7959 31.4666 11.889 31.4229 11.9822 31.3811C13.5689 30.6457 15.1765 29.9579 16.7822 29.27C16.8696 29.27 17.016 29.1712 17.0958 29.1351C17.2193 29.0819 17.3428 29.0287 17.4682 28.9755C17.7058 28.8728 17.9452 28.7721 18.1827 28.6695C18.6597 28.4662 19.1348 28.261 19.6117 28.0576C20.5638 27.651 21.5177 27.2425 22.4697 26.8339C24.3757 26.0187 26.2817 25.2035 28.1876 24.3883C30.0936 23.5732 31.9996 22.758 33.9055 21.9428C35.8115 21.1276 37.7175 20.3124 39.6234 19.4972C41.5294 18.682 43.4353 17.8668 45.3413 17.0516C45.7651 16.8711 46.2249 16.5975 46.6772 16.5177C47.0592 16.4512 47.4316 16.3181 47.8136 16.2459C48.5414 16.1072 49.3452 16.0502 50.0426 16.3524C50.2839 16.4569 50.5043 16.6051 50.6925 16.7894C51.5761 17.6654 51.4526 19.1019 51.2664 20.3333C49.9628 28.9146 48.6592 37.4941 47.3537 46.0754C47.1751 47.2517 46.9337 48.5438 46.0026 49.2868C45.2159 49.9158 44.0966 49.988 43.1275 49.72C42.1565 49.4521 41.2995 48.8878 40.4595 48.331C36.9745 46.0241 33.4894 43.7154 30.0043 41.4085C29.1758 40.8594 28.2541 40.1449 28.2636 39.1511C28.2693 38.5525 28.6266 38.0186 28.9914 37.5435C32.0185 33.5949 36.3911 30.8795 39.6405 27.1113C40.0985 26.5812 40.4595 25.6197 39.8305 25.3137C39.4562 25.1313 39.0248 25.3783 38.6847 25.6159C34.3882 28.6011 30.0917 31.5863 25.7952 34.5697C24.3928 35.5426 22.9239 36.5459 21.2346 36.7853C19.7238 37 18.2017 36.5801 16.7385 36.1488C15.5128 35.7877 14.2891 35.4191 13.0691 35.0371C12.4211 34.8357 11.7522 34.6191 11.2506 34.1611C10.7489 33.7051 10.462 32.9374 10.7641 32.3293C10.9522 31.9474 11.3209 31.7061 11.7066 31.5103L11.7028 31.5141Z" fill="#FEFFFC"/>
</svg>
