<svg width="66" height="66" viewBox="0 0 66 66" fill="none" xmlns="http://www.w3.org/2000/svg">
<path d="M66 33.0009C66 49.6677 53.6445 63.4461 37.5948 65.6827C36.0936 65.8917 34.5582 66 33 66C31.2004 66 29.4351 65.8556 27.7135 65.5782C12.0021 63.049 0 49.4245 0 32.999C0 14.7741 14.7745 0 33 0C51.2254 0 66 14.7741 66 32.999V33.0009Z" fill="black"/>
<path d="M44.0098 55.3886H36.5322C29.7996 55.3886 24.781 51.9245 24.781 43.6377V30.3666H18.6621V23.18C25.3947 21.4318 28.211 15.6381 28.5359 10.6196H35.527V22.0152H43.6848V30.3666H35.527V41.9237C35.527 45.3878 37.2752 46.5849 40.0591 46.5849H44.0098V55.3905V55.3886Z" fill="white"/>
</svg>
