<svg width="66" height="66" viewBox="0 0 66 66" fill="none" xmlns="http://www.w3.org/2000/svg">
<path d="M66 33.0009C66 49.6677 53.6445 63.4461 37.5948 65.6827C36.0936 65.8917 34.5582 66 33 66C31.2005 66 29.4351 65.8556 27.7135 65.5782C12.0021 63.049 0 49.4245 0 32.999C0 14.7741 14.7746 0 33 0C51.2255 0 66 14.7741 66 32.999V33.0009Z" fill="black"/>
<path d="M49.9364 26.1301V32.435C48.8324 32.3286 47.4034 32.0778 45.8167 31.4963C43.7473 30.7381 42.2062 29.7006 41.199 28.8968V41.6434L41.1743 41.6035C41.1914 41.8562 41.199 42.1128 41.199 42.3731C41.199 48.7046 36.0493 53.8561 29.7157 53.8561C23.3821 53.8561 18.2324 48.7027 18.2324 42.3731C18.2324 36.0435 23.3821 30.8882 29.7157 30.8882C30.3352 30.8882 30.9433 30.9376 31.5381 31.0326V37.2482C30.9661 37.043 30.3542 36.9328 29.7157 36.9328C26.7171 36.9328 24.2753 39.3727 24.2753 42.3731C24.2753 45.3735 26.7171 47.8134 29.7157 47.8134C32.7143 47.8134 35.1562 45.3716 35.1562 42.3731C35.1562 42.261 35.1543 42.1489 35.1467 42.0368V17.2656H41.4499C41.4727 17.7996 41.4955 18.3373 41.5164 18.8713C41.5582 19.9221 41.9325 20.9311 42.5843 21.7577C43.3501 22.7287 44.4789 23.8575 46.0675 24.7582C47.5535 25.5999 48.9483 25.961 49.9364 26.132V26.1301Z" fill="#FF004F"/>
<path d="M47.7704 21.0119V27.3168C46.6664 27.2104 45.2374 26.9596 43.6506 26.3781C41.5813 25.62 40.0401 24.5824 39.033 23.7786V36.5253L39.0083 36.4854C39.0254 36.7381 39.033 36.9946 39.033 37.2549C39.033 43.5864 33.8833 48.7379 27.5497 48.7379C21.2161 48.7379 16.0664 43.5845 16.0664 37.2549C16.0664 30.9253 21.2161 25.7701 27.5497 25.7701C28.1692 25.7701 28.7773 25.8195 29.3721 25.9145V32.1301C28.8001 31.9249 28.1882 31.8146 27.5497 31.8146C24.5511 31.8146 22.1092 34.2545 22.1092 37.2549C22.1092 40.2554 24.5511 42.6952 27.5497 42.6952C30.5483 42.6952 32.9902 40.2535 32.9902 37.2549C32.9902 37.1428 32.9883 37.0307 32.9807 36.9186V12.1475H39.2838C39.3066 12.6814 39.3294 13.2192 39.3503 13.7531C39.3921 14.804 39.7665 15.813 40.4183 16.6396C41.1841 17.6106 42.3129 18.7393 43.9015 19.64C45.3875 20.4818 46.7823 20.8428 47.7704 21.0138V21.0119Z" fill="#00F7EF"/>
<path d="M49.1493 23.7688V30.0737C48.0453 29.9673 46.6163 29.7164 45.0295 29.135C42.9602 28.3768 41.4191 27.3393 40.4119 26.5355V39.2821L40.3872 39.2422C40.4043 39.4949 40.4119 39.7514 40.4119 40.0118C40.4119 46.3433 35.2622 51.4947 28.9286 51.4947C22.595 51.4947 17.4453 46.3414 17.4453 40.0118C17.4453 33.6822 22.595 28.5269 28.9286 28.5269C29.5481 28.5269 30.1562 28.5763 30.7509 28.6713V34.8869C30.179 34.6817 29.5671 34.5715 28.9286 34.5715C25.93 34.5715 23.4881 37.0113 23.4881 40.0118C23.4881 43.0122 25.93 45.4521 28.9286 45.4521C31.9272 45.4521 34.3691 43.0103 34.3691 40.0118C34.3691 39.8997 34.3672 39.7875 34.3596 39.6754V14.9043H40.6627C40.6855 15.4383 40.7083 15.976 40.7292 16.51C40.771 17.5608 41.1454 18.5698 41.7972 19.3964C42.563 20.3674 43.6918 21.4961 45.2804 22.3968C46.7664 23.2386 48.1612 23.5997 49.1493 23.7707V23.7688Z" fill="white"/>
</svg>
