<svg width="52" height="50" viewBox="0 0 52 50" fill="none" xmlns="http://www.w3.org/2000/svg">
<path d="M43.0995 3.53845C45.0148 3.53845 46.5662 5.08953 46.5662 7.00361C46.5662 8.91863 45.0148 10.4697 43.0995 10.4697C41.1851 10.4697 39.6328 8.91863 39.6328 7.00361C39.6328 5.08953 41.1851 3.53845 43.0995 3.53845Z" fill="#676879"/>
<path d="M7.964 39.7928C9.5561 39.7928 10.8676 41.104 10.8676 42.6968C10.8676 44.2896 9.5561 45.6008 7.964 45.6008C6.37097 45.6008 5.05859 44.2896 5.05859 42.6968C5.05859 41.104 6.37097 39.7928 7.964 39.7928Z" fill="#676879"/>
<path d="M49.7503 29.299C51.0627 30.6112 51.0627 32.7651 49.7503 34.0763L35.5094 48.4093C34.198 49.7205 32.0437 49.7205 30.7313 48.4093L28.9512 46.6285L47.9702 27.6127L49.7503 29.299Z" fill="white"/>
<path d="M11.9929 10.6573C10.8686 11.7815 10.8686 13.654 11.9929 14.7791C13.1173 15.9033 14.9919 15.9033 16.1154 14.7791C17.2397 13.654 17.2397 11.7815 16.1154 10.6573C14.9919 9.43963 13.1173 9.43963 11.9929 10.6573ZM8.24564 6.90977C13.4924 1.66386 22.0188 1.66386 27.2647 6.90977L47.9703 27.6119L28.9513 46.6277L8.24564 25.9256C2.99885 20.6797 2.99885 12.1557 8.24564 6.90977Z" fill="white"/>
<path d="M49.4691 20.4931C49.6562 20.9617 49.4691 21.4302 49.0006 21.6173C48.532 21.8044 48.0643 21.6173 47.8764 21.1487C47.6893 20.6802 47.8764 20.2125 48.3449 20.0245C48.8135 19.8375 49.2821 20.0245 49.4691 20.4931Z" fill="#676879"/>
<path d="M46.5657 46.1649C46.8463 46.539 46.6592 47.1011 46.2851 47.3826C45.9092 47.6632 45.348 47.4762 45.0665 47.1011C44.7859 46.727 44.9739 46.1649 45.348 45.8834C45.7221 45.6028 46.2851 45.6964 46.5657 46.1649Z" fill="#676879"/>
<path d="M34.2921 30.6124C34.2921 30.3309 34.2921 30.0503 34.1986 29.7688C34.105 29.4882 33.917 29.2067 33.7299 29.0196C33.4484 28.7381 33.2613 28.6446 32.9807 28.5511C32.7 28.4575 32.4185 28.4576 32.1369 28.4576C31.8563 28.4576 31.5757 28.5511 31.2941 28.7381C31.0125 28.8316 30.8254 29.0197 30.6384 29.3002C30.4513 29.4882 30.2642 29.7688 30.0762 30.0503C29.9826 30.3309 29.8891 30.6124 29.7955 30.893C29.7011 31.1736 29.7955 31.4551 29.8891 31.7357C29.9826 32.0172 30.1697 32.2977 30.3568 32.4848C30.6384 32.7663 30.8255 32.8598 31.107 32.9534C31.3886 33.0469 31.6683 33.0469 31.9498 33.0469C32.2314 33.0469 32.5129 32.9534 32.7926 32.7663C33.0742 32.5793 33.2613 32.4848 33.4484 32.2042C33.6364 32.0172 33.8244 31.7357 34.0115 31.4551C34.1986 31.1736 34.2921 30.893 34.2921 30.6124ZM35.6981 29.3002C35.8851 29.7688 35.9787 30.3309 35.8851 30.7995C35.8851 31.268 35.6981 31.8292 35.5101 32.2042C35.323 32.6728 35.0414 33.0469 34.6672 33.4219C34.2921 33.797 33.917 34.0776 33.4484 34.2655C32.9807 34.4526 32.5129 34.5461 31.9498 34.5461C31.4812 34.5461 30.9199 34.4526 30.4513 34.2655C29.9826 34.0776 29.514 33.797 29.1398 33.4219C28.7647 33.0469 28.4841 32.5792 28.2961 32.1107C28.109 31.6421 28.0154 31.08 28.109 30.6124C28.109 30.1438 28.2025 29.6753 28.4841 29.2067C28.6712 28.7381 28.9518 28.364 29.3269 27.989C29.7011 27.6139 30.0762 27.3334 30.5448 27.1454C31.0125 26.9583 31.4812 26.8648 32.0443 26.8648C32.6056 26.8648 33.0742 26.9583 33.5429 27.1454C34.0115 27.3334 34.4801 27.6139 34.8543 27.989C35.2294 28.364 35.6045 28.7382 35.6981 29.3002Z" fill="#676879"/>
<path d="M33.7289 2.32074C33.9159 2.78838 33.7289 3.25696 33.2603 3.44494C32.7918 3.63199 32.3232 3.44493 32.1361 2.97637C31.9491 2.5078 32.1361 2.03922 32.6047 1.85216C32.9797 1.66418 33.5418 1.85217 33.7289 2.32074Z" fill="#676879"/>
<path d="M27.8265 20.9626L31.6673 24.8037L30.5439 25.9269L28.0145 23.398L26.9836 24.4287L29.1389 26.5826L28.108 27.6133L25.9528 25.4593L24.7349 26.677L27.3578 29.206L26.2334 30.3302L22.3926 26.4891L27.8265 20.9626Z" fill="#676879"/>
<path d="M26.4209 20.5891L24.8279 21.0577C24.8279 21.0577 24.8279 20.9641 24.8279 20.7771C24.8279 20.5891 24.7344 20.4956 24.6408 20.215C24.5463 20.027 24.4528 19.84 24.3593 19.5594C24.2657 19.3714 24.0786 19.1844 23.8906 18.9973C23.4229 18.5287 23.0478 18.4352 22.7672 18.8093C22.6736 18.9028 22.5791 18.9973 22.5791 19.0908C22.5791 19.1843 22.5791 19.3714 22.6736 19.4649C22.6736 19.6529 22.7672 19.7464 22.8607 19.9335C22.9542 20.1205 23.0478 20.3085 23.2349 20.5891C23.4229 20.9642 23.61 21.2457 23.7035 21.5263C23.7971 21.8068 23.8906 22.0883 23.8906 22.3699C23.8906 22.6504 23.8906 22.932 23.7971 23.2125C23.7035 23.4941 23.5164 23.7746 23.2349 23.9617C22.9543 24.2432 22.5791 24.4303 22.2985 24.6173C21.9234 24.7108 21.6428 24.7108 21.3622 24.7108C21.0806 24.6173 20.7055 24.5238 20.4249 24.3367C20.1433 24.1496 19.8627 23.9617 19.5811 23.6811C19.394 23.4941 19.206 23.2125 19.0189 23.0255C18.8318 22.744 18.6447 22.5569 18.5503 22.2754C18.3632 21.9948 18.2696 21.7133 18.1761 21.4327C18.0825 21.1512 17.9881 20.8706 17.8945 20.5891L19.5811 20.027C19.5811 20.027 19.5811 20.215 19.6746 20.4021C19.6746 20.5891 19.7691 20.7771 19.8627 21.0577C19.9562 21.3392 20.0497 21.5262 20.2368 21.8068C20.4249 22.0883 20.6119 22.2754 20.799 22.5569C21.2677 23.0255 21.6428 23.119 21.9234 22.8375C22.0179 22.7439 22.1114 22.6504 22.1114 22.4634C22.1114 22.3698 22.1114 22.1818 22.0179 21.9948C21.9234 21.8068 21.8299 21.6198 21.7363 21.4327C21.6428 21.2457 21.4557 20.9641 21.3622 20.7771C21.1741 20.402 21.0806 20.1205 20.987 19.8399C20.8935 19.5594 20.799 19.2779 20.799 19.0908C20.799 18.8093 20.799 18.6222 20.8935 18.4352C20.987 18.2472 21.1741 17.9666 21.3622 17.7795C21.6428 17.498 21.9234 17.311 22.2985 17.2175C22.6736 17.1239 22.9543 17.0304 23.3294 17.124C23.7035 17.124 23.9851 17.2175 24.3593 17.4045C24.6408 17.5916 25.015 17.7796 25.2966 18.0602C25.4836 18.2472 25.6707 18.4352 25.7652 18.7158C25.8587 18.9973 26.0458 19.1844 26.1394 19.3714C26.2329 19.5594 26.3274 19.8399 26.4209 20.027C26.5145 20.215 26.3274 20.4021 26.4209 20.5891Z" fill="#676879"/>
<path d="M20.2367 47.943C20.4247 48.4115 20.2367 48.8801 19.769 49.0671C19.3005 49.2542 18.8319 49.0671 18.6439 48.5986C18.4569 48.13 18.6439 47.6615 19.1125 47.4744C19.4875 47.2873 20.0496 47.5679 20.2367 47.943Z" fill="#676879"/>
<path d="M14.9915 11.7825C15.4592 12.2502 15.4592 13.0938 14.9915 13.5614C14.523 14.03 13.6794 14.03 13.2108 13.5614C12.7422 13.0938 12.7422 12.2502 13.2108 11.7825C13.6794 11.314 14.4294 11.314 14.9915 11.7825Z" fill="#676879"/>
<path d="M9.08866 0.540228C9.27572 1.00879 9.08865 1.47733 8.62009 1.66438C8.15152 1.85237 7.68294 1.66442 7.49589 1.19586C7.3079 0.728217 7.49589 0.259638 7.96446 0.0716561C8.4321 -0.1154 8.90068 0.0716615 9.08866 0.540228Z" fill="#676879"/>
<path d="M4.40373 31.5478C4.59171 32.0164 4.40372 32.484 3.93608 32.672C3.46751 32.859 2.99896 32.672 2.8119 32.2034C2.62485 31.7349 2.81188 31.2672 3.28045 31.0792C3.74809 30.8922 4.21667 31.1727 4.40373 31.5478Z" fill="#676879"/>
<path d="M17.8016 3.5388C14.335 3.5388 11.1499 4.85004 8.71401 7.28547C6.27817 9.72091 4.96578 12.9055 4.96578 16.3716C4.96578 19.8377 6.27817 23.0232 8.71401 25.4586L31.1997 47.9406C31.7619 48.5027 32.4177 48.7842 33.1679 48.7842C33.9162 48.7842 34.5719 48.5027 35.1351 47.9406L49.376 33.7021C49.9381 33.14 50.2188 32.4834 50.2188 31.7343C50.2188 30.9851 49.9381 30.3295 49.376 29.7674L47.5959 27.9876L26.8902 7.28547C24.4535 4.85004 21.1748 3.5388 17.8016 3.5388ZM33.0734 50.001C32.0435 50.001 31.0117 49.6268 30.2634 48.8777L7.77671 26.3948C5.15378 23.7723 3.6543 20.2127 3.6543 16.4661C3.6543 12.7184 5.15378 9.1588 7.77671 6.53539C10.4006 3.9129 13.9608 2.4146 17.7081 2.4146C21.4563 2.4146 25.0156 3.9129 27.6395 6.53539L48.3451 27.2385L50.1252 29.0182C50.8754 29.7674 51.2496 30.7981 51.2496 31.8278C51.2496 32.8585 50.8754 33.8891 50.1252 34.6383L35.8843 48.7842C35.135 49.5333 34.1978 50.001 33.0734 50.001Z" fill="#676879"/>
<path d="M14.0548 10.3787C13.399 10.3787 12.8369 10.6603 12.3682 11.0344C11.4309 11.9715 11.4309 13.4698 12.3682 14.3134C12.8369 14.782 13.399 14.9691 14.0548 14.9691C14.7105 14.9691 15.2727 14.6875 15.7413 14.3134C16.6777 13.3763 16.6777 11.878 15.7413 11.0344C15.2727 10.5667 14.7105 10.3787 14.0548 10.3787ZM14.0548 16.1868C13.1175 16.1868 12.2747 15.8127 11.5245 15.1561C10.1195 13.7513 10.1195 11.5965 11.5245 10.1917C12.1802 9.53607 13.0239 9.16104 14.0548 9.16104C14.9921 9.16104 15.8349 9.53607 16.5842 10.1917C17.9892 11.5965 17.9892 13.7513 16.5842 15.1561C15.8349 15.8127 14.9921 16.1868 14.0548 16.1868Z" fill="#676879"/>
<path d="M11.9929 11.2202C11.8058 11.2202 11.7122 11.1267 11.6187 11.0322L4.96596 4.38154C4.31023 3.72592 3.18677 3.72592 2.43656 4.38154C2.06239 4.75658 1.96884 5.13068 1.96884 5.59925C1.96884 6.06782 2.15593 6.53545 2.43656 6.81696L3.65448 8.03467C3.84249 8.22172 3.84249 8.59679 3.65448 8.8783C3.46739 9.06536 3.0923 9.06536 2.81167 8.8783L1.59373 7.65965C1.03155 7.09755 0.75 6.3484 0.75 5.59925C0.75 4.8501 1.03155 4.10095 1.59373 3.53886C2.71811 2.41467 4.59177 2.41467 5.71522 3.53886L12.368 10.1895C12.555 10.3766 12.555 10.7516 12.368 11.0322C12.2744 11.1267 12.0864 11.2202 11.9929 11.2202Z" fill="#676879"/>
<path d="M28.9507 47.1913C28.7636 47.1913 28.6701 47.0968 28.5766 47.0033C28.3885 46.8163 28.3885 46.4412 28.5766 46.1606L47.5956 27.1439C47.7827 26.9568 48.1569 26.9568 48.4384 27.1439C48.6255 27.3319 48.6255 27.706 48.4384 27.9875L29.3258 47.0033C29.2323 47.1913 29.1388 47.1913 28.9507 47.1913Z" fill="#676879"/>
<path d="M43.099 4.10244C41.5069 4.10244 40.1954 5.4137 40.1954 7.00553C40.1954 8.59828 41.5069 9.90952 43.099 9.90952C44.692 9.90952 46.0035 8.59828 46.0035 7.00553C46.0979 5.4137 44.7855 4.10244 43.099 4.10244ZM43.099 11.1282C40.8511 11.1282 38.9766 9.25391 38.9766 7.00553C38.9766 4.75808 40.8511 2.88383 43.099 2.88383C45.3477 2.88383 47.2214 4.75808 47.2214 7.00553C47.2214 9.34836 45.3477 11.1282 43.099 11.1282Z" fill="white"/>
<path d="M7.96544 40.4458C6.65305 40.4458 5.62221 41.4765 5.62221 42.7877C5.62221 44.099 6.65305 45.1296 7.96544 45.1296C9.27691 45.1296 10.3077 44.099 10.3077 42.7877C10.3077 41.4765 9.27691 40.4458 7.96544 40.4458ZM7.96544 46.2538C5.99732 46.2538 4.4043 44.661 4.4043 42.6942C4.4043 40.7264 5.99732 39.1345 7.96544 39.1345C9.93264 39.1345 11.4312 40.7264 11.4312 42.6942C11.5247 44.661 9.93264 46.2538 7.96544 46.2538Z" fill="white"/>
</svg>
