<svg width="51" height="50" viewBox="0 0 51 50" fill="none" xmlns="http://www.w3.org/2000/svg">
<path d="M44.6191 36.471C46.4691 36.471 47.9686 37.9777 47.9686 39.8343C47.9686 41.6909 46.4691 43.1965 44.6191 43.1965C42.77 43.1965 41.2715 41.6909 41.2715 39.8343C41.2715 37.9777 42.77 36.471 44.6191 36.471Z" fill="white"/>
<path d="M4.92382 8.58117C7.31717 8.58117 9.25874 10.5297 9.25874 12.9329C9.25874 15.336 7.31717 17.2845 4.92382 17.2845C2.53046 17.2845 0.589844 15.336 0.589844 12.9329C0.589844 10.5297 2.53046 8.58117 4.92382 8.58117Z" fill="white"/>
<path d="M32.898 32.4173C30.4355 34.6923 27.0861 35.4842 24.0326 34.8898C23.1466 34.6923 22.2595 34.3951 21.4728 33.9014C20.6841 33.4067 19.8954 32.912 19.206 32.2198C17.8273 30.8355 16.9412 29.0552 16.5469 27.2749L21.9645 21.8362C22.0628 21.7364 22.1621 21.6377 22.2595 21.539C21.3734 22.5283 20.9801 23.813 20.9801 25.0996C20.9801 26.4839 21.4727 27.8683 22.5555 28.9564C24.5253 30.9342 27.7754 31.033 29.8435 29.2536C29.9428 29.1539 30.0412 29.0552 30.1395 28.9564L35.5561 23.5177L43.1412 15.9008C44.2249 14.8137 44.7176 13.4293 44.7176 12.044C44.7176 10.6596 44.2249 9.27525 43.1412 8.1881C41.0721 6.11058 37.6252 6.11058 35.5561 8.1881L27.9721 15.8031C24.9196 15.1109 21.5701 15.9008 19.1086 18.2746C19.206 18.1768 19.3054 18.0771 19.4037 17.9783L32.4053 4.92372C34.3751 2.94593 36.9359 1.95751 39.4967 1.95751C42.0575 1.95751 44.6182 2.94593 46.589 4.92372C50.5285 8.88029 50.5285 15.2086 46.589 19.0665L33.193 32.1211C33.0947 32.2198 32.9963 32.3186 32.898 32.4173Z" fill="#676879"/>
<path d="M35.263 23.4177L29.9437 28.8564C29.8444 28.9561 29.747 29.0549 29.6477 29.1536C30.5347 28.1642 30.9291 26.8796 30.9291 25.594C30.9291 24.2096 30.4364 22.8243 29.3527 21.7361C27.3829 19.7583 24.1318 19.6596 22.0637 21.4399C21.9654 21.5386 21.867 21.6374 21.7677 21.7361L16.3511 27.1758L8.76706 34.7908C7.68334 35.8789 7.19162 37.2632 7.19162 38.6476C7.19162 40.032 7.68334 41.4173 8.76706 42.5044C10.8352 44.581 14.283 44.581 16.3511 42.5044L23.9351 34.8895C26.9886 35.5817 30.3371 34.7908 32.7995 32.417C32.7012 32.5167 32.6029 32.6155 32.5045 32.7142L19.6013 45.6701C17.6315 47.6479 15.0697 48.6373 12.5099 48.6373C9.9491 48.6373 7.38828 47.6479 5.41754 45.6701C1.47801 41.7135 1.47801 35.3842 5.41754 31.5274L18.4192 18.4727C18.5175 18.374 18.6169 18.2743 18.7152 18.1765C21.1776 15.9005 24.5262 15.1106 27.5796 15.703C28.4657 15.9005 29.3527 16.1977 30.1404 16.6924C30.9291 17.1871 31.7168 17.6818 32.4062 18.374C33.9816 19.9558 34.8676 21.6374 35.263 23.4177Z" fill="white"/>
<path d="M50.924 24.1106C51.1207 24.6053 50.924 25.1 50.4313 25.2975C49.9386 25.495 49.4459 25.2975 49.2492 24.8028C49.0525 24.3081 49.2492 23.8134 49.7419 23.6159C50.2346 23.4184 50.7273 23.6159 50.924 24.1106Z" fill="#676879"/>
<path d="M38.1187 47.5483C38.3154 48.042 38.1187 48.5367 37.626 48.7342C37.1343 48.9327 36.6416 48.7342 36.4449 48.2405C36.2473 47.7458 36.445 47.2511 36.9367 47.0536C37.331 46.8561 37.922 47.0536 38.1187 47.5483Z" fill="#676879"/>
<path d="M27.5783 0.56984C27.775 1.06455 27.5783 1.55827 27.0856 1.75674C26.5929 1.95521 26.1002 1.75676 25.9035 1.26205C25.7068 0.768318 25.9035 0.273596 26.3962 0.0761036C26.8889 -0.122367 27.3816 0.0761083 27.5783 0.56984Z" fill="#676879"/>
<path d="M13.9865 2.35314C14.1832 2.84784 13.9865 3.34257 13.4938 3.54006C13.0011 3.73755 12.5093 3.54005 12.3117 3.04535C12.115 2.55064 12.3117 2.05591 12.8044 1.85842C13.2971 1.66093 13.7898 1.85843 13.9865 2.35314Z" fill="#676879"/>
<path d="M2.95522 48.7363C3.15288 49.231 2.95521 49.7257 2.46252 49.9232C1.96983 50.1207 1.47809 49.9232 1.28043 49.4285C1.08374 48.9348 1.28044 48.4401 1.77313 48.2426C2.26582 48.0441 2.75853 48.2426 2.95522 48.7363Z" fill="#676879"/>
<path d="M2.36342 24.0129C2.56011 24.5067 2.36342 25.0014 1.87072 25.1998C1.37803 25.3973 0.885323 25.1999 0.688635 24.7052C0.491947 24.2114 0.688641 23.7167 1.18133 23.5192C1.67403 23.3198 2.16576 23.5192 2.36342 24.0129Z" fill="#676879"/>
<path d="M23.9346 35.387H23.8363C22.8519 35.1895 21.9648 34.7935 21.0778 34.3975C20.1917 33.9038 19.404 33.3103 18.6163 32.5194C17.1382 31.0353 16.1538 29.2559 15.7594 27.2771C15.6611 26.9808 15.8578 26.5848 16.2521 26.5848C16.5472 26.4861 16.9415 26.6836 16.9415 27.0796C17.3359 28.8589 18.2219 30.4428 19.5023 31.7275C20.1917 32.4197 20.8811 32.9144 21.6698 33.3104C22.4566 33.7053 23.2452 34.0025 24.1313 34.2C24.4273 34.2998 24.7224 34.596 24.624 34.8922C24.5257 35.1895 24.2306 35.387 23.9346 35.387Z" fill="#676879"/>
<path d="M26.1015 31.0316C24.5261 31.0316 23.049 30.4391 21.8669 29.2522C20.7832 28.163 20.0938 26.5811 20.0938 24.9983C20.0938 23.5161 20.5855 22.1307 21.5709 21.0425C21.7676 20.7453 22.1629 20.7453 22.4569 20.9438C22.7529 21.1422 22.7529 21.5372 22.5562 21.8344C21.7675 22.7241 21.3742 23.8113 21.3742 24.9983C21.3742 26.2849 21.8669 27.4708 22.7529 28.3615C24.526 30.1419 27.3829 30.2396 29.2543 28.559C29.5504 28.3615 29.9437 28.3615 30.1404 28.6577C30.3371 28.9549 30.3371 29.3499 30.0421 29.5474C28.86 30.5368 27.4812 31.0316 26.1015 31.0316Z" fill="#676879"/>
<path d="M35.2617 24.0116C35.0651 24.0116 34.9658 23.9128 34.8665 23.8131C34.6698 23.6156 34.6698 23.2207 34.8665 22.9234L42.4516 15.3082C43.3386 14.4185 43.8303 13.2306 43.8303 11.946C43.8303 10.6593 43.3386 9.47241 42.4516 8.58271C41.5645 7.69301 40.3825 7.19831 39.103 7.19831C37.8226 7.19831 36.6405 7.69301 35.7544 8.58271L28.1693 16.1979C27.9716 16.3954 27.5783 16.3954 27.2823 16.1979C27.0856 16.0004 27.0856 15.6054 27.2823 15.3082L34.8665 7.69303C35.9512 6.60486 37.5266 5.91266 39.103 5.91266C40.6785 5.91266 42.1565 6.50612 43.3386 7.69303C44.4214 8.78022 45.1108 10.3621 45.1108 11.946C45.1108 13.5279 44.5197 15.011 43.3386 16.1979L35.7544 23.8131C35.6551 24.0116 35.4584 24.0116 35.2617 24.0116Z" fill="#676879"/>
<path d="M32.8982 33.0126C32.7006 33.0126 32.6022 32.9138 32.4055 32.8151C32.2088 32.5189 32.2088 32.2216 32.4055 31.9244C32.5039 31.8267 32.6022 31.7269 32.7006 31.7269L45.7022 18.5736C47.4762 16.7943 48.4596 14.4205 48.4596 11.948C48.4596 9.47457 47.4762 7.1018 45.7022 5.32149C43.9291 3.54118 41.565 2.55179 39.1035 2.55179C36.6411 2.55179 34.277 3.54118 32.5039 5.32149L19.5022 18.3761C19.4039 18.4749 19.3055 18.5736 19.3055 18.6723C19.1089 18.9696 18.7145 18.9696 18.4185 18.6723C18.1235 18.4749 18.1235 18.0789 18.4185 17.7827C18.5169 17.6839 18.6162 17.5842 18.7145 17.4864L31.7161 4.43084C33.6859 2.45402 36.345 1.36493 39.2018 1.36493C42.0576 1.36493 44.7178 2.45402 46.6876 4.43084C48.6583 6.40961 49.741 9.0796 49.741 11.948C49.741 14.8155 48.6583 17.4864 46.6876 19.4633L33.5876 32.5189C33.4883 32.6176 33.3909 32.7163 33.2916 32.8151C33.1932 32.9138 32.9966 33.0126 32.8982 33.0126Z" fill="#676879"/>
<path d="M25.6092 16.1996C23.245 16.1996 20.9802 17.0892 19.3055 18.6721C19.2062 18.7708 19.1088 18.8705 19.0095 18.9692L5.90952 32.0239C4.13644 33.8042 3.15206 36.1779 3.15206 38.6494C3.15206 41.1219 4.13644 43.4957 5.90952 45.276C7.6826 47.0563 10.0467 48.0447 12.5092 48.0447C14.9716 48.0447 17.3357 47.0563 19.1088 45.276L29.1543 35.1885C28.1699 35.4858 27.0862 35.6832 26.0035 35.6832C25.3131 35.6832 24.7221 35.5835 24.0328 35.4858L16.6464 42.9022C15.5617 43.9904 13.9862 44.6825 12.4108 44.6825C10.8344 44.6825 9.35639 44.0901 8.17434 42.9022C7.0916 41.8141 6.40221 40.2323 6.40221 38.6494C6.40221 37.0676 6.99228 35.5835 8.17434 34.3966L21.1769 21.343C21.2743 21.2433 21.3736 21.1455 21.4729 21.0458C22.5557 20.0564 23.9344 19.5627 25.4115 19.5627C26.9879 19.5627 28.4649 20.1561 29.647 21.343C30.7307 22.4301 31.4201 24.013 31.4201 25.5958C31.4201 25.892 31.4201 26.0895 31.3218 26.3867L34.4736 23.222C34.0802 21.6392 33.1932 20.1561 32.0111 18.9692C31.3218 18.2761 30.6324 17.7824 29.8437 17.3864C29.0569 16.9915 28.2683 16.6943 27.3822 16.4968C26.8895 16.2993 26.2002 16.1996 25.6092 16.1996ZM12.6075 49.2316C9.75071 49.2316 7.09159 48.1444 5.12182 46.1666C3.15206 44.1879 2.06836 41.5179 2.06836 38.6494C2.06836 35.781 3.15206 33.111 5.12182 31.1342L18.1234 18.0786C18.2218 17.9799 18.3201 17.8811 18.4185 17.7824C20.3882 16.0021 22.949 14.9139 25.6092 14.9139C26.3969 14.9139 27.1856 15.0127 27.8749 15.1124C28.8593 15.3099 29.7463 15.7049 30.6324 16.1018C31.5184 16.5945 32.3071 17.1889 33.0948 17.9799C34.5729 19.463 35.5563 21.2433 35.9516 23.222C35.9516 23.4195 35.9516 23.617 35.7549 23.8145L30.3364 29.2552C30.239 29.3529 30.1397 29.4526 30.0414 29.5504C29.8437 29.7498 29.4503 29.7498 29.1543 29.5504C28.8593 29.3529 28.9576 28.958 29.1543 28.6607C29.943 27.7711 30.3364 26.6829 30.3364 25.4961C30.3364 24.2114 29.8437 23.0246 28.9576 22.1339C28.0716 21.2433 26.8896 20.7486 25.6092 20.7486C24.4271 20.7486 23.3434 21.1455 22.4563 21.9355C22.359 22.0352 22.2596 22.0352 22.1623 22.1339L9.15972 35.2873C8.27366 36.1779 7.78096 37.3648 7.78096 38.6494C7.78096 39.9351 8.27366 41.1219 9.15972 42.0126C10.0467 42.9022 11.2288 43.3969 12.5092 43.3969C13.7896 43.3969 14.9716 42.9022 15.8577 42.0126L23.4417 34.3966C23.6384 34.1992 23.8361 34.1992 24.0328 34.1992C24.7221 34.2989 25.4115 34.3966 26.0035 34.3966C28.3676 34.3966 30.6324 33.507 32.3071 31.9241C32.5038 31.7267 32.8981 31.7267 33.1932 31.9241C33.4882 32.1226 33.3908 32.5186 33.1932 32.8148C33.0948 32.9135 32.9965 33.0123 32.8982 33.111L19.9949 46.1666C18.0251 48.1444 15.365 49.2316 12.6075 49.2316Z" fill="#676879"/>
<path d="M44.619 37.068C43.0435 37.068 41.8614 38.3537 41.8614 39.8368C41.8614 41.321 43.1419 42.6066 44.619 42.6066C46.0971 42.6066 47.3775 41.321 47.3775 39.8368C47.3775 38.2549 46.0971 37.068 44.619 37.068ZM44.619 43.8913C42.4525 43.8913 40.582 42.1119 40.582 39.8368C40.582 37.6605 42.3542 35.7814 44.619 35.7814C46.8848 35.7814 48.6589 37.5627 48.6589 39.8368C48.6589 42.1119 46.7865 43.8913 44.619 43.8913Z" fill="#676879"/>
<path d="M4.92404 9.27422C2.8559 9.27422 1.18209 10.9558 1.18209 13.0324C1.18209 15.11 2.8559 16.7916 4.92404 16.7916C6.99218 16.7916 8.66695 15.11 8.66695 13.0324C8.66695 10.9558 6.99218 9.27422 4.92404 9.27422ZM4.92404 17.8788C2.16652 17.8788 0 15.7025 0 12.9337C0 10.1639 2.16652 7.98857 4.92404 7.98857C7.68254 7.98857 9.84899 10.1639 9.84899 12.9337C9.84899 15.7025 7.58419 17.8788 4.92404 17.8788Z" fill="#676879"/>
</svg>
