<svg width="48" height="50" viewBox="0 0 48 50" fill="none" xmlns="http://www.w3.org/2000/svg">
<path d="M44.3744 14.8194V46.5916C44.3744 48.21 43.1067 49.4882 41.5006 49.4882H5.99681C4.39071 49.4882 3.12305 48.21 3.12305 46.5916V14.8194H20.0289H44.3744Z" fill="white"/>
<path d="M40.1465 19.0788V45.1444H7.34766V19.0788H40.1465Z" fill="#676879"/>
<path d="M38.2873 0.509641C39.6394 0.509641 40.6538 1.61694 40.6538 2.89517C40.6538 4.25845 39.555 5.2807 38.2873 5.2807C37.0188 5.2807 35.9199 4.1734 35.9199 2.89517C35.9199 1.53189 36.9344 0.509641 38.2873 0.509641Z" fill="white"/>
<path d="M8.95375 2.63768C9.79942 2.63768 10.5607 3.31888 10.5607 4.25608C10.5607 5.10739 9.88466 5.87451 8.95459 5.87451C8.02452 5.87451 7.34766 5.19243 7.34766 4.25608C7.34766 3.31888 8.10892 2.63768 8.95375 2.63768Z" fill="white"/>
<path d="M20.0289 14.8199H3.12305V11.3279C3.12305 9.70947 4.39071 8.43125 5.99681 8.43125H20.0289C20.0289 9.19752 20.0289 14.0536 20.0289 14.8199Z" fill="white"/>
<path d="M20.0254 11.6682H44.3709V14.9058H20.0254V11.6682Z" fill="white"/>
<path d="M44.3709 11.3274V11.6675H20.0254V8.43071H41.4971C43.1032 8.43071 44.3709 9.70893 44.3709 11.3274Z" fill="white"/>
<path d="M28.4804 38.2447V42.5038H19.0117V38.2447H23.7456H28.4804Z" fill="white"/>
<path d="M28.989 29.7278V30.2389C28.989 33.2206 26.6224 35.6053 23.6634 35.6053C20.7053 35.6053 18.3379 33.2206 18.3379 30.2389V29.7278V23.8503V22.2319H28.9046V23.8503V29.7278H28.989Z" fill="white"/>
<path d="M46.7378 7.41061C47.1581 7.41061 47.4983 7.75416 47.4983 8.17687C47.4983 8.60042 47.1581 8.94482 46.7378 8.94482C46.3175 8.94482 45.9766 8.60042 45.9766 8.17687C45.9766 7.75416 46.3175 7.41061 46.7378 7.41061Z" fill="#676879"/>
<path d="M30.8472 3.1505C31.2667 3.1505 31.6076 3.49322 31.6076 3.91677C31.6076 4.34032 31.2667 4.68304 30.8472 4.68304C30.4269 4.68304 30.0859 4.34032 30.0859 3.91677C30.0859 3.49322 30.4269 3.1505 30.8472 3.1505Z" fill="#676879"/>
<path d="M21.3796 5.27951C21.7999 5.27951 22.1409 5.62223 22.1409 6.04578C22.1409 6.46933 21.7999 6.81201 21.3796 6.81201C20.9593 6.81201 20.6191 6.46933 20.6191 6.04578C20.6191 5.62223 20.9593 5.27951 21.3796 5.27951Z" fill="#676879"/>
<path d="M16.0554 2.13015C16.4757 2.13015 16.8166 2.47287 16.8166 2.89642C16.8166 3.31997 16.4757 3.66351 16.0554 3.66351C15.635 3.66351 15.2949 3.31997 15.2949 2.89642C15.2949 2.47287 15.635 2.13015 16.0554 2.13015Z" fill="#676879"/>
<path d="M13.6867 10.5623C14.2792 10.5623 14.7865 11.0734 14.7865 11.6696C14.7865 12.2666 14.2792 12.7769 13.6867 12.7769C13.0951 12.7769 12.5879 12.2666 12.5879 11.6696C12.5879 11.0734 13.0951 10.5623 13.6867 10.5623Z" fill="#676879"/>
<path d="M10.5598 10.5623C11.1514 10.5623 11.6587 11.0734 11.6587 11.6696C11.6587 12.2666 11.1514 12.7769 10.5598 12.7769C9.96816 12.7769 9.46094 12.2666 9.46094 11.6696C9.46094 11.0734 9.96816 10.5623 10.5598 10.5623Z" fill="#676879"/>
<path d="M7.34608 10.5623C7.93771 10.5623 8.44577 11.0734 8.44577 11.6696C8.44577 12.2666 7.93771 12.7769 7.34608 12.7769C6.75445 12.7769 6.24805 12.2666 6.24805 11.6696C6.24805 11.0734 6.75445 10.5623 7.34608 10.5623Z" fill="#676879"/>
<path d="M1.26043 7.41061C1.68076 7.41061 2.02086 7.75416 2.02086 8.17687C2.02086 8.60042 1.68076 8.94482 1.26043 8.94482C0.840103 8.94482 0.5 8.60042 0.5 8.17687C0.5 7.75416 0.840103 7.41061 1.26043 7.41061Z" fill="#676879"/>
<path d="M44.3738 15.4136H3.12246C2.86843 15.4136 2.61523 15.1585 2.61523 14.9033C2.61523 14.6474 2.86843 14.3914 3.12246 14.3914H44.3738C44.6278 14.3914 44.881 14.6474 44.881 14.9033C44.881 15.1585 44.6278 15.4136 44.3738 15.4136Z" fill="#676879"/>
<path d="M44.3723 12.1793H20.0268C19.7736 12.1793 19.5195 11.9241 19.5195 11.6681C19.5195 11.413 19.7736 11.157 20.0268 11.157H44.3723C44.6263 11.157 44.8795 11.413 44.8795 11.6681C44.8795 11.9241 44.6263 12.1793 44.3723 12.1793Z" fill="#676879"/>
<path d="M8.95234 3.1524C8.36071 3.1524 7.85347 3.66351 7.85347 4.25968C7.85347 4.85585 8.36071 5.36697 8.95234 5.36697C9.54481 5.36697 10.052 4.85585 10.052 4.25968C9.96764 3.57847 9.54481 3.1524 8.95234 3.1524ZM8.95234 6.3042C7.76908 6.3042 6.83984 5.367 6.83984 4.17466C6.83984 2.98147 7.76908 2.04425 8.95234 2.04425C10.1364 2.04425 11.0665 2.98147 11.0665 4.17466C11.0665 5.367 10.1364 6.3042 8.95234 6.3042Z" fill="#676879"/>
<path d="M38.2867 1.02228C37.2723 1.02228 36.4266 1.87442 36.4266 2.89666C36.4266 3.91891 37.2723 4.77104 38.2867 4.77104C39.3012 4.77104 40.146 3.91891 40.146 2.89666C40.146 1.87442 39.3012 1.02228 38.2867 1.02228ZM38.2867 5.79248C36.6806 5.79248 35.4121 4.51508 35.4121 2.89666C35.4121 1.27825 36.6806 2.57492e-05 38.2867 2.57492e-05C39.8928 2.57492e-05 41.1605 1.27825 41.1605 2.89666C41.1605 4.51508 39.8928 5.79248 38.2867 5.79248Z" fill="#676879"/>
<path d="M20.0268 15.4136C19.7736 15.4136 19.5195 15.1585 19.5195 14.9033V8.51474C19.5195 8.25876 19.7736 8.00277 20.0268 8.00277C20.2808 8.00277 20.534 8.25876 20.534 8.51474V14.9033C20.534 15.1585 20.3652 15.4136 20.0268 15.4136Z" fill="#676879"/>
<path d="M5.99623 9.0284C4.72856 9.0284 3.6297 10.0506 3.6297 11.4139V46.6789C3.6297 47.9563 4.64416 49.0636 5.99623 49.0636H41.5001C42.7677 49.0636 43.8666 48.0413 43.8666 46.6789V11.3289C43.8666 10.0506 42.8521 8.9442 41.5001 8.9442H5.99623V9.0284ZM41.5001 49.9999H5.99623C4.13693 49.9999 2.61523 48.4674 2.61523 46.593V11.3289C2.61523 9.45446 4.13693 7.92194 5.99623 7.92194H41.5001C43.3594 7.92194 44.881 9.45446 44.881 11.3289V46.593C44.881 48.4674 43.3594 49.9999 41.5001 49.9999Z" fill="#676879"/>
<path d="M7.85348 44.6348H39.5535V19.6773H7.85348V44.6348ZM40.1451 45.7421H7.34625C7.09305 45.7421 6.83984 45.4861 6.83984 45.2309V19.0803C6.83984 18.8251 7.09305 18.5691 7.34625 18.5691H40.1451C40.3991 18.5691 40.6523 18.8251 40.6523 19.0803V45.1459C40.6523 45.4861 40.3991 45.7421 40.1451 45.7421Z" fill="#676879"/>
<path d="M23.7468 36.117C20.5346 36.117 17.9141 33.4763 17.9141 30.2395V29.7284C17.9141 29.4724 18.1681 29.2173 18.4213 29.2173C18.6753 29.2173 18.9285 29.4724 18.9285 29.7284V30.2395C18.9285 32.8802 21.0419 35.0097 23.6624 35.0097C26.283 35.0097 28.3963 32.8802 28.3963 30.2395V29.7284C28.3963 29.4724 28.6504 29.2173 28.9036 29.2173C29.1576 29.2173 29.4108 29.4724 29.4108 29.7284V30.2395C29.5796 33.4763 26.9599 36.117 23.7468 36.117Z" fill="#676879"/>
<path d="M28.9867 24.445C28.7335 24.445 28.4803 24.1899 28.4803 23.9339V22.8266H19.0117V23.9339C19.0117 24.1899 18.7585 24.445 18.5044 24.445C18.2513 24.445 17.998 24.1899 17.998 23.9339V22.3155C17.998 22.0603 18.2513 21.8044 18.5044 21.8044H29.0719C29.3251 21.8044 29.5783 22.0603 29.5783 22.3155V23.9339C29.5783 24.1899 29.3251 24.445 28.9867 24.445Z" fill="#676879"/>
<path d="M19.5184 41.9942H27.9725V38.7573H19.5184V41.9942ZM28.4798 43.1014H19.0111C18.7579 43.1014 18.5039 42.8455 18.5039 42.5903V38.3312C18.5039 38.0753 18.7579 37.821 19.0111 37.821H28.5642C28.8174 37.821 29.0714 38.0753 29.0714 38.3312V42.5903C28.9862 42.8455 28.8174 43.1014 28.4798 43.1014Z" fill="#676879"/>
<path d="M23.7466 38.8436C23.4934 38.8436 23.2402 38.5884 23.2402 38.3325V35.6067C23.2402 35.3516 23.4934 35.0956 23.7466 35.0956C24.0007 35.0956 24.2539 35.3516 24.2539 35.6067V38.2474C24.2539 38.5884 24.0007 38.8436 23.7466 38.8436Z" fill="#676879"/>
<path d="M29.5785 24.4465V29.2167C31.1002 28.9615 32.1991 27.6833 32.1991 26.0657V24.4465H29.5785ZM28.9869 30.324C28.7337 30.324 28.4805 30.068 28.4805 29.8128V23.9354C28.4805 23.6802 28.7337 23.4242 28.9869 23.4242H32.7063C32.9603 23.4242 33.2135 23.6802 33.2135 23.9354V26.0657C33.2135 28.3654 31.3542 30.324 28.9869 30.324Z" fill="#676879"/>
<path d="M15.295 24.4465V26.0657C15.295 27.6833 16.4783 28.9615 17.9147 29.2167V24.4465H15.295ZM18.422 30.324C16.0555 30.324 14.1953 28.4504 14.1953 26.0657V23.9354C14.1953 23.6802 14.4494 23.4242 14.7026 23.4242H18.422C18.676 23.4242 18.9292 23.6802 18.9292 23.9354V29.8128C19.0136 30.068 18.7604 30.324 18.422 30.324Z" fill="#676879"/>
<path d="M26.366 25.4684H21.0404C20.7872 25.4684 20.5332 25.2125 20.5332 24.9565C20.5332 24.7005 20.7872 24.4453 21.0404 24.4453H26.366C26.62 24.4453 26.8732 24.7005 26.8732 24.9565C26.8732 25.2125 26.7044 25.4684 26.366 25.4684Z" fill="#676879"/>
<path d="M26.366 28.195H21.0404C20.7872 28.195 20.5332 27.9399 20.5332 27.6839C20.5332 27.4288 20.7872 27.1728 21.0404 27.1728H26.366C26.62 27.1728 26.8732 27.4288 26.8732 27.6839C26.8732 27.9399 26.7044 28.195 26.366 28.195Z" fill="#676879"/>
</svg>
