<svg width="18" height="18" viewBox="0 0 18 18" fill="none" xmlns="http://www.w3.org/2000/svg">
<path d="M5.45215 5.45215L6.375 6.375M15.75 12V5.4C15.75 4.55992 15.75 4.13988 15.5865 3.81902C15.4427 3.53677 15.2132 3.3073 14.931 3.16349C14.6102 3 14.1901 3 13.35 3H9.375M2.25 12V9.375M6 4.125C6 5.16053 5.16053 6 4.125 6C3.08947 6 2.25 5.16053 2.25 4.125C2.25 3.08947 3.08947 2.25 4.125 2.25C5.16053 2.25 6 3.08947 6 4.125ZM16.5 12V12.6C16.5 13.4401 16.5 13.8602 16.3365 14.181C16.1927 14.4632 15.9632 14.6927 15.681 14.8365C15.3602 15 14.9401 15 14.1 15H3.9C3.05992 15 2.63988 15 2.31902 14.8365C2.03677 14.6927 1.8073 14.4632 1.66349 14.181C1.5 13.8602 1.5 13.4401 1.5 12.6V12H6.25295C6.43639 12 6.52811 12 6.61442 12.0207C6.69095 12.0391 6.76411 12.0694 6.83121 12.1105C6.9069 12.1569 6.97176 12.2218 7.10147 12.3514L7.14853 12.3986C7.27824 12.5282 7.3431 12.5931 7.41879 12.6395C7.48589 12.6806 7.55903 12.7109 7.6356 12.7293C7.72193 12.75 7.81365 12.75 7.99702 12.75H10.003C10.1864 12.75 10.2781 12.75 10.3644 12.7293C10.441 12.7109 10.5141 12.6806 10.5812 12.6395C10.6569 12.5931 10.7218 12.5282 10.8515 12.3986L10.8985 12.3514C11.0282 12.2218 11.0931 12.1569 11.1688 12.1105C11.2359 12.0694 11.309 12.0391 11.3856 12.0207C11.4719 12 11.5636 12 11.747 12H16.5Z" stroke="#5C3EF4" stroke-width="1.5" stroke-linecap="round" stroke-linejoin="round"/>
</svg>
