<svg width="18" height="18" viewBox="0 0 18 18" fill="none" xmlns="http://www.w3.org/2000/svg">
<path d="M17.4394 2.18294C17.5445 2.28838 17.6036 2.43119 17.6036 2.58007C17.6036 2.72895 17.5445 2.87175 17.4394 2.97719L16.2661 4.15169L14.0161 1.90169L15.1894 0.727192C15.2949 0.62174 15.438 0.5625 15.5871 0.5625C15.7363 0.5625 15.8793 0.62174 15.9848 0.727192L17.4394 2.18182V2.18294ZM15.4707 4.94594L13.2207 2.69594L5.55606 10.3617C5.49414 10.4236 5.44753 10.4991 5.41993 10.5822L4.51431 13.2979C4.49788 13.3475 4.49555 13.4006 4.50757 13.4513C4.51959 13.5021 4.54549 13.5485 4.58238 13.5854C4.61926 13.6223 4.66568 13.6482 4.71644 13.6602C4.76719 13.6722 4.8203 13.6699 4.86981 13.6534L7.58556 12.7478C7.66854 12.7205 7.74403 12.6743 7.80606 12.6128L15.4707 4.94594Z" fill="#5C3EF4"/>
<path fill-rule="evenodd" clip-rule="evenodd" d="M1.125 15.1875C1.125 15.6351 1.30279 16.0643 1.61926 16.3807C1.93572 16.6972 2.36495 16.875 2.8125 16.875H15.1875C15.6351 16.875 16.0643 16.6972 16.3807 16.3807C16.6972 16.0643 16.875 15.6351 16.875 15.1875V8.4375C16.875 8.28832 16.8157 8.14524 16.7102 8.03975C16.6048 7.93426 16.4617 7.875 16.3125 7.875C16.1633 7.875 16.0202 7.93426 15.9148 8.03975C15.8093 8.14524 15.75 8.28832 15.75 8.4375V15.1875C15.75 15.3367 15.6907 15.4798 15.5852 15.5852C15.4798 15.6907 15.3367 15.75 15.1875 15.75H2.8125C2.66332 15.75 2.52024 15.6907 2.41475 15.5852C2.30926 15.4798 2.25 15.3367 2.25 15.1875V2.8125C2.25 2.66332 2.30926 2.52024 2.41475 2.41475C2.52024 2.30926 2.66332 2.25 2.8125 2.25H10.125C10.2742 2.25 10.4173 2.19074 10.5227 2.08525C10.6282 1.97976 10.6875 1.83668 10.6875 1.6875C10.6875 1.53832 10.6282 1.39524 10.5227 1.28975C10.4173 1.18426 10.2742 1.125 10.125 1.125H2.8125C2.36495 1.125 1.93572 1.30279 1.61926 1.61926C1.30279 1.93572 1.125 2.36495 1.125 2.8125V15.1875Z" fill="#5C3EF4"/>
</svg>
