<svg width="49" height="50" viewBox="0 0 49 50" fill="none" xmlns="http://www.w3.org/2000/svg">
<path d="M4.82422 27.2739C4.82422 25.9013 5.94415 24.7865 7.32212 24.7865C9.04586 24.7865 39.0265 24.7865 42.2143 24.7865C43.5922 24.7865 44.713 25.9013 44.713 27.2739V33.5338C44.713 34.9064 43.5922 36.0212 42.2143 36.0212C34.9769 36.0212 14.2145 36.0212 7.32212 36.0212C5.94415 36.0212 4.82422 34.9064 4.82422 33.5338C4.82422 32.9336 4.82422 27.9597 4.82422 27.2739Z" fill="white"/>
<path d="M4.82511 11.1494C4.82511 9.7769 5.94504 8.6621 7.32301 8.6621H42.1283C43.5071 8.6621 44.627 9.7769 44.627 11.1494V17.4094C44.627 18.7819 43.5071 19.8968 42.1283 19.8968C39.1995 19.8968 9.04677 19.8968 7.23701 19.8968C5.85819 19.8968 4.73828 18.7819 4.73828 17.4094C4.82515 16.8092 4.82511 11.8353 4.82511 11.1494Z" fill="white"/>
<path d="M44.6258 0.688031C46.0907 0.688031 47.2966 1.88849 47.2966 3.34581C47.2966 4.80398 46.0907 6.00446 44.6258 6.00446C43.161 6.00446 41.9551 4.80398 41.9551 3.34581C41.9551 1.88849 43.161 0.688031 44.6258 0.688031Z" fill="#676879"/>
<path d="M2.67053 37.6484C3.87647 37.6484 4.82519 38.5919 4.82519 39.7924C4.82519 40.9928 3.87647 41.9364 2.67053 41.9364C1.4646 41.9364 0.517578 40.9928 0.517578 39.7924C0.517578 38.5919 1.4646 37.6484 2.67053 37.6484Z" fill="#676879"/>
<path d="M39.8009 29.0737C40.6628 29.0737 41.4378 29.7596 41.4378 30.7032C41.4378 31.6468 40.7488 32.3326 39.8009 32.3326C38.939 32.3326 38.1641 31.6468 38.1641 30.7032C38.1641 29.7596 38.939 29.0737 39.8009 29.0737Z" fill="#676879"/>
<path d="M39.8009 12.9493C40.6628 12.9493 41.4378 13.636 41.4378 14.5787C41.4378 15.4366 40.7488 16.2081 39.8009 16.2081C38.939 16.2081 38.1641 15.5223 38.1641 14.5787C38.1641 13.636 38.939 12.9493 39.8009 12.9493Z" fill="#676879"/>
<path d="M36.6134 29.0737C37.4744 29.0737 38.2511 29.7596 38.2511 30.7032C38.2511 31.6468 37.5613 32.3326 36.6134 32.3326C35.7524 32.3326 34.9766 31.6468 34.9766 30.7032C34.9766 29.7596 35.6655 29.0737 36.6134 29.0737Z" fill="#676879"/>
<path d="M36.6134 12.9493C37.4744 12.9493 38.2511 13.636 38.2511 14.5787C38.2511 15.4366 37.5613 16.2081 36.6134 16.2081C35.7524 16.2081 34.9766 15.5223 34.9766 14.5787C34.9766 13.636 35.6655 12.9493 36.6134 12.9493Z" fill="#676879"/>
<path d="M33.34 29.0737C34.2018 29.0737 34.9769 29.7596 34.9769 30.7032C34.9769 31.6468 34.2879 32.3326 33.34 32.3326C32.3929 32.3326 31.7031 31.6468 31.7031 30.7032C31.7031 29.7596 32.4781 29.0737 33.34 29.0737Z" fill="#676879"/>
<path d="M33.34 12.9493C34.2018 12.9493 34.9769 13.636 34.9769 14.5787C34.9769 15.4366 34.2879 16.2081 33.34 16.2081C32.3929 16.2081 31.7031 15.5223 31.7031 14.5787C31.7031 13.636 32.4781 12.9493 33.34 12.9493Z" fill="#676879"/>
<path d="M30.1525 29.0737C31.0144 29.0737 31.7902 29.7596 31.7902 30.7032C31.7902 31.6468 31.1004 32.3326 30.1525 32.3326C29.2055 32.3326 28.5156 31.6468 28.5156 30.7032C28.5156 29.7596 29.2055 29.0737 30.1525 29.0737Z" fill="#676879"/>
<path d="M30.1525 12.9493C31.0144 12.9493 31.7902 13.636 31.7902 14.5787C31.7902 15.4366 31.1004 16.2081 30.1525 16.2081C29.2055 16.2081 28.5156 15.5223 28.5156 14.5787C28.5156 13.636 29.2055 12.9493 30.1525 12.9493Z" fill="#676879"/>
<path d="M30.1517 49.3973H19.9004C19.9004 46.6522 19.9004 44.8516 19.9004 41.8505C21.1915 41.8505 29.0318 41.8505 30.1517 41.8505C30.1517 44.8516 30.1517 46.6522 30.1517 49.3973Z" fill="#676879"/>
<path d="M43.3333 44.0828C44.3672 44.0828 45.2291 44.9399 45.2291 45.9691C45.2291 46.4837 45.0571 46.9983 44.713 47.256C44.3672 47.5994 43.9363 47.7706 43.4202 47.7706H30.1523V43.9972L43.3333 44.0828Z" fill="white"/>
<path d="M19.9012 44.0837V47.8571H6.20239C5.16849 47.8571 4.30664 46.9992 4.30664 45.97C4.30664 45.4554 4.47949 44.9408 4.82441 44.6839C5.16848 44.3406 5.59945 44.1693 6.1164 44.1693L19.9012 44.0837Z" fill="white"/>
<path d="M22.5723 36.0189H27.3969V41.9364H22.5723V36.0189Z" fill="white"/>
<path d="M9.99414 19.9825H39.8027V24.7852H9.99414V19.9825Z" fill="#676879"/>
<path d="M48.935 24.1839C49.1071 24.6128 48.935 25.0418 48.5041 25.213C48.0732 25.3851 47.6431 25.213 47.4702 24.784C47.2982 24.3551 47.4702 23.927 47.9011 23.7549C48.246 23.5836 48.7621 23.7549 48.935 24.1839Z" fill="#676879"/>
<path d="M39.1987 39.1953C39.3707 39.6243 39.1987 40.0525 38.7678 40.2246C38.3368 40.3958 37.9059 40.2245 37.7339 39.7956C37.5618 39.3666 37.7339 38.9376 38.1648 38.7664C38.5958 38.5951 39.0267 38.7664 39.1987 39.1953Z" fill="#676879"/>
<path d="M38.6826 2.74448C38.8555 3.17345 38.6826 3.60244 38.2525 3.77369C37.8216 3.94494 37.3906 3.77368 37.2186 3.34471C37.0457 2.91658 37.2186 2.48762 37.6496 2.31637C37.9936 2.14427 38.5097 2.31635 38.6826 2.74448Z" fill="#676879"/>
<path d="M17.6597 2.23155C17.8317 2.65967 17.6597 3.08864 17.2287 3.25989C16.7978 3.43198 16.3677 3.25986 16.1948 2.83174C16.0228 2.40276 16.1948 1.97382 16.6258 1.80257C17.0567 1.63047 17.4876 1.80257 17.6597 2.23155Z" fill="#676879"/>
<path d="M2.58386 9.69203C2.75589 10.121 2.58386 10.5499 2.15292 10.7212C1.72199 10.8924 1.29104 10.7212 1.11901 10.2922C0.946121 9.86324 1.11901 9.43515 1.54995 9.26305C1.98088 9.0918 2.41098 9.34953 2.58386 9.69203Z" fill="#676879"/>
<path d="M2.49753 24.1839C2.66956 24.6128 2.49752 25.0418 2.06659 25.213C1.63565 25.3851 1.2056 25.213 1.03271 24.784C0.860679 24.3551 1.03268 23.927 1.46361 23.7549C1.89455 23.5836 2.32549 23.7549 2.49753 24.1839Z" fill="#676879"/>
<path d="M19.9017 48.3705H6.20287C4.8249 48.3705 3.79102 47.2557 3.79102 45.9688C3.79102 45.2829 4.04905 44.6827 4.47999 44.2538C4.91092 43.8256 5.51389 43.5679 6.20287 43.5679H19.9017C20.1589 43.5679 20.4178 43.8256 20.4178 44.0825C20.4178 44.3394 20.1589 44.5971 19.9017 44.5971H6.20287C5.85796 44.5971 5.5139 44.7683 5.255 45.0261C4.99695 45.2829 4.82489 45.6263 4.82489 45.9688C4.82489 46.7411 5.42787 47.3413 6.20287 47.3413H19.9017C20.1589 47.3413 20.4178 47.599 20.4178 47.8559C20.4178 48.1128 20.1589 48.3705 19.9017 48.3705Z" fill="#676879"/>
<path d="M43.3327 48.3705H30.1517C29.8937 48.3705 29.6348 48.1128 29.6348 47.8559C29.6348 47.599 29.8937 47.3413 30.1517 47.3413H43.3327C43.6785 47.3413 44.0225 47.1701 44.2815 46.9124C44.5386 46.6546 44.7124 46.3121 44.7124 45.9688C44.7124 45.1973 44.1086 44.5971 43.3327 44.5971H30.1517C29.8937 44.5971 29.6348 44.3394 29.6348 44.0825C29.6348 43.8256 29.8937 43.5679 30.1517 43.5679H43.3327C44.7124 43.5679 45.7454 44.6827 45.7454 45.9688C45.7454 46.6546 45.4874 47.2557 45.0565 47.6847C44.5387 48.1128 43.9357 48.3705 43.3327 48.3705Z" fill="#676879"/>
<path d="M30.1519 50H19.9006C19.6417 50 19.3828 49.7431 19.3828 49.4854V41.9385C19.3828 41.6808 19.6417 41.4239 19.9006 41.4239H22.5706C22.8286 41.4239 23.0875 41.6808 23.0875 41.9385C23.0875 42.1954 22.8286 42.4531 22.5706 42.4531H20.4167V48.8852H29.549V42.4531H27.3951C27.1371 42.4531 26.8782 42.1954 26.8782 41.9385C26.8782 41.6808 27.1371 41.4239 27.3951 41.4239H30.0659C30.3248 41.4239 30.5829 41.6808 30.5829 41.9385V49.4854C30.6689 49.7431 30.4109 50 30.1519 50Z" fill="#676879"/>
<path d="M27.3963 42.4498H22.5717C22.3136 42.4498 22.0547 42.1929 22.0547 41.9352V36.0177C22.0547 35.76 22.3136 35.5031 22.5717 35.5031C22.8297 35.5031 23.0886 35.76 23.0886 36.0177V41.4206H26.8793V36.0177C26.8793 35.76 27.1382 35.5031 27.3963 35.5031C27.6543 35.5031 27.9132 35.76 27.9132 36.0177V41.9352C28.0001 42.1929 27.7412 42.4498 27.3963 42.4498Z" fill="#676879"/>
<path d="M42.1276 36.5346H7.32231C5.68543 36.5346 4.30664 35.162 4.30664 33.5326V27.2727C4.30664 25.6433 5.68543 24.2707 7.32231 24.2707H9.99311C10.252 24.2707 10.51 24.5284 10.51 24.7853C10.51 25.043 10.252 25.2999 9.99311 25.2999H7.32231C6.20239 25.2999 5.34051 26.1579 5.34051 27.2727V33.5326C5.34051 34.6475 6.20239 35.5054 7.32231 35.5054H42.1276C43.2483 35.5054 44.1094 34.6475 44.1094 33.5326V27.2727C44.1094 26.1579 43.2483 25.2999 42.1276 25.2999H39.8017C39.5428 25.2999 39.2848 25.043 39.2848 24.7853C39.2848 24.5284 39.5428 24.2707 39.8017 24.2707H42.1276C43.7644 24.2707 45.1433 25.6433 45.1433 27.2727V33.5326C45.2293 35.2485 43.8513 36.5346 42.1276 36.5346Z" fill="#676879"/>
<path d="M39.8014 29.5899C39.1984 29.5899 38.6815 30.1045 38.6815 30.7047C38.6815 31.305 39.1984 31.8195 39.8014 31.8195C40.4044 31.8195 40.9213 31.305 40.9213 30.7047C40.9213 30.1045 40.4044 29.5899 39.8014 29.5899ZM39.8014 32.8488C38.5955 32.8488 37.6484 31.906 37.6484 30.7047C37.6484 29.5043 38.5955 28.5607 39.8014 28.5607C41.0073 28.5607 41.9552 29.5043 41.9552 30.7047C41.9552 31.906 41.0073 32.8488 39.8014 32.8488Z" fill="#676879"/>
<path d="M36.6147 29.5899C36.0118 29.5899 35.4948 30.1045 35.4948 30.7047C35.4948 31.305 36.0118 31.8195 36.6147 31.8195C37.2185 31.8195 37.7347 31.305 37.7347 30.7047C37.7347 30.1045 37.2185 29.5899 36.6147 29.5899ZM36.6147 32.8488C35.4088 32.8488 34.4609 31.906 34.4609 30.7047C34.4609 29.5043 35.4088 28.5607 36.6147 28.5607C37.8215 28.5607 38.7686 29.5043 38.7686 30.7047C38.7686 31.906 37.7346 32.8488 36.6147 32.8488Z" fill="#676879"/>
<path d="M33.3413 29.5899C32.7384 29.5899 32.2214 30.1045 32.2214 30.7047C32.2214 31.305 32.7384 31.8195 33.3413 31.8195C33.9443 31.8195 34.4613 31.305 34.4613 30.7047C34.4613 30.1045 33.9443 29.5899 33.3413 29.5899ZM33.3413 32.8488C32.1354 32.8488 31.1875 31.906 31.1875 30.7047C31.1875 29.5043 32.1354 28.5607 33.3413 28.5607C34.5473 28.5607 35.4952 29.5043 35.4952 30.7047C35.4952 31.906 34.5473 32.8488 33.3413 32.8488Z" fill="#676879"/>
<path d="M30.153 29.5899C29.55 29.5899 29.033 30.1045 29.033 30.7047C29.033 31.305 29.55 31.8195 30.153 31.8195C30.756 31.8195 31.2729 31.305 31.2729 30.7047C31.2729 30.1045 30.756 29.5899 30.153 29.5899ZM30.153 32.8488C28.9471 32.8488 28 31.906 28 30.7047C28 29.5043 28.9471 28.5607 30.153 28.5607C31.3598 28.5607 32.3068 29.5043 32.3068 30.7047C32.3068 31.906 31.2729 32.8488 30.153 32.8488Z" fill="#676879"/>
<path d="M25.2419 31.2193H4.82441C4.56551 31.2193 4.30664 30.9624 4.30664 30.7047C4.30664 30.4478 4.56551 30.1901 4.82441 30.1901H25.3279C25.5859 30.1901 25.8449 30.4478 25.8449 30.7047C25.8449 30.9624 25.586 31.2193 25.2419 31.2193Z" fill="#676879"/>
<path d="M42.1276 20.4966H39.8017C39.5428 20.4966 39.2848 20.2397 39.2848 19.982C39.2848 19.7251 39.5428 19.4674 39.8017 19.4674H42.1276C43.2483 19.4674 44.1094 18.6103 44.1094 17.4955V11.2347C44.1094 10.1199 43.2483 9.26195 42.1276 9.26195H7.32231C6.20239 9.26195 5.34051 10.1199 5.34051 11.2347V17.4955C5.34051 18.6103 6.20239 19.4674 7.32231 19.4674H9.99311C10.252 19.4674 10.51 19.7251 10.51 19.982C10.51 20.2397 10.252 20.4966 9.99311 20.4966H7.32231C5.68543 20.4966 4.30664 19.1249 4.30664 17.4955V11.2347C4.30664 9.6053 5.68543 8.23357 7.32231 8.23357H42.1276C43.7644 8.23357 45.1433 9.6053 45.1433 11.2347V17.4955C45.2293 19.1249 43.8513 20.4966 42.1276 20.4966Z" fill="#676879"/>
<path d="M39.8014 13.5492C39.1984 13.5492 38.6815 14.063 38.6815 14.6632C38.6815 15.2643 39.1984 15.778 39.8014 15.778C40.4044 15.778 40.9213 15.2643 40.9213 14.6632C40.9213 13.9773 40.4044 13.5492 39.8014 13.5492ZM39.8014 16.7216C38.5955 16.7216 37.6484 15.778 37.6484 14.5775C37.6484 13.3771 38.5955 12.4335 39.8014 12.4335C41.0073 12.4335 41.9552 13.3771 41.9552 14.5775C41.9552 15.778 41.0073 16.7216 39.8014 16.7216Z" fill="#676879"/>
<path d="M36.6147 13.5492C36.0118 13.5492 35.4948 14.063 35.4948 14.6632C35.4948 15.2643 36.0118 15.778 36.6147 15.778C37.2185 15.778 37.7347 15.2643 37.7347 14.6632C37.6495 13.9773 37.2185 13.5492 36.6147 13.5492ZM36.6147 16.7216C35.4088 16.7216 34.4609 15.778 34.4609 14.5775C34.4609 13.3771 35.4088 12.4335 36.6147 12.4335C37.8215 12.4335 38.7686 13.3771 38.7686 14.5775C38.7686 15.778 37.7346 16.7216 36.6147 16.7216Z" fill="#676879"/>
<path d="M33.3413 13.5492C32.7384 13.5492 32.2214 14.063 32.2214 14.6632C32.2214 15.2643 32.7384 15.778 33.3413 15.778C33.9443 15.778 34.4613 15.2643 34.4613 14.6632C34.4613 13.9773 33.9443 13.5492 33.3413 13.5492ZM33.3413 16.7216C32.1354 16.7216 31.1875 15.778 31.1875 14.5775C31.1875 13.3771 32.1354 12.4335 33.3413 12.4335C34.5473 12.4335 35.4952 13.3771 35.4952 14.5775C35.4952 15.778 34.5473 16.7216 33.3413 16.7216Z" fill="#676879"/>
<path d="M30.153 13.5492C29.55 13.5492 29.033 14.063 29.033 14.6632C29.033 15.2643 29.55 15.778 30.153 15.778C30.756 15.778 31.2729 15.2643 31.2729 14.6632C31.1869 13.9773 30.756 13.5492 30.153 13.5492ZM30.153 16.7216C28.9471 16.7216 28 15.778 28 14.5775C28 13.3771 28.9471 12.4335 30.153 12.4335C31.3598 12.4335 32.3068 13.3771 32.3068 14.5775C32.3068 15.778 31.2729 16.7216 30.153 16.7216Z" fill="#676879"/>
<path d="M25.2419 15.0948H4.82441C4.56551 15.0948 4.30664 14.8379 4.30664 14.5802C4.30664 14.3233 4.56551 14.0656 4.82441 14.0656H25.3279C25.5859 14.0656 25.8449 14.3233 25.8449 14.5802C25.8449 14.9236 25.586 15.0948 25.2419 15.0948Z" fill="#676879"/>
<path d="M10.5105 24.2693H39.2852V20.4959H10.5105V24.2693ZM39.8021 25.2985H9.99354C9.73464 25.2985 9.47656 25.0416 9.47656 24.7839V19.9813C9.47656 19.7244 9.73464 19.4667 9.99354 19.4667H39.8021C40.061 19.4667 40.3191 19.7244 40.3191 19.9813V24.7839C40.3191 25.0416 40.1471 25.2985 39.8021 25.2985Z" fill="#676879"/>
<path d="M44.6273 1.2015C43.4213 1.2015 42.4734 2.14421 42.4734 3.34465C42.4734 4.5451 43.4213 5.48867 44.6273 5.48867C45.8332 5.48867 46.7811 4.5451 46.7811 3.34465C46.7811 2.14421 45.8332 1.2015 44.6273 1.2015ZM44.6273 6.51788C42.8183 6.51788 41.3535 5.05972 41.3535 3.25905C41.3535 1.45838 42.8183 0.000211239 44.6273 0.000211239C46.4362 0.000211239 47.901 1.45838 47.901 3.25905C47.901 5.05972 46.4362 6.51788 44.6273 6.51788Z" fill="#676879"/>
<path d="M2.66993 38.1617C1.80891 38.1617 1.03308 38.8476 1.03308 39.7912C1.03308 40.6483 1.7229 41.4206 2.66993 41.4206C3.5318 41.4206 4.30682 40.7347 4.30682 39.7912C4.30682 38.8476 3.5318 38.1617 2.66993 38.1617ZM2.66993 42.4498C1.20595 42.4498 0 41.2493 0 39.7912C0 38.333 1.20595 37.1326 2.66993 37.1326C4.13477 37.1326 5.3407 38.333 5.3407 39.7912C5.3407 41.2493 4.13477 42.4498 2.66993 42.4498Z" fill="#676879"/>
</svg>
