<svg width="23" height="18" viewBox="0 0 23 18" fill="none" xmlns="http://www.w3.org/2000/svg">
<g clip-path="url(#clip0_6275_33106)">
<path d="M8.39883 11.6051C8.51133 11.8934 8.3707 12.2203 8.08242 12.3363C7.79414 12.4488 7.46719 12.3082 7.35117 12.0199L7.04531 11.2184H4.20469L3.89883 12.0199C3.78281 12.3082 3.45445 12.4488 3.16617 12.3363C2.87754 12.2203 2.73727 11.8934 2.85258 11.6051L5.10117 5.98008C5.18906 5.73398 5.39648 5.625 5.625 5.625C5.85352 5.625 6.06094 5.73398 6.14883 5.98008L8.39883 11.6051ZM4.65469 10.125H6.59531L5.625 7.70273L4.65469 10.125ZM17.4375 6.75H19.6875C19.9969 6.75 20.25 7.00313 20.25 7.3125C20.25 7.62187 19.9969 7.875 19.6875 7.875H19.5188L19.3711 8.28281C19.0371 9.20039 18.5133 10.023 17.8418 10.7086C17.9543 10.7859 18.0387 10.8598 18.1863 10.9301L18.8508 11.3309C19.118 11.4891 19.2059 11.8371 19.0441 12.1008C18.8859 12.368 18.5379 12.4559 18.2742 12.2941L17.6098 11.8969C17.3848 11.7633 17.1703 11.6156 16.9594 11.4293C16.6711 11.6684 16.3687 11.8512 16.0453 12.0129L15.4406 12.3152C15.1629 12.4559 14.8219 12.3434 14.6848 12.0656C14.5441 11.7879 14.6566 11.4469 14.9344 11.3098L15.5426 11.0074C15.7324 10.9125 15.9117 10.807 16.0875 10.6945L15.3527 9.95977C15.1313 9.7418 15.1313 9.3832 15.3527 9.16523C15.5707 8.94375 15.9293 8.94375 16.1473 9.16523L16.9418 9.95977L16.9699 9.98789C17.5641 9.4043 18.0246 8.69063 18.3129 7.89609L18.3234 7.84336H14.0625C13.7531 7.84336 13.5 7.62188 13.5 7.28086C13.5 7.00313 13.7531 6.71836 14.0625 6.71836H16.3125V6.15586C16.3125 5.87813 16.5656 5.59336 16.875 5.59336C17.1844 5.59336 17.4375 5.87813 17.4375 6.15586V6.75ZM22.5 13.5C22.5 14.741 21.491 15.75 20.25 15.75H2.25C1.00723 15.75 0 14.741 0 13.5V4.5C0 3.25723 1.00723 2.25 2.25 2.25H20.25C21.491 2.25 22.5 3.25723 22.5 4.5V13.5ZM10.6875 3.375H2.25C1.62879 3.375 1.125 3.87773 1.125 4.5V13.5C1.125 14.1223 1.62879 14.625 2.25 14.625H10.6875V3.375ZM11.8125 3.375V14.625H20.25C20.8723 14.625 21.375 14.1223 21.375 13.5V4.5C21.375 3.87773 20.8723 3.375 20.25 3.375H11.8125Z" fill="#5C3EF4"/>
</g>
<defs>
<clipPath id="clip0_6275_33106">
<rect width="22.5" height="18" fill="white"/>
</clipPath>
</defs>
</svg>
