<svg width="24" height="24" viewBox="0 0 24 24" fill="none" xmlns="http://www.w3.org/2000/svg">
<g clip-path="url(#clip0_6275_33131)">
<path d="M8.3997 4.80078V5.67678C7.5837 5.29278 6.7197 5.07678 5.8437 5.07678C4.3077 5.07678 2.7717 5.66478 1.5957 6.82878L4.1397 9.37278H5.8317L5.7117 10.9568C6.4557 11.7008 7.4157 12.0608 8.3877 12.0608H8.3997V14.4008H5.9997V17.4008C5.9997 18.3968 6.8037 19.2008 7.7997 19.2008H16.7997C18.1197 19.2008 19.1997 18.1208 19.1997 16.8008V4.80078H8.3997ZM8.3877 10.8608C7.8717 10.8608 7.3797 10.7168 6.9597 10.4288L7.1397 8.18478H4.6437L3.4077 6.94878C4.1397 6.51678 4.9797 6.28878 5.8437 6.28878C7.1277 6.28878 8.3277 6.79278 9.2397 7.69278L10.9317 9.38478L10.2117 10.1048C9.7197 10.5848 9.0717 10.8608 8.3877 10.8608ZM17.9997 16.8008C17.9997 17.4608 17.4597 18.0008 16.7997 18.0008C16.1397 18.0008 15.5997 17.4608 15.5997 16.8008V14.4008H9.5997V11.8448C10.1277 11.6648 10.6317 11.3768 11.0637 10.9568L11.7837 10.2368L14.7477 13.2008H15.5997V12.3488L10.0797 6.84078C9.9357 6.68478 9.7677 6.57678 9.5997 6.44478V6.00078H17.9997V16.8008Z" fill="#5C3EF4"/>
</g>
<defs>
<clipPath id="clip0_6275_33131">
<rect width="24" height="24" fill="white"/>
</clipPath>
</defs>
</svg>
