<svg width="48" height="50" viewBox="0 0 48 50" fill="none" xmlns="http://www.w3.org/2000/svg">
<path d="M44.59 14.8185V46.5917C44.59 48.2101 43.3088 49.4884 41.6856 49.4884H5.80326C4.18013 49.4884 2.89844 48.2101 2.89844 46.5917V14.8185C5.03388 14.8185 43.1374 14.8185 44.59 14.8185Z" fill="#676879"/>
<path d="M40.3182 19.0775V45.1439C39.0362 45.1439 8.7934 45.1439 7.16992 45.1439V19.0775H40.3182Z" fill="white"/>
<path d="M23.7442 36.1163C24.5987 36.1163 25.3681 36.7984 25.3681 37.7357C25.3681 38.672 24.6841 39.3541 23.7442 39.3541C22.8905 39.3541 22.1211 38.672 22.1211 37.7357C22.1211 36.8835 22.8905 36.1163 23.7442 36.1163Z" fill="#676879"/>
<path d="M38.4386 0.50608C39.806 0.50608 40.8312 1.6134 40.8312 2.89167C40.8312 4.25415 39.7207 5.27643 38.4386 5.27643C37.1575 5.27643 36.0469 4.16825 36.0469 2.89167C36.0469 1.52835 37.0722 0.50608 38.4386 0.50608Z" fill="white"/>
<path d="M8.7934 2.63942C9.64783 2.63942 10.4165 3.32149 10.4165 4.25788C10.4165 5.11006 9.73296 5.87634 8.7934 5.87634C7.8535 5.87634 7.16992 5.19427 7.16992 4.25788C7.16992 3.32149 7.93897 2.63942 8.7934 2.63942Z" fill="white"/>
<path d="M19.985 14.822H2.89844V11.329C2.89844 9.71142 4.18013 8.43315 5.80327 8.43315H19.985C19.985 9.19944 19.985 14.0557 19.985 14.822Z" fill="white"/>
<path d="M19.9844 11.666H44.5894V14.9029H19.9844V11.666Z" fill="white"/>
<path d="M44.5894 11.3251V11.6661H19.9844V8.4292H41.685C43.3082 8.4292 44.5894 9.70747 44.5894 11.3251Z" fill="white"/>
<path d="M46.9834 7.41029C47.4082 7.41029 47.7528 7.75302 47.7528 8.17659C47.7528 8.60015 47.4082 8.94287 46.9834 8.94287C46.5594 8.94287 46.2148 8.60015 46.2148 8.17659C46.2148 7.75302 46.5594 7.41029 46.9834 7.41029Z" fill="#676879"/>
<path d="M30.9217 3.15146C31.3465 3.15146 31.6903 3.49503 31.6903 3.91859C31.6903 4.34215 31.3465 4.68488 30.9217 4.68488C30.4969 4.68488 30.1523 4.34215 30.1523 3.91859C30.1523 3.49503 30.4969 3.15146 30.9217 3.15146Z" fill="#676879"/>
<path d="M21.3527 5.28043C21.7772 5.28043 22.1217 5.62315 22.1217 6.04672C22.1217 6.47028 21.7772 6.81384 21.3527 6.81384C20.9285 6.81384 20.584 6.47028 20.584 6.04672C20.584 5.62315 20.9285 5.28043 21.3527 5.28043Z" fill="#676879"/>
<path d="M15.9699 2.12466C16.3948 2.12466 16.7388 2.46822 16.7388 2.89179C16.7388 3.31535 16.3948 3.65808 15.9699 3.65808C15.5456 3.65808 15.2012 3.31535 15.2012 2.89179C15.2012 2.46822 15.5456 2.12466 15.9699 2.12466Z" fill="#676879"/>
<path d="M13.5775 10.5584C14.1753 10.5584 14.688 11.0704 14.688 11.6666C14.688 12.2628 14.1753 12.7739 13.5775 12.7739C12.9794 12.7739 12.4668 12.2628 12.4668 11.6666C12.4668 11.0704 12.9794 10.5584 13.5775 10.5584Z" fill="#676879"/>
<path d="M10.4175 10.5584C11.0152 10.5584 11.5282 11.0704 11.5282 11.6666C11.5282 12.2628 11.0152 12.7739 10.4175 12.7739C9.81937 12.7739 9.30664 12.2628 9.30664 11.6666C9.30664 11.0704 9.81937 10.5584 10.4175 10.5584Z" fill="#676879"/>
<path d="M7.16934 10.5584C7.76745 10.5584 8.28009 11.0704 8.28009 11.6666C8.28009 12.2628 7.76745 12.7739 7.16934 12.7739C6.57157 12.7739 6.05859 12.2628 6.05859 11.6666C6.05859 11.0704 6.57157 10.5584 7.16934 10.5584Z" fill="#676879"/>
<path d="M1.01862 7.41029C1.44352 7.41029 1.78801 7.75302 1.78801 8.17659C1.78801 8.60015 1.44352 8.94287 1.01862 8.94287C0.59407 8.94287 0.25 8.60015 0.25 8.17659C0.25 7.75302 0.59407 7.41029 1.01862 7.41029Z" fill="#676879"/>
<path d="M44.5909 15.4135H2.89936C2.6427 15.4135 2.38672 15.1575 2.38672 14.9024C2.38672 14.6472 2.6427 14.3912 2.89936 14.3912H44.5909C44.8468 14.3912 45.1036 14.6472 45.1036 14.9024C45.1036 15.1575 44.8468 15.4135 44.5909 15.4135Z" fill="#676879"/>
<path d="M44.59 12.1796H19.985C19.7286 12.1796 19.4727 11.9244 19.4727 11.6684C19.4727 11.4124 19.7286 11.1573 19.985 11.1573H44.59C44.8459 11.1573 45.1026 11.4124 45.1026 11.6684C45.1026 11.9244 44.8459 12.1796 44.59 12.1796Z" fill="#676879"/>
<path d="M8.79398 3.15134C8.19587 3.15134 7.68315 3.66248 7.68315 4.25867C7.68315 4.85485 8.19587 5.36599 8.79398 5.36599C9.39175 5.36599 9.90439 4.85485 9.90439 4.25867C9.81901 3.57659 9.39175 3.15134 8.79398 3.15134ZM8.79398 6.30322C7.5981 6.30322 6.6582 5.36599 6.6582 4.17277C6.6582 2.9804 7.5981 2.04401 8.79398 2.04401C9.98986 2.04401 10.9294 2.9804 10.9294 4.17277C10.9294 5.36599 9.98986 6.30322 8.79398 6.30322Z" fill="#676879"/>
<path d="M38.4396 1.02225C37.4151 1.02225 36.5604 1.87443 36.5604 2.89671C36.5604 3.91899 37.4151 4.77032 38.4396 4.77032C39.4648 4.77032 40.3195 3.91899 40.3195 2.89671C40.3195 1.87443 39.4648 1.02225 38.4396 1.02225ZM38.4396 5.7926C36.8172 5.7926 35.5352 4.51518 35.5352 2.89671C35.5352 1.2774 36.8172 -1.38283e-05 38.4396 -1.38283e-05C40.0636 -1.38283e-05 41.3448 1.2774 41.3448 2.89671C41.3448 4.51518 40.0636 5.7926 38.4396 5.7926Z" fill="#676879"/>
<path d="M19.985 15.4135C19.7286 15.4135 19.4727 15.1575 19.4727 14.9024V8.51356C19.4727 8.25841 19.7286 8.00242 19.985 8.00242C20.2414 8.00242 20.4977 8.25841 20.4977 8.51356V14.9024C20.4977 15.1575 20.3264 15.4135 19.985 15.4135Z" fill="#676879"/>
<path d="M5.80419 9.02626C4.5225 9.02626 3.41166 10.0485 3.41166 11.411V46.677C3.41166 47.9553 4.43703 49.0626 5.80419 49.0626H41.6865C42.9677 49.0626 44.0783 48.0404 44.0783 46.677V11.326C44.0783 10.0485 43.053 8.94036 41.6865 8.94036H5.80419V9.02626ZM41.6865 49.999H5.80419C3.92439 49.999 2.38672 48.4665 2.38672 46.592V11.326C2.38672 9.45234 3.92439 7.91893 5.80419 7.91893H41.6865C43.5657 7.91893 45.1036 9.45234 45.1036 11.326V46.592C45.1036 48.4665 43.5657 49.999 41.6865 49.999Z" fill="#676879"/>
<path d="M7.68315 44.6329H39.7209V19.6747H7.68315V44.6329ZM40.3188 45.7411H7.1705C6.91418 45.7411 6.6582 45.4851 6.6582 45.2291V19.0785C6.6582 18.8225 6.91418 18.5674 7.1705 18.5674H40.3188C40.5755 18.5674 40.8314 18.8225 40.8314 19.0785V45.1449C40.8314 45.4851 40.5755 45.7411 40.3188 45.7411Z" fill="#676879"/>
<path d="M37.0723 38.2436C36.8164 38.2436 36.5596 37.9884 36.5596 37.7333C36.5596 34.3254 35.1931 31.0885 32.8005 28.7029C30.4088 26.3181 27.1615 24.9557 23.7443 24.9557C20.3269 24.9557 17.081 26.3181 14.6886 28.7029C12.2964 31.0885 10.9293 34.3254 10.9293 37.7333C10.9293 37.9884 10.6733 38.2436 10.417 38.2436C10.1606 38.2436 9.9043 37.9884 9.9043 37.7333C9.9043 34.0694 11.3566 30.5774 14.0053 27.9366C16.6534 25.2959 20.1564 23.8483 23.8302 23.8483C27.5035 23.8483 31.0067 25.2959 33.6544 27.9366C36.3037 30.5774 37.7555 33.9852 37.7555 37.7333C37.5849 37.9884 37.4143 38.2436 37.0723 38.2436Z" fill="#676879"/>
<path d="M23.7447 30.7461C23.4887 30.7461 23.2324 30.491 23.2324 30.2358V24.4432C23.2324 24.1872 23.4887 23.932 23.7447 23.932C24.0014 23.932 24.2575 24.1872 24.2575 24.4432V30.2358C24.2575 30.491 24.0014 30.7461 23.7447 30.7461Z" fill="#676879"/>
<path d="M29.126 32.8779C28.9554 32.8779 28.8701 32.7937 28.7848 32.7078C28.6134 32.5377 28.6134 32.1975 28.7848 31.9415L32.8851 27.8524C33.0557 27.6814 33.3978 27.6814 33.6537 27.8524C33.8251 28.0233 33.8251 28.3635 33.6537 28.6195L29.5534 32.7078C29.3828 32.8779 29.2113 32.8779 29.126 32.8779Z" fill="#676879"/>
<path d="M37.0723 38.2436H31.2626C31.0067 38.2436 30.75 37.9884 30.75 37.7333C30.75 37.4773 31.0067 37.2213 31.2626 37.2213H37.0723C37.3282 37.2213 37.5849 37.4773 37.5849 37.7333C37.5849 37.9884 37.4143 38.2436 37.0723 38.2436Z" fill="#676879"/>
<path d="M16.1406 38.2436H10.331C10.075 38.2436 9.81836 37.9884 9.81836 37.7333C9.81836 37.4773 10.075 37.2213 10.331 37.2213H16.1406C16.3966 37.2213 16.6529 37.4773 16.6529 37.7333C16.6529 37.9884 16.4824 38.2436 16.1406 38.2436Z" fill="#676879"/>
<path d="M18.3614 32.8779C18.1908 32.8779 18.1054 32.7937 18.0199 32.7078L13.9189 28.6195C13.7484 28.4494 13.7484 28.1075 13.9189 27.8524C14.0902 27.6814 14.4316 27.6814 14.6879 27.8524L18.7886 31.9415C18.9598 32.1116 18.9598 32.4518 18.7886 32.7078C18.6181 32.8779 18.5326 32.8779 18.3614 32.8779Z" fill="#676879"/>
<path d="M23.7432 36.7109C23.1454 36.7109 22.6328 37.2212 22.6328 37.8174C22.6328 38.4136 23.1454 38.9256 23.7432 38.9256C24.3416 38.9256 24.8543 38.4136 24.8543 37.8174C24.8543 37.2212 24.3416 36.7109 23.7432 36.7109ZM23.7432 39.8619C22.5473 39.8619 21.6074 38.9256 21.6074 37.7332C21.6074 36.54 22.5473 35.6036 23.7432 35.6036C24.9394 35.6036 25.8793 36.54 25.8793 37.7332C25.8793 38.9256 24.9394 39.8619 23.7432 39.8619Z" fill="#676879"/>
<path d="M23.7447 36.7145C23.4887 36.7145 23.2324 36.4585 23.2324 36.2033V32.9664C23.2324 32.7104 23.4887 32.4544 23.7447 32.4544C24.0014 32.4544 24.2575 32.7104 24.2575 32.9664V36.2033C24.2575 36.4585 24.0014 36.7145 23.7447 36.7145Z" fill="#676879"/>
</svg>
