<svg width="66" height="66" viewBox="0 0 66 66" fill="none" xmlns="http://www.w3.org/2000/svg">
<path d="M66 33.0009C66 49.6677 53.6445 63.4461 37.5948 65.6827C36.0936 65.8917 34.5582 66 33 66C31.2004 66 29.4351 65.8556 27.7135 65.5782C12.0021 63.049 0 49.4245 0 32.999C0 14.7741 14.7745 0 33 0C51.2254 0 66 14.7741 66 32.999V33.0009Z" fill="#2188F7"/>
<path d="M52.5066 20.911C51.5907 21.8364 50.3212 22.4084 48.9151 22.4084C48.7364 22.4084 48.5578 22.3989 48.3849 22.3799C49.8519 21.5001 50.9845 20.1225 51.5488 18.4788C51.5488 18.4788 51.5507 18.4788 51.5507 18.4769C51.6287 18.2564 51.6952 18.0341 51.7484 17.8042C50.5873 19.045 49.0006 19.8849 47.22 20.0845C46.9464 20.1168 46.669 20.132 46.3877 20.132C46.2984 20.132 46.2129 20.1301 46.1274 20.1244C45.525 19.4916 44.8067 18.969 44.0105 18.5852C43.1231 18.1519 42.1311 17.8973 41.0841 17.865C40.9986 17.8593 40.9131 17.8574 40.8238 17.8574C39.9363 17.8574 39.085 18.0151 38.2983 18.3059C38.0969 18.38 37.9011 18.4598 37.7092 18.5529C35.2161 19.7215 33.4906 22.2545 33.4906 25.1903C33.4906 25.7927 33.5647 26.3779 33.6997 26.9366C32.9358 26.9062 32.1795 26.8321 31.4383 26.7219C31.2008 26.6839 30.9633 26.644 30.7277 26.5984C28.8369 26.2468 27.0335 25.6426 25.3575 24.8217C23.8582 24.0882 22.4596 23.1837 21.1883 22.131C20.1185 21.2493 19.1398 20.265 18.2657 19.1895C18.2277 19.1438 18.1897 19.0963 18.1536 19.0507C18.1023 19.1286 18.0548 19.2066 18.013 19.2883C17.4011 20.3581 17.0552 21.5951 17.0552 22.9139C17.0552 22.9538 17.0552 22.9975 17.0571 23.0374C17.0723 24.0255 17.2814 24.9661 17.6557 25.8212C17.8153 26.2012 18.0092 26.5604 18.2315 26.9005C18.8871 27.9095 19.7821 28.7494 20.8387 29.3309C20.8862 29.3613 20.9356 29.386 20.985 29.4088C20.909 29.424 20.8311 29.4373 20.7531 29.4449C20.5365 29.4734 20.3123 29.4886 20.088 29.4886C18.9631 29.4886 17.9161 29.1371 17.059 28.5385C17.0533 28.6012 17.0533 28.6658 17.0533 28.7304C17.0533 30.8244 17.9313 32.7132 19.3375 34.0453C20.432 35.0904 21.8477 35.7916 23.4211 35.9968C22.8548 36.2039 22.243 36.316 21.6064 36.316C20.9166 36.316 20.2553 36.1849 19.651 35.9436C20.5517 38.8718 23.2368 41.0191 26.4368 41.1141C24.4815 43.1454 21.7356 44.4071 18.6971 44.4071C16.8082 44.4071 15.0334 43.9188 13.4941 43.0637C17.194 46.2655 22.0187 48.2 27.2958 48.2C38.9577 48.2 48.4096 38.7483 48.4096 27.0867C48.4096 26.4445 48.3811 25.8098 48.3241 25.1827C50.2529 24.4207 51.7826 22.8645 52.5066 20.9129V20.911Z" fill="white"/>
</svg>
