<svg width="66" height="66" viewBox="0 0 66 66" fill="none" xmlns="http://www.w3.org/2000/svg">
<path d="M66 33.0009C66 49.6677 53.6445 63.4461 37.5948 65.6827C36.0936 65.8917 34.5582 66 33 66C31.2004 66 29.4351 65.8556 27.7135 65.5782C12.0021 63.049 0 49.4245 0 32.999C0 14.7741 14.7746 0 33 0C51.2254 0 66 14.7741 66 32.999V33.0009Z" fill="#FF0209"/>
<path d="M53.9718 26.1022C53.7115 23.5711 53.1471 20.7759 51.072 19.3051C49.4625 18.165 47.3494 18.1232 45.3769 18.1251C41.2059 18.1289 37.0348 18.1327 32.8637 18.1365C28.8522 18.1403 24.8408 18.1441 20.8293 18.1479C19.1533 18.1479 17.5248 18.0186 15.9684 18.7426C14.6307 19.3659 13.5855 20.5497 12.9584 21.8666C12.0843 23.7003 11.9 25.7753 11.7955 27.8028C11.6016 31.493 11.6225 35.1947 11.8563 38.8811C12.0254 41.5737 12.4567 44.5475 14.5375 46.2634C16.3827 47.7835 18.9861 47.8577 21.3766 47.8596C28.97 47.8653 36.5635 47.871 44.157 47.8786C45.1299 47.8786 46.1465 47.8614 47.1385 47.7531C49.092 47.5422 50.9523 46.9835 52.2065 45.5375C53.4721 44.08 53.797 42.0487 53.9908 40.1276C54.4583 35.4683 54.4526 30.7596 53.9718 26.1022ZM28.4722 39.5366V26.467L39.7921 33.0018L28.4722 39.5366Z" fill="white"/>
</svg>
